<?xml version="1.0" standalone="no"?>
<!DOCTYPE svg PUBLIC "-//W3C//DTD SVG 1.1//EN" "http://www.w3.org/Graphics/SVG/1.1/DTD/svg11.dtd" >
<svg xmlns="http://www.w3.org/2000/svg" xmlns:xlink="http://www.w3.org/1999/xlink" version="1.1">
<metadata>
Created by FontForge 20170731 at Fri Jan  1 02:30:17 1904
 By ,,,
Converted by ALLTYPE
</metadata>
<defs>
<font id="Augustus" horiz-adv-x="311" >
  <font-face 
    font-family="Augustus"
    font-weight="5"
    font-style="italic"
    font-stretch="normal"
    units-per-em="1000"
    panose-1="0 0 0 0 0 0 0 0 0 0"
    ascent="800"
    descent="-200"
    x-height="740"
    cap-height="740"
    bbox="-7 -259 1259 2190.21"
    underline-thickness="50"
    underline-position="-155"
    slope="17560"
    unicode-range="U+0020-F002"
  />
<missing-glyph 
 />
    <glyph glyph-name=".notdef" 
 />
    <glyph glyph-name="glyph1" horiz-adv-x="0" 
 />
    <glyph glyph-name="glyph2" 
 />
    <glyph glyph-name="space" unicode=" " 
 />
    <glyph glyph-name="space" unicode="&#xa0;" 
 />
    <glyph glyph-name="exclam" unicode="!" horiz-adv-x="206" 
d="M130 158l47 -150l-151 42l104 108v0zM150 730l-14 -526l-51 26l-29 523l94 -23v0z" />
    <glyph glyph-name="quotedbl" unicode="&#x22;" horiz-adv-x="238" 
d="M101 740l-39 -270l-35 270h74v0zM207 740l-39 -270l-35 270h74v0z" />
    <glyph glyph-name="numbersign" unicode="#" horiz-adv-x="562" 
d="M503 210h-101l-30 -210h-66l30 210h-135l-32 -210h-66l32 210h-106l2 59h111l18 138h-104l-3 62l115 -3l30 220h66l-29 -220h135l30 220h66l-30 -220l99 3l-18 -62h-87l-19 -138h102l-10 -59v0zM365 407h-139l-20 -139h139l20 139v0z" />
    <glyph glyph-name="dollar" unicode="$" horiz-adv-x="483" 
d="M263 720q10 -1 18.5 -1.5t17.5 -1.5q8 -1 16.5 -2.5t18.5 -3.5q12 -2 22 -5t19 -6q8 -2 16 -5t17 -7l-17 -177l-12 47q-2 6 -3.5 12.5t-2.5 12.5q-4 17 -9 31.5t-16 24.5q-6 6 -15 11t-19 9q-14 5 -26 8t-15 3l-14 4v-282l31 -13q7 -4 13.5 -7t12.5 -6q53 -25 97 -69
t45 -113q1 -74 -48 -128.5t-123 -66.5l-25 -5v-68h-55v65q-14 1 -25.5 2t-22.5 4q-10 2 -20 4.5t-21 6.5l-8 2l-8 2q-7 3 -13.5 5.5t-13.5 5.5q-8 4 -16.5 8.5t-18.5 10.5l-13 186l20 -49q6 -16 11 -28t10 -22q9 -21 20.5 -35t33.5 -27l9 -4.5l9 -4.5q15 -6 29 -9t22 -3
l16 2v283l-34 14q-69 29 -110.5 72.5t-40.5 119.5q2 67 43.5 115t107.5 66l26 8l12 24h39l13 -20v0zM260 38h17q6 -1 13 0.5t13 4.5q32 12 58.5 44.5t26.5 71.5q-1 2 -1 4.5v4.5q-4 37 -22 62t-39 39q-15 11 -29 17t-23 8l-14 4v-260v0zM207 665l-17 -3q-40 -7 -70.5 -40
t-30.5 -80q0 -34 19.5 -63.5t43.5 -45.5q8 -7 16.5 -11t16.5 -5l22 -3v251v0z" />
    <glyph glyph-name="percent" unicode="%" horiz-adv-x="851" 
d="M631 422q1 -1 2 -1h2h1h2q80 0 131.5 -60t52.5 -149q2 -82 -50 -147.5t-138 -65.5h-1.5h-0.5h-1.5h-1.5q-77 2 -125 63t-49 144t49.5 147.5t126.5 67.5v1zM622 362q-55 -5 -88.5 -46t-33.5 -101v-0.5v-1.5v-1.5v-0.5v-6.5t1 -6.5q5 -52 42 -95t92 -43q60 -1 102.5 42
t41.5 105q-1 61 -43.5 108t-101.5 47h-2.5h-3.5q-1 -1 -2.5 -1h-3.5v1zM588 735l-291 -735h-37l292 735h36v0zM205 738q2 -1 3.5 -1h2.5q80 0 131.5 -64t52.5 -145q1 -82 -50 -149t-137 -67h-0.5h-1.5h-1.5h-0.5q-77 3 -125.5 66t-50.5 144q-1 83 50 147.5t127 67.5v1z
M196 679q-57 -6 -90 -49.5t-33 -105.5v-6.5t1 -6.5q5 -51 42.5 -93.5t91.5 -42.5q61 -1 101 42.5t39 105.5q-1 61 -42 108.5t-100 46.5h-5.5h-4.5v1z" />
    <glyph glyph-name="ampersand" unicode="&#x26;" horiz-adv-x="891" 
d="M396 397q-6 -2 -12 -2.5t-12 -0.5q-22 0 -41.5 6.5t-36.5 15.5l-5 -18q13 -17 24 -30t22 -25q4 -4 8.5 -9t8.5 -9q11 -12 23.5 -24t27.5 -26q18 -17 33.5 -30.5t30.5 -25.5q6 -5 12.5 -10t12.5 -10q14 -10 28.5 -21t32.5 -23q5 6 9.5 12t9.5 11q7 9 13 18t13 18
q5 8 10.5 16.5t10.5 17.5q8 14 14 25.5t11 23.5q5 8 8.5 17.5t7.5 19.5q2 4 3.5 9t3.5 10l-28 3q-1 -1 -3 -1t-3 1h-3.5h-3.5q-5 0 -10 -0.5t-10 -0.5q-8 -1 -16.5 -3t-15.5 -5q-9 -4 -15 -10t-11 -13q-3 -4 -6 -8.5t-7 -9.5l-19 -21l24 134q4 -3 8 -4.5t8 -3.5q5 -2 11 -3
t13 -2q5 -1 9 -1h8h2.5h2.5h4.5h5.5l180 1q6 -1 11.5 -0.5t10.5 0.5l8 2t9 2q2 1 4 1.5t4 1.5q4 2 8 3.5t8 3.5q3 2 6 3.5t6 3.5l-27 -156l-10 46q-2 9 -6.5 16t-13.5 12q-6 4 -14.5 6t-18.5 3q-5 1 -10.5 1.5t-10.5 0.5q-2 1 -3.5 1h-2.5l-25 3q-2 -8 -4.5 -15t-4.5 -13
q-3 -9 -6 -16.5t-7 -15.5q-5 -12 -11 -24.5t-13 -26.5q-5 -10 -10.5 -19.5t-10.5 -18.5t-10 -17t-11 -17q-9 -12 -18.5 -24.5t-21.5 -27.5l26 -20q5 -5 10.5 -8.5t12.5 -7.5q8 -4 16 -8.5t17 -8.5l24 -10t22 -9q15 -6 28 -10.5t25 -8.5l26 -8t30 -7l-62 -12q-7 -2 -16 -3.5
t-18 -1.5q-22 1 -46.5 5.5t-50.5 13.5q-19 7 -34.5 14t-29.5 16q-8 5 -17 11.5t-18 14.5l-37 -22q-24 -16 -46.5 -26.5t-44.5 -17.5q-22 -6 -44.5 -9t-46.5 -3h-7.5h-7.5q-107 3 -193 71t-85 174q0 63 29 114t72 76l37 23l-13 48q-3 10 -4.5 20t-1.5 20q0 7 1 14.5t2 16.5
q11 74 67 121.5t129 47.5t129 -44.5t61 -117.5v-2v-2v-1.5v-0.5v-3.5v-3.5q0 -64 -42.5 -114t-99.5 -60v1zM165 130q29 -27 63 -42t69 -21q11 -2 23 -3t23 -1q34 0 65 8t56 22l23 14q-20 13 -36.5 26.5t-31.5 26.5q-9 7 -17.5 15t-16.5 16q-18 17 -36.5 35t-40.5 40
q-16 16 -31 33.5t-28 35.5q-17 23 -32 45.5t-28 42.5l-37 -37q-23 -25 -35 -56t-12 -64v-4.5v-4.5q2 -36 17.5 -69.5t42.5 -58.5v1zM339 698q-50 -4 -84 -41t-34 -87v-1.5v-1.5q2 -49 37.5 -85.5t79.5 -37.5q57 0 92.5 33.5t38.5 84.5v2v2v1v2q0 52 -37 90.5t-89 37.5h-0.5
h-1.5h-1.5h-0.5v1z" />
    <glyph glyph-name="quotesingle" unicode="'" horiz-adv-x="131" 
d="M101 740l-39 -270l-35 270h74v0z" />
    <glyph glyph-name="parenleft" unicode="(" horiz-adv-x="332" 
d="M301 723l-29 -26q-13 -13 -27.5 -28t-29.5 -33q-46 -54 -84.5 -129.5t-40.5 -158.5v-4v-4q0 -116 60 -204t136 -149l22 -17l-20 -31l-23 15q-19 12 -40.5 29t-43.5 38q-56 56 -103.5 139t-46.5 182v3.5v2.5q2 87 43.5 164t90.5 134q24 27 47 48t41 36l27 22l21 -29v0z
" />
    <glyph glyph-name="parenright" unicode=")" horiz-adv-x="343" 
d="M43 -32l29 27q13 11 28 26t30 33q46 55 84.5 130t39.5 158v4.5v3.5q0 116 -60 204t-136 149l-21 19l19 30l23 -14q19 -13 40 -30t43 -39q57 -55 104 -137.5t47 -180.5v-4.5v-4.5q-2 -87 -43.5 -164t-90.5 -134q-24 -27 -47 -47.5t-41 -35.5l-27 -22l-21 29v0z" />
    <glyph glyph-name="asterisk" unicode="*" horiz-adv-x="392" 
d="M43 671l116 -33l33 125l44 -127l122 35l-84 -98l91 -93l-128 31l-37 -123l-44 126l-123 -28l84 89l-74 96v0z" />
    <glyph glyph-name="plus" unicode="+" horiz-adv-x="565" 
d="M28 285h227v231h56v-231h230v-58h-228v-232h-57v233h-228v57v0z" />
    <glyph glyph-name="comma" unicode="," horiz-adv-x="284" 
d="M258 100l-227 -243l126 307l101 -64v0z" />
    <glyph glyph-name="hyphen" unicode="-" horiz-adv-x="356" 
d="M217 291h-96q-1 -1 -2 -1h-2h-11t-12 -1q-8 -1 -16 -4t-12 -9q-2 -2 -3 -4.5t-3 -4.5q0 -1 -1 -2.5t-2 -3.5q-3 -5 -6.5 -12l-8.5 -17l-16 -28v230l8 -17q2 -5 4.5 -9.5t4.5 -8.5q1 -2 1.5 -3.5t1.5 -2.5q4 -9 8 -16.5t7 -12.5q5 -8 15.5 -10t22.5 -2h8h8h4h4l109 1
q1 -1 3 -1h4q5 0 11 0.5t13 1.5q6 2 12.5 4.5t10.5 7.5q3 3 7.5 9.5t8.5 13.5l2 4l2 4q4 7 7.5 13.5t6.5 11.5l11 19v-237l-16 29q-5 9 -8.5 16t-6.5 12q-1 2 -2 3.5t-1 2.5q-2 2 -3 4.5t-3 4.5q-3 5 -14 7.5t-24 4.5q-11 1 -21 1.5t-15 0.5v1z" />
    <glyph glyph-name="period" unicode="." horiz-adv-x="213" 
d="M136 101l49 -163l-159 51l110 112v0z" />
    <glyph glyph-name="slash" unicode="/" horiz-adv-x="450" 
d="M420 751l-340 -761h-63l339 761h64v0z" />
    <glyph glyph-name="zero" unicode="0" horiz-adv-x="670" 
d="M319 755q2 -1 4.5 -1h4.5q134 0 215.5 -103t97.5 -232q1 -7 1.5 -14t0.5 -13q1 -7 1 -14v-14v-4.5v-4.5q-3 -137 -85 -251t-219 -114q-145 0 -229.5 118.5t-82.5 272.5v4.5v4.5q4 135 81 248t210 116v1zM304 671q-103 -9 -162.5 -93t-59.5 -188v-3.5v-3.5
q3 -115 78 -209.5t184 -93.5h1.5h1.5q116 3 176.5 87.5t60.5 188.5q0 11 -0.5 22.5t-2.5 22.5q-13 110 -87 190t-172 80h-8.5t-9.5 -1v1z" />
    <glyph glyph-name="one" unicode="1" horiz-adv-x="493" 
d="M256 606l-229 -173l262 307h55v-639q0 -11 2 -19.5t6 -16.5q2 -4 4.5 -8t5.5 -8q7 -8 23 -15.5t34 -13.5l18 -6t17 -6l23 -8h-352l23 9q8 2 17 5t19 6q17 6 32.5 13.5t22.5 15.5q3 4 5.5 8t4.5 8q3 8 4.5 16.5t1.5 18.5l1 506v0z" />
    <glyph glyph-name="two" unicode="2" horiz-adv-x="583" 
d="M339 276l-51 -9q-4 -1 -7.5 -1.5t-7.5 -1.5q-7 -1 -14.5 -1h-15.5h-12.5t-13.5 1q-81 9 -137 65t-55 148v6v6q4 106 85 177t177 81q2 0 4.5 0.5t4.5 0.5h4t5 1h4h4q9 0 17.5 -0.5t16.5 -2.5q78 -12 143.5 -69.5t66.5 -148.5q1 -67 -28 -120t-77 -103q-6 -5 -11 -10.5
t-11 -10.5l-196 -189l8 -20l34 2q9 -1 18 -0.5t18 0.5h21.5t21.5 -1h19h18q23 0 41.5 1t29.5 5q11 3 20 16t16 28l6 14t6 13l22 50l-5 -203h-457v16l268 260v0zM280 690q-76 -4 -130.5 -60t-53.5 -130q1 -67 46.5 -121t114.5 -56h4.5h4.5q87 0 144 54t56 133q0 78 -50 128.5
t-128 50.5h-2h-2h-2h-2v1z" />
    <glyph glyph-name="three" unicode="3" horiz-adv-x="552" 
d="M86 570l-19 -63l-2 233h450l-213 -288l50 -9q75 -14 120 -69t52 -132q0 -3 0.5 -5.5t0.5 -5.5v-5.5v-5.5q0 -100 -87.5 -165t-193.5 -63q-52 0 -100 17.5t-80 44.5l-41 37l43 46l24 -22q32 -29 69 -48t78 -19q83 -1 138 53t55 131v1.5v1.5q-1 67 -52 119t-134 54l-34 2
l169 254h-100q-4 -1 -8 -1h-8h-8h-8q-38 0 -71.5 -1t-47.5 -7q-9 -4 -16.5 -17.5t-13.5 -29.5q-4 -11 -7 -21.5l-5 -17.5v1z" />
    <glyph glyph-name="four" unicode="4" horiz-adv-x="632" 
d="M475 279h109v-53h-109v-125q0 -11 2 -19.5t6 -16.5q2 -4 4.5 -8t5.5 -8q6 -8 21.5 -15.5t33.5 -13.5q10 -3 19 -6t17 -6l23 -8h-352l23 9q8 2 17 5t19 6q17 6 32.5 13.5t22.5 15.5q3 4 5.5 8t4.5 8q3 8 4.5 16.5t1.5 18.5v126h-359v58l394 456h55v-461v0zM124 279h261
v330h-14l-247 -313v-17v0z" />
    <glyph glyph-name="five" unicode="5" horiz-adv-x="502" 
d="M429 739v-199l-22 58l-0.5 1.5t-1.5 2.5q-5 16 -12 29.5t-20 20.5q-10 6 -31.5 8t-45.5 2h-9h-9l-145 1l-10 -195l34 9q12 3 22 6t19 5t18 3t19 1h1.5h1.5h0.5h1.5q97 -1 167 -67.5t72 -159.5q2 -119 -73 -195.5t-188 -77.5q-45 0 -82 10t-67 29l-40 29l37 51l38 -28
q23 -20 49 -27.5t54 -7.5h3.5h2.5q76 2 128 58.5t52 130.5v4.5v4.5q-4 72 -53 121.5t-121 56.5h-4t-4 1h-4h-4q-7 0 -14.5 -0.5t-15.5 -1.5q-20 -3 -38.5 -8t-33.5 -13l-30 -14l1 351h357v0z" />
    <glyph glyph-name="six" unicode="6" horiz-adv-x="607" 
d="M405 716l-19 -21q-10 -13 -21 -25t-22 -25q-6 -7 -12 -14.5t-12 -14.5q-27 -32 -51 -62t-42 -54q-3 -4 -5 -7.5t-4 -7.5q-2 -3 -4 -6.5t-4 -7.5q-1 -4 -3 -8l-4 -8l37 11q10 1 19 3.5t18 4.5q13 3 26.5 4.5t28.5 1.5q92 1 163 -55.5t78 -148.5v-4.5t1 -4.5v-4.5v-4.5
q0 -107 -85 -188.5t-198 -79.5q-115 1 -190 64.5t-74 180.5v4.5v4.5q3 88 48.5 162.5t108.5 145.5l18 20l18 20l143 155l43 -31v0zM280 422q-73 -7 -124.5 -57t-54.5 -124v-4.5v-4.5q0 -77 57 -133t137 -56q80 -1 139 56.5t59 135.5v9.5t-1 8.5q-7 74 -65 121.5t-130 47.5
h-4h-4q-3 -1 -5 -1h-4v1z" />
    <glyph glyph-name="seven" unicode="7" horiz-adv-x="606" 
d="M578 740l-394 -761l-80 52l366 629h-338q-12 -1 -21.5 -2t-19.5 -5q-1 -1 -3 -2.5t-4 -2.5q-9 -8 -14.5 -22.5t-10.5 -30.5q0 -2 -0.5 -3t-0.5 -3l-4 -12l-4 -12l-12 -36l-9 211h549v0z" />
    <glyph glyph-name="eight" unicode="8" horiz-adv-x="565" 
d="M271 750q2 -1 3.5 -1h3.5h3.5h3.5h3.5h2.5q79 -2 145 -45t69 -121v-2.5v-2.5v-2.5v-2.5q0 -49 -22.5 -82.5t-61.5 -61.5l-27 -18l41 -23q48 -27 73.5 -66.5t28.5 -95.5v-6v-6q0 -94 -82 -158.5t-182 -64.5h-2h-1h-2h-2q-91 3 -164 55t-73 146v3v3v2.5v2.5q3 57 29 96
t72 70l31 21l-41 32q-2 1 -4.5 2.5t-4.5 3.5q-29 24 -44.5 51.5t-16.5 70.5q-1 86 67 140.5t154 58.5v1zM269 371q-64 -7 -107.5 -52.5t-45.5 -110.5q-1 -67 46.5 -112t113.5 -49h4.5h4.5q67 0 118 47.5t51 114.5v3.5v2.5q-1 66 -52 111t-116 45h-8t-9 -1v1zM268 700
q-55 -5 -96.5 -41t-43.5 -92v-1.5v-2.5q0 -57 41.5 -96.5t99.5 -43.5h4.5h4.5q59 0 105 41.5t45 99.5v2v2v1v2q-4 57 -49 93t-102 35h-4.5h-4.5v1z" />
    <glyph glyph-name="nine" unicode="9" horiz-adv-x="610" 
d="M137 34l22 21q11 9 22 19t23 20q4 4 8 7.5t8 6.5q35 30 67 58.5t51 50.5q9 11 15 18t12 13l0.5 1l0.5 1q4 4 7.5 9t8.5 11l-47 -2q-13 -2 -21.5 -2.5t-15.5 -0.5h-4h-4h-8h-9q-11 0 -22 2t-23 4q-66 16 -123 67t-69 128q-1 5 -1.5 9t-0.5 9q-1 4 -1 8.5v8.5q1 95 76 170
t198 74h2h2h1h2q106 -3 181.5 -65.5t86.5 -182.5v-4t1 -3v-4v-4q0 -40 -19 -83t-50 -88q-40 -54 -93.5 -107t-111.5 -99l-140 -112l-32 41v0zM326 317q74 6 125 57t54 125v3.5v2.5q0 78 -57 134.5t-138 57.5q-81 0 -140.5 -58t-59.5 -137v-4t1 -4v-4v-4q7 -76 66.5 -123.5
t131.5 -47.5h8.5t8.5 1v1z" />
    <glyph glyph-name="colon" unicode=":" horiz-adv-x="213" 
d="M134 101l50 -163l-159 51l109 112v0zM134 459l50 -163l-159 50l109 113v0z" />
    <glyph glyph-name="semicolon" unicode=";" horiz-adv-x="286" 
d="M256 100l-226 -243l125 307l101 -64v0zM204 459l50 -163l-159 50l109 113v0z" />
    <glyph glyph-name="less" unicode="&#x3c;" horiz-adv-x="437" 
d="M415 451v-69l-342 -161l342 -154v-67l-389 182v82l389 187v0z" />
    <glyph glyph-name="equal" unicode="=" horiz-adv-x="519" 
d="M29 183h458v-51h-458v51v0zM29 304h458v-52h-458v52v0z" />
    <glyph glyph-name="greater" unicode="&#x3e;" horiz-adv-x="440" 
d="M26 0v69l343 160l-343 155v67l389 -183v-81l-389 -187v0z" />
    <glyph glyph-name="question" unicode="?" horiz-adv-x="515" 
d="M268 101l47 -163l-157 51l110 112v0zM276 150l27 42q18 26 25.5 38.5t12.5 21.5q3 4 6 9t7 12q6 10 8.5 16.5t4.5 11.5q1 1 1 2v2q2 3 3 7t3 9l-36 -15q-1 -2 -2.5 -2.5t-3.5 -1.5q-4 -3 -9.5 -6.5t-12.5 -7.5q-12 -7 -31 -13t-53 -8h-3h-4q-13 0 -27 2t-28 6
q-50 15 -92.5 59t-43.5 122q0 97 65 159t168 69h3.5h3.5h3h3q83 0 146 -56t63 -141q1 -50 -15.5 -107t-78.5 -149l-78 -112l-35 31v0zM269 332q53 6 92 45t46 84q0 4 0.5 7.5t0.5 7.5v3.5v2.5q-4 62 -48.5 104.5t-105.5 43.5h-2.5h-2.5q-66 0 -112.5 -46t-46.5 -118v-4t1 -3
v-4v-4q5 -58 52 -90t102 -32q6 0 12 0.5t12 1.5v1z" />
    <glyph glyph-name="at" unicode="@" horiz-adv-x="767" 
d="M463 487l11 -27l19 64h87l-71 -265l-5 -18q-1 -6 -2.5 -12.5t-2.5 -12.5q-1 -3 -1 -6v-6q0 -9 3.5 -16.5t12.5 -10.5q4 -1 7.5 -1.5t7.5 -0.5q10 0 20.5 3.5t20.5 10.5q31 21 60 64t43 90q3 12 5.5 23t3.5 22q2 11 2 20.5v19.5q0 87 -52.5 149.5t-165.5 89.5q-6 2 -12 3
l-12 2q-12 2 -24 3t-24 1q-120 -1 -209.5 -86t-100.5 -204q-1 -7 -1 -14.5v-15.5q0 -118 77 -207.5t195 -106.5l24 -2t23 -1q72 0 131.5 27t94.5 59q11 10 19 20.5t13 19.5l10 21h64l-12 -20q-49 -89 -136 -132.5t-186 -42.5h-22.5t-22.5 2q-141 13 -235 120t-94 247v6.5
v6.5t0.5 6.5t0.5 6.5q11 142 120 241.5t247 99.5q17 0 33.5 -1.5t33.5 -5.5q126 -25 201.5 -100t75.5 -186v-11t-1 -12q-7 -105 -77 -184.5t-167 -80.5q-18 0 -32.5 12t-23.5 26q-5 7 -8 14.5t-4 12.5l-2 21l-19 -24q-21 -28 -47.5 -43t-57.5 -14q-8 0 -16.5 1t-16.5 3
q-50 14 -77 57t-26 94v10t1 10q0 5 1 10l2 10q14 64 62.5 113t103.5 67q13 4 25.5 6t24.5 2q8 0 14.5 -0.5t13.5 -2.5q20 -4 32.5 -15.5t19.5 -29.5v1zM276 374q-6 -15 -10.5 -31t-7.5 -32q-2 -12 -3.5 -24t-1.5 -23q0 -28 10 -50t34 -30q6 -2 12 -3t12 -1q35 0 59.5 34
t41.5 75q3 9 6 17.5t6 16.5q5 12 8.5 25t6.5 26t4 26t1 25q0 25 -7.5 45t-26.5 30q-3 2 -6 3.5t-6 1.5q-4 1 -7 1.5t-6 0.5q-31 0 -59.5 -32.5t-47.5 -72.5q-3 -7 -6 -14.5t-6 -14.5v1z" />
    <glyph glyph-name="A" unicode="A" horiz-adv-x="841" 
d="M460 740q2 -8 4 -14.5t4 -12.5q1 -7 3 -13t4 -14q14 -43 41 -118.5t57 -156.5l4 -10l4 -10q36 -99 68.5 -182.5t43.5 -107.5q3 -8 6 -14t6 -13q2 -5 5 -10.5t6 -11.5q5 -10 20.5 -18t33.5 -15q4 -1 8 -3t8 -3q3 -1 5.5 -2.5t5.5 -2.5l21 -8h-296l26 10q6 1 13 4t15 6
q14 5 25.5 12t14.5 17v0.5t1 1.5v1.5v1.5q0 5 -2 13t-5 15q-1 4 -2 7l-2 6q-1 4 -2.5 7.5t-2.5 6.5l-67 188h-247l-70 -187l-1.5 -4.5t-0.5 -3.5q-2 -4 -3.5 -9t-2.5 -10q-3 -11 -5 -21t-2 -15v-1.5v-1.5q4 -9 15.5 -14.5t25.5 -10.5q2 0 4 -0.5t3 -1.5q5 -2 10 -3.5t9 -3.5
l27 -10h-273l22 8q7 2 15.5 5t16.5 6q17 6 32 14t20 17q3 5 5 10t4 9q2 3 3 6t2 7q2 4 3.5 8t3.5 9q13 28 25.5 58.5t25.5 62.5q7 16 14 32.5t14 33.5q52 129 94 241.5t52 143.5q3 10 5.5 18t4.5 16q0 3 1 5.5t1 5.5q2 5 3.5 11t2.5 12l67 1v0zM511 349l-101 262l-102 -262
h203v0z" />
    <glyph glyph-name="B" unicode="B" horiz-adv-x="630" 
d="M26 740h182q16 -1 29.5 -1h25.5q8 1 15 1h14h32.5t37.5 -1q72 -3 127.5 -45t59.5 -119v-2.5v-2.5v-2.5v-2.5q0 -54 -29.5 -93t-78.5 -65l-31 -16l58 -19q59 -20 94.5 -61.5t40.5 -103.5v-6v-6q0 -75 -60 -126.5t-131 -67.5q-13 -2 -25.5 -4t-24.5 -2h-8.5h-9.5
q-11 0 -21 0.5t-19 1.5h-5.5t-5.5 1q-12 0 -25.5 1t-29.5 1h-212l22 8q7 2 16 5l18 6q17 6 32.5 13.5t21.5 15.5q2 2 3 4t2 3q6 10 8.5 19.5t2.5 21.5v546q0 13 -1.5 24t-9.5 21q-6 8 -21.5 14.5t-33.5 12.5q-11 4 -21.5 7.5t-18.5 7.5l-20 11v0zM258 53q9 -5 28.5 -8.5
t41.5 -3.5q13 0 25.5 1t24.5 4q74 18 107 58t32 95v10.5t-1 11.5q-6 67 -64 99t-127 36q-5 1 -10.5 1h-11.5l-66 1v-261q0 -14 4.5 -26t16.5 -19v1zM335 691q-3 -1 -6 -1h-7h-9.5h-9.5q-17 -1 -32.5 -3t-21.5 -5q-9 -6 -10.5 -16t-1.5 -22v-1v-2v-238h47q10 -1 19.5 0
t19.5 3q57 10 104 48t47 97v3.5v2.5q-1 2 -1 3.5v3.5q-7 74 -48 99t-90 27v1z" />
    <glyph glyph-name="C" unicode="C" horiz-adv-x="771" 
d="M438 768q17 0 32 0.5t29 0.5q21 0 40.5 -1.5t39.5 -4.5q19 -3 38.5 -7.5t40.5 -10.5l29 -7l1 -201l-24 62q-2 5 -4.5 10.5t-4.5 11.5q-8 20 -16.5 37t-22.5 26l-4 2t-5 3q-18 7 -52.5 13.5t-72.5 8.5q-7 1 -14 1h-14h-6h-5q-3 -1 -5.5 -1h-5.5q-135 -7 -227 -99.5
t-91 -236.5q1 -138 97.5 -236.5t241.5 -96.5q6 0 12 0.5t12 0.5q57 4 109 23t74 44q8 9 15.5 21.5t14.5 25.5q6 12 12 24.5t11 21.5l25 48l-43 -214l-36 -13q-11 -5 -21 -8.5t-20 -6.5q-42 -11 -88.5 -15t-117.5 -3q-17 0 -34 2t-34 6q-117 24 -215 121t-103 240v3.5v3.5v3
v3q0 169 123.5 277.5t288.5 116.5v1z" />
    <glyph glyph-name="D" unicode="D" horiz-adv-x="841" 
d="M807 414q1 -12 1.5 -23t0.5 -22q0 -123 -56 -198t-123 -115q-46 -28 -88.5 -42t-66.5 -17q-14 -2 -31.5 -3.5t-36.5 -1.5q-10 0 -20 0.5t-20 0.5q-14 1 -28 1.5t-27 1.5q-22 2 -41.5 3t-32.5 1h-212l22 8q7 2 16 5l18 6q17 6 32.5 13.5t21.5 15.5q2 2 3 4t2 3
q6 10 8.5 19.5t2.5 21.5v546q0 13 -1.5 24t-9.5 21q-7 8 -22.5 14.5t-32.5 11.5q-10 4 -19.5 6.5t-17.5 5.5l-22 9h182q13 -1 31 0t40 2q22 0 46.5 1t51.5 1q18 0 36 -0.5t36 -1.5q13 -1 25 -2t24 -3q26 -4 58 -14.5t66 -29.5q64 -36 119.5 -103.5t64.5 -170.5v1zM237 642
v-538q0 -16 4 -28.5t17 -20.5q1 -1 2.5 -1.5t4.5 -0.5q13 -3 42.5 -6t64.5 -3h15.5t14.5 1q32 1 62.5 6t52.5 15q17 8 38.5 17.5t44.5 23.5q44 28 82 83t42 158v3.5v3.5v3v3q0 110 -68.5 201t-185.5 117q-12 3 -43 5t-66 1h-2h-2q-35 0 -65.5 -2.5t-41.5 -8.5
q-8 -4 -10.5 -13t-2.5 -20v1z" />
    <glyph glyph-name="E" unicode="E" horiz-adv-x="593" 
d="M26 740h501l-1 -164l-14 40q-2 4 -3.5 9t-3.5 9q-5 14 -10.5 24.5t-17.5 18.5q-8 5 -18 8t-20 4q-6 0 -11.5 0.5t-11.5 0.5l-123 1q-2 -1 -4 -1h-5q-12 0 -23.5 -1t-17.5 -7q-4 -4 -5 -13.5t-1 -20.5v-0.5v-1.5v-2.5v-2.5v-239h142q6 -1 12 -1h12q12 0 22.5 1.5t19.5 8.5
q2 2 4 3.5t3 3.5q5 4 7.5 8t5.5 10l21 44v-235l-9 23q-1 3 -2.5 7t-2.5 8q-1 2 -1.5 3.5t-1.5 3.5q-5 16 -11.5 30.5t-17.5 20.5q-6 4 -12 6t-12 3t-12.5 1h-14.5h-2.5h-2.5l-147 1v-246q0 -5 0.5 -11t1.5 -11q2 -11 5.5 -19.5t9.5 -11.5q8 -4 14.5 -5t13.5 -1h5.5t5.5 1h5
h6l164 1q3 -1 6 -1h6q2 -1 5 -1h6q5 0 10 1t10 3q8 4 13.5 16t10.5 27q1 3 2 6.5t2 6.5q2 6 4.5 12t4.5 11l13 32l-5 -162h-530l23 7q8 1 18.5 4t21.5 6q10 4 20 7.5t18 7.5q5 2 9 5t6 5q5 6 7 13.5t3 15.5v6v6v9v8v542v9.5v9.5q0 10 -1.5 18.5t-8.5 16.5q-2 2 -6 5t-9 5
q-8 4 -18 7.5t-20 7.5q-11 3 -21.5 6t-18.5 5l-23 8v0z" />
    <glyph glyph-name="F" unicode="F" horiz-adv-x="537" 
d="M26 740h481v-164l-14 40q-2 4 -3.5 9t-3.5 9q-5 14 -10.5 24.5t-17.5 18.5q-10 6 -21 8.5t-23 3.5q-4 1 -8.5 1h-9.5l-103 1q-2 -1 -4 -1h-5q-12 0 -23.5 -1t-17.5 -7q-4 -4 -5.5 -9.5t-1.5 -10.5v-4.5t1 -5.5v-2v-2v-3.5v-3.5v-239h133q6 -1 12 -1h11q12 0 23 1.5
t20 8.5q2 2 4 3.5t3 3.5q3 3 5.5 6t4.5 8q0 1 0.5 2t1.5 2l21 44v-235l-9 23q-2 3 -3.5 7.5t-2.5 9.5q0 1 -0.5 2.5t-0.5 2.5q-6 16 -12 30.5t-18 20.5q-6 3 -11 5t-11 3q-6 2 -13 2h-15h-2.5h-2.5l-138 1v-255q0 -17 1.5 -29.5t11.5 -24.5q6 -8 21.5 -13.5t32.5 -9.5
q3 -1 5.5 -2t5.5 -1q8 -2 15 -4.5t13 -4.5l22 -8h-339l23 7q8 1 18.5 4t21.5 6q10 4 20 7.5t18 7.5q5 2 9 5t6 5q3 5 5.5 9.5t3.5 9.5t1.5 10t0.5 9v5.5v4.5q-1 3 -1 5.5v4.5v542v9.5v9.5q0 10 -1.5 18.5t-8.5 16.5q-2 2 -6 5t-9 5q-8 4 -18 7.5t-20 7.5q-11 3 -21.5 6
t-18.5 5l-23 8v0z" />
    <glyph glyph-name="G" unicode="G" horiz-adv-x="831" 
d="M631 153v74q0 9 -3 16.5t-9 14.5q-1 1 -2 2.5t-2 2.5q-6 6 -15.5 9.5t-20.5 6.5q-4 1 -8.5 2t-9.5 2q-4 2 -7.5 3t-6.5 2l-32 17h289l-34 -19q-2 -2 -4 -3l-4 -2q-4 -2 -8.5 -3.5t-8.5 -2.5q-10 -4 -18 -8.5t-12 -13.5q-3 -7 -4.5 -30t-1.5 -50v-4.5v-4.5q0 -15 1 -28.5
t2 -24.5l6 -54l-58 -23q-5 -3 -11 -5l-12 -4q-37 -14 -92 -24.5t-131 -9.5q-16 0 -33 2t-34 5q-117 24 -215.5 121.5t-103.5 240.5v3.5v3.5v3v3q0 169 124.5 278.5t289.5 116.5q11 1 22 1h21q42 0 77.5 -5t69.5 -14q6 -2 13 -4.5t14 -4.5l42 -13l-15 -210l-20 81
q-6 26 -14.5 49.5t-27.5 35.5q-3 2 -8.5 4.5t-13.5 5.5q-19 6 -48.5 11.5t-61.5 7.5q-10 1 -21 1.5t-21 0.5h-8.5h-9.5q-133 -8 -225 -98t-91 -229v-3v-3v-3.5v-3.5q6 -156 101 -246t239 -88q8 0 16.5 0.5t16.5 1.5q45 6 84 22t50 35q2 3 3 5.5t2 4.5q2 8 2.5 17t0.5 25v1z
" />
    <glyph glyph-name="H" unicode="H" horiz-adv-x="891" 
d="M756 697q-1 -3 -2.5 -4.5t-2.5 -3.5q-6 -10 -6.5 -19.5t-0.5 -21.5v-3.5v-3.5l1 -544v-4.5v-3.5q0 -13 1 -24t10 -22q6 -8 21.5 -13.5t32.5 -9.5q3 -1 5.5 -2t5.5 -1q7 -2 14.5 -4.5l13.5 -4.5l21 -8h-338l23 7q8 1 18.5 4t21.5 6q10 4 20 7.5t18 7.5q5 2 9 5t6 5
q2 3 3.5 6t3.5 6q2 6 2.5 12t0.5 12v8.5v9.5v253h-427v-252q0 -17 1.5 -29.5t11.5 -24.5q6 -8 21.5 -13.5t32.5 -9.5q3 -1 5.5 -2t5.5 -1q8 -2 15 -4.5t13 -4.5l22 -8h-339l23 7q8 1 18.5 4t21.5 6q10 4 20 7.5t18 7.5q5 2 9 5t6 5q3 5 5.5 9.5t3.5 9.5t1.5 10t0.5 9v5.5
v4.5q-1 3 -1 5.5v4.5v539v3.5t1 5.5v5v6q0 4 -0.5 7.5t-1.5 7.5q-1 6 -3 11.5t-6 10.5q-2 2 -6 5t-9 5q-8 4 -18 7.5t-20 7.5q-11 3 -21.5 6t-18.5 5l-23 8h339l-22 -9q-6 -4 -14 -6t-17 -4q-2 -1 -4 -1.5t-4 -1.5q-17 -4 -32.5 -9.5t-21.5 -12.5q-1 -2 -2.5 -3.5t-2.5 -3.5
q-6 -11 -7 -22.5t-1 -25.5v-231h427v232v9.5v9.5q0 10 -1.5 18.5t-8.5 16.5q-2 2 -6 5t-9 5q-8 4 -18 7.5t-20 7.5q-11 3 -21.5 6t-18.5 5l-23 8h338l-21 -9q-6 -4 -14 -6t-17 -4q-2 -1 -4 -1.5t-4 -1.5q-17 -4 -32.5 -9.5t-21.5 -12.5v1z" />
    <glyph glyph-name="I" unicode="I" horiz-adv-x="389" 
d="M237 642v-545q0 -17 1.5 -29.5t11.5 -24.5q6 -8 21.5 -13.5t32.5 -9.5q3 -1 5.5 -2t5.5 -1q8 -2 15 -4.5t13 -4.5l22 -8h-339l23 7q8 1 18.5 4t21.5 6q10 4 20 7.5t18 7.5q5 2 9 5t6 5q3 5 5.5 9.5t3.5 9.5t1.5 10t0.5 9v5.5v4.5q-1 3 -1 5.5v4.5v539v3.5t1 5.5v5v6
q0 4 -0.5 7.5t-1.5 7.5q-1 6 -3 11.5t-6 10.5q-2 2 -6 5t-9 5q-8 4 -18 7.5t-20 7.5q-11 3 -21.5 6t-18.5 5l-23 8h339l-22 -9q-6 -4 -14 -6t-17 -4q-2 -1 -4 -1.5t-4 -1.5q-17 -4 -32.5 -9.5t-21.5 -12.5q-1 -2 -2.5 -3.5t-2.5 -3.5q-6 -11 -7 -22.5t-1 -25.5v1z" />
    <glyph glyph-name="J" unicode="J" horiz-adv-x="423" 
d="M262 233q0 -97 -15.5 -157t-88.5 -91q-17 -8 -38.5 -13.5t-46.5 -5.5h-3.5h-4.5l-36 1l26 12q4 1 7.5 2.5t6.5 3.5q10 4 18.5 8.5t16.5 9.5q6 4 11.5 8t11.5 9q19 16 29.5 38t15.5 46q3 13 4 26t1 25v484v3.5t1 5.5v5v6q0 4 -0.5 7.5t-1.5 7.5q-1 6 -3 11.5t-6 10.5
q-2 2 -6 5t-9 5q-8 4 -18 7.5t-20 7.5q-11 3 -21.5 6t-18.5 5l-23 8h338l-21 -9q-6 -4 -14 -6t-17 -4q-2 -1 -4 -1.5t-4 -1.5q-17 -4 -32.5 -9.5t-21.5 -12.5q-1 -2 -2.5 -3.5t-2.5 -3.5q-6 -11 -7 -22.5t-1 -25.5v-408v0z" />
    <glyph glyph-name="K" unicode="K" horiz-adv-x="817" 
d="M237 367v-270q0 -17 1.5 -29.5t11.5 -24.5q6 -8 21.5 -13.5t32.5 -9.5q3 -1 5.5 -2t5.5 -1q8 -2 15 -4.5t13 -4.5l22 -8h-339l23 7q8 1 18.5 4t21.5 6q10 4 20 7.5t18 7.5q5 2 9 5t6 5q3 5 5.5 9.5t3.5 9.5t1.5 10t0.5 9v5.5v4.5q-1 3 -1 5.5v4.5v539v7v9v8.5t-1 9.5
q-1 6 -3 12t-6 11q-2 2 -5.5 5t-9.5 5q-7 4 -17 7.5t-21 7.5q-11 3 -21.5 6t-18.5 5l-23 8h339l-22 -9q-6 -4 -14 -6t-17 -4q-2 -1 -4 -1.5t-4 -1.5q-17 -4 -32.5 -9.5t-21.5 -12.5q-1 -2 -2.5 -3.5t-2.5 -3.5q-6 -11 -7 -22.5t-1 -25.5v-244l173 164q8 7 17.5 15.5
t18.5 17.5q3 2 6 5l6 6q25 24 44 45.5t18 32.5v0.5v1.5t-0.5 1.5l-0.5 0.5q-4 7 -12.5 12t-18.5 9q-9 4 -16.5 6.5t-12.5 4.5l-30 14h289l-29 -16q-3 -3 -7 -4t-8 -3q-7 -2 -15.5 -4.5t-16.5 -6.5q-5 -2 -9.5 -4.5t-9.5 -5.5q-26 -17 -60.5 -50t-72.5 -69l-9.5 -9.5
t-9.5 -8.5l-165 -152l200 -216q33 -37 70.5 -75t89.5 -76q9 -7 17.5 -11.5t16.5 -8.5q6 -2 12 -4.5t13 -4.5q7 -3 15.5 -5t18.5 -6l35 -13l-46 -5h-2.5h-3.5h-1.5h-1.5q-11 0 -27 1.5t-33 5.5q-20 3 -38 8t-28 10q-20 13 -42 27.5t-45 33.5q-9 7 -17.5 15t-16.5 17l-255 274
v0z" />
    <glyph glyph-name="L" unicode="L" horiz-adv-x="570" 
d="M237 642v-545q0 -11 2 -21t9 -17q6 -6 16 -8t20 -3h5h4l123 1q7 -1 14.5 -0.5t15.5 2.5q10 1 20 4t17 8q14 9 21 23t13 31q1 4 2.5 7.5t2.5 6.5l13 37v-168h-509l23 7q8 1 18.5 4t21.5 6q10 4 20 7.5t18 7.5q5 2 9 5t6 5q2 3 3.5 6t3.5 6q2 6 2.5 12t0.5 12v8.5v9.5v543
v3.5t1 5.5v5v6q0 4 -0.5 7.5t-1.5 7.5q-1 6 -3 11.5t-6 10.5q-2 2 -6 5t-9 5q-8 4 -18 7.5t-20 7.5q-11 3 -21.5 6t-18.5 5l-23 8h339l-22 -9q-6 -4 -14 -6t-17 -4q-2 -1 -4 -1.5t-4 -1.5q-17 -4 -32.5 -9.5t-21.5 -12.5q-1 -2 -2.5 -3.5t-2.5 -3.5q-6 -11 -7 -22.5
t-1 -25.5v1z" />
    <glyph glyph-name="M" unicode="M" horiz-adv-x="1116" 
d="M255 653q20 -43 53 -102.5t69 -123.5q4 -7 7.5 -13.5t7.5 -12.5q52 -90 97.5 -165.5t58.5 -92.5q32 52 90 159.5t122 227.5q3 5 6 10.5t6 10.5q9 17 18.5 34t18.5 34q8 15 14.5 28t12.5 26q1 3 2.5 6t2.5 6q6 12 11.5 25.5t12.5 28.5l55 1q1 -18 2 -33t2 -28
q0 -4 0.5 -7.5t0.5 -6.5q1 -17 2.5 -35t3.5 -39q3 -37 7 -78.5t8 -83.5q10 -118 19 -217t10 -101q0 -3 0.5 -5.5t0.5 -5.5q2 -15 5.5 -28.5t7.5 -22.5q5 -9 20 -16.5t32 -13.5q8 -3 15.5 -5.5t14.5 -5.5l21 -8h-311l33 13q4 0 7.5 1.5t7.5 2.5q1 0 1.5 0.5t1.5 0.5
q16 5 30.5 11t19.5 15q8 13 10.5 24t2.5 21q0 6 -0.5 12t-1.5 11q-1 4 -1.5 7.5t-0.5 7.5l-41 454q-18 -32 -57 -102.5t-83 -150.5q-30 -56 -59 -109.5t-51 -93.5q-4 -7 -7.5 -14l-7.5 -15q-1 -3 -3 -6.5t-4 -7.5q-15 -31 -27.5 -57.5t-15.5 -32.5q-4 8 -15.5 28t-23.5 43
q-1 1 -1 1.5v0.5q-4 8 -8 15l-8 14q-110 204 -181 321t-85 142l-28 -382q0 -5 -1 -11t-1 -14q-1 -10 -2 -22t-1 -24v-4v-3q0 -15 2.5 -29t8.5 -24q5 -8 17 -14t26 -11q2 0 4 -1t4 -1q4 -2 8.5 -3.5t8.5 -3.5l28 -10h-261l17 8q3 0 5.5 1t5.5 2q3 2 6 3l6 2q17 7 32 14.5
t21 17.5q5 10 8 36.5t5 56.5q0 7 0.5 13.5t0.5 13.5q4 34 7.5 71.5t5.5 75.5q6 80 9.5 153t6.5 113q2 26 2.5 48t0.5 44v19v20v13.5v13.5l58 1q3 -10 7.5 -23.5t10.5 -28.5l4 -12t5 -12q1 -3 2.5 -6t2.5 -6v1z" />
    <glyph glyph-name="N" unicode="N" horiz-adv-x="935" 
d="M769 -2q-78 87 -99.5 110.5t-31.5 34.5l-14 14t-27 28l-42 44t-43 45q-4 5 -9 9.5t-9 9.5q-98 102 -186 190.5t-126 125.5v-432v-9.5v-11.5q-1 -6 -1 -13.5v-15.5v-12v-12q1 -16 3.5 -32t7.5 -26t19.5 -17t30.5 -13q5 -2 9 -3.5t8 -2.5l28 -9h-261l17 8q5 1 9.5 3t9.5 4
q17 7 32.5 15t21.5 19q5 9 6.5 31.5t2.5 48.5v24v22v565h58q11 -14 26 -33.5t40 -45.5q42 -43 92.5 -95t102.5 -106q106 -111 198.5 -207t113.5 -115v426v15.5v17.5v17.5v16.5q0 20 -1 36.5t-5 23.5q-5 10 -19.5 17t-30.5 13l-3 1.5t-2 0.5l-10 4l-10 4l-17 9h261l-28 -12
q-3 -2 -5.5 -3t-5.5 -2q-16 -7 -28.5 -13.5t-22.5 -16.5q-5 -5 -7.5 -23.5t-3.5 -39.5q-1 -12 -1 -23.5v-20.5v-15.5v-5.5v-567h-48v0z" />
    <glyph glyph-name="O" unicode="O" horiz-adv-x="845" 
d="M405 754q2 -1 4.5 -1h5.5h4.5h4.5q157 0 272 -103t119 -277q2 -175 -121 -280.5t-290 -103.5q-157 1 -266.5 112.5t-109.5 271.5q0 156 111 265t266 115v1zM404 698q-136 -5 -215.5 -100.5t-78.5 -222.5q2 -122 86 -223t214 -109h5.5h4.5q2 -1 4.5 -1h5.5q122 0 212 87.5
t90 225.5q0 135 -91.5 239t-225.5 103h-2.5h-2.5h-3h-3v1z" />
    <glyph glyph-name="P" unicode="P" horiz-adv-x="641" 
d="M611 513v-2.5v-0.5v-1.5v-1.5q0 -84 -74.5 -146t-163.5 -68q-5 -1 -9.5 -1h-9.5q-13 0 -25.5 1.5t-25.5 4.5l-36 9v-210q0 -17 1.5 -29.5t11.5 -24.5q6 -8 21 -13t32 -10q3 -1 6 -1.5t6 -1.5q8 -2 15 -4.5t13 -4.5l22 -8h-339l23 7q8 1 18.5 4t21.5 6q10 4 20 7.5t18 7.5
q5 2 9 5t6 5q3 5 5.5 9.5t3.5 9.5t1.5 10t0.5 9v5.5v4.5q-1 3 -1 5.5v4.5v542q0 13 -1.5 24t-9.5 21q-7 8 -22.5 15.5t-32.5 14.5q-10 4 -19.5 7.5t-17.5 6.5l-22 9h182q15 -1 29 -0.5t27 0.5h5h4q11 1 22.5 1h23.5h21t22 -1q11 0 23 -2t24 -5q62 -15 115 -69t56 -152v1z
M365 685q-3 -1 -6 -1h-7h-9.5h-9.5q-17 -1 -32.5 -3t-21.5 -6q-9 -6 -10.5 -16t-1.5 -21v-1.5v-1.5v-279l30 -4q12 -3 23.5 -4t22.5 -1q77 0 131 44t54 123v5.5v4.5q-3 67 -38 102.5t-75 48.5q-13 4 -25.5 6t-24.5 3v1z" />
    <glyph glyph-name="Q" unicode="Q" horiz-adv-x="859" 
d="M511 -8l-24 -6l9 -17q3 -5 12 -12.5t22 -15.5q11 -6 23 -11.5t24 -10.5q26 -11 48.5 -19t44.5 -13q29 -8 59.5 -12.5t67.5 -7.5q4 0 8 -0.5t7 -0.5h3h3q5 0 11 -0.5t13 -1.5l37 -4l-30 -13q-3 -1 -5.5 -2t-5.5 -1q-10 -3 -21 -3.5t-24 -0.5h-4h-4h-4h-4h-13.5h-13.5
q-99 0 -187 23.5t-143 58.5q-7 4 -13 8.5t-12 8.5q-8 6 -15 12l-14 12t-13.5 13t-14.5 15l-20 4q-13 3 -26.5 6.5t-27.5 9.5q-88 36 -162 124.5t-74 228.5q0 158 112 266t269 119q3 0 6.5 0.5t6.5 0.5h6.5h6.5h8.5h8.5q140 -7 256.5 -107.5t115.5 -264.5v-3v-3v-3.5v-3.5
q-6 -154 -90.5 -248t-222.5 -125v0zM408 693q-136 -5 -216 -98.5t-80 -220.5v-2v-2v-2v-2q2 -139 88 -230t213 -102q3 0 6 -0.5t6 -0.5h5h6q115 1 209 88.5t94 225.5q1 137 -91.5 241.5t-228.5 103.5h-2.5h-2.5h-3h-3v1z" />
    <glyph glyph-name="R" unicode="R" horiz-adv-x="764" 
d="M380 344l-20 -4l111 -123q18 -21 33.5 -38.5t30.5 -34.5q4 -5 8.5 -9.5t8.5 -9.5q12 -13 25.5 -26t28.5 -28q9 -8 15.5 -14.5t13.5 -12.5q4 -3 7.5 -6t8.5 -6q9 -6 20.5 -12.5t29.5 -15.5l27 -12l-33 -8q-2 -1 -5 -1h-7q-16 0 -39.5 5.5t-48.5 13.5q-28 11 -67.5 51
t-81.5 86q-1 1 -2 1.5t-1 1.5q-9 9 -17 18l-16 18l-146 156h-27v-237q0 -17 1.5 -29.5t11.5 -24.5q6 -8 21.5 -13.5t32.5 -9.5q3 -1 5.5 -2t5.5 -1q8 -2 15 -4.5t13 -4.5l22 -8h-339l23 7q8 1 18.5 4t21.5 6q11 4 21 7.5t17 7.5q6 2 9.5 5t5.5 5q5 6 7 13.5t3 15.5v11.5
v11.5v3v3v542q0 13 -1.5 24t-9.5 21q-7 8 -22.5 15.5t-32.5 14.5q-10 4 -19.5 7.5t-17.5 6.5l-22 9h182q15 -1 28 -0.5t26 1.5h4h4q11 0 22 0.5t23 0.5q11 0 22.5 -0.5t24.5 -1.5q8 -1 15.5 -2t15.5 -2q60 -13 111 -63t51 -139q0 -68 -33.5 -107t-73.5 -59q-18 -9 -36 -15
t-33 -10v1zM334 695q-3 -1 -5.5 -1t-4.5 1h-5.5h-5.5h-2h-2q-19 0 -36.5 -2.5t-23.5 -6.5q-9 -6 -10.5 -16t-1.5 -21v-1.5v-1.5v-270l47 1q79 0 136 43.5t56 114.5v6v6q-5 61 -43.5 99.5t-84.5 45.5q-3 1 -6.5 1.5t-7.5 0.5v1z" />
    <glyph glyph-name="S" unicode="S" horiz-adv-x="490" 
d="M260 755q36 -1 69.5 -5.5t55.5 -10.5q2 0 4.5 -0.5t4.5 -1.5l20 -5l2 -193l-42 102q-14 35 -43 46.5t-75 13.5h-2h-2h-2h-2q-61 0 -102.5 -41.5t-41.5 -99.5q0 -38 24.5 -65.5t53.5 -46.5q16 -10 30.5 -17.5t25.5 -12.5q8 -4 15.5 -8t15.5 -8q73 -37 129.5 -81t58.5 -127
q2 -100 -65 -153t-171 -54h-10t-10 1q-17 1 -34 3.5t-31 5.5q-12 3 -22 5t-16 3l-43 12l-5 190l34 -88q14 -38 44.5 -54t64.5 -21q6 -1 11.5 -1.5t10.5 -1.5q3 0 5.5 -0.5t4.5 -0.5h4.5h5.5q59 0 104.5 36t44.5 92v2v2v1v2q-3 53 -35.5 81.5t-77.5 51.5q-13 7 -26.5 14
t-27.5 15q-18 10 -34.5 19t-32.5 18q-50 29 -82 65t-36 106v2.5v2.5v2.5v2.5q0 93 70.5 145.5t157.5 53.5v1z" />
    <glyph glyph-name="T" unicode="T" horiz-adv-x="624" 
d="M26 756l42 -16h472l52 19l-2 -224l-16 53q-1 1 -1.5 2.5t-0.5 2.5q-2 6 -3.5 12t-3.5 12q-7 20 -15 37.5t-22 22.5q-5 2 -10 3t-10 1q-5 1 -10 1h-11h-3.5h-3.5l-132 1v-586q0 -17 1.5 -29.5t11.5 -24.5q6 -8 21.5 -13.5t32.5 -9.5q3 -1 5.5 -2t5.5 -1q8 -2 15 -4.5
t13 -4.5l22 -8h-339l23 7q8 1 18.5 4t21.5 6q10 4 20 7.5t18 7.5q5 2 9 5t6 5q3 5 5.5 9.5t3.5 9.5t1.5 10t0.5 9v5.5v4.5q-1 3 -1 5.5v4.5v583h-155q-5 -1 -9.5 -1t-8.5 -1q-2 -1 -4.5 -2t-4.5 -2q-12 -8 -19 -28t-12 -43q-1 -3 -1.5 -6.5t-1.5 -6.5q-1 -5 -2.5 -10
t-2.5 -10l-11 -34l-5 217v0z" />
    <glyph glyph-name="U" unicode="U" horiz-adv-x="882" 
d="M726 603v-313q0 -173 -89 -239.5t-203 -65.5q-109 1 -195.5 69t-86.5 223v362v3.5t1 5.5v5v6q0 4 -0.5 7.5t-1.5 7.5q-1 6 -3 11.5t-6 10.5q-2 2 -6 5t-9 5q-8 4 -18 7.5t-20 7.5q-11 3 -21.5 6t-18.5 5l-23 8h339l-22 -9q-6 -4 -14 -6t-17 -4q-2 -1 -4 -1.5t-4 -1.5
q-17 -4 -32.5 -9.5t-21.5 -12.5q-1 -2 -2.5 -3.5t-2.5 -3.5q-6 -11 -7 -22.5t-1 -25.5v-367q0 -120 54.5 -172t139.5 -65q8 -1 15 -1.5t14 -0.5q83 0 146 61.5t63 164.5v374v0.5v1.5v14.5t-2 15.5q-1 6 -3.5 12t-6.5 12q-2 2 -6 4.5t-10 5.5q-7 3 -16.5 6.5t-19.5 7.5
q-12 3 -22.5 7t-18.5 7l-23 11h312l-20 -11q-8 -5 -18.5 -8t-21.5 -7q-17 -5 -32.5 -10.5t-20.5 -12.5q-4 -5 -6.5 -17.5t-4.5 -26.5q-2 -15 -2.5 -27.5t-0.5 -17.5v1z" />
    <glyph glyph-name="V" unicode="V" horiz-adv-x="855" 
d="M247 629l199 -502l185 503q2 3 3.5 7.5t2.5 9.5q3 10 4.5 19.5t1.5 15.5v3t-1 2q-3 10 -17 18t-30 14q-6 3 -11 5l-10 4l-27 12h279l-22 -8q-2 -2 -4.5 -2.5t-4.5 -1.5q-6 -2 -13 -4.5t-13 -4.5q-18 -5 -33 -12t-20 -16l-6 -10l-6 -10l-6.5 -13t-6.5 -15
q-9 -19 -39 -99.5t-64 -175.5q-1 -4 -2.5 -7.5t-2.5 -6.5q-35 -97 -64 -181.5t-36 -106.5q-3 -10 -5.5 -19t-5.5 -18v-0.5v-0.5q-2 -9 -5 -18.5t-6 -19.5h-51q-4 9 -7.5 16t-6.5 15q-3 7 -6 14.5t-6 16.5q-14 43 -43 118t-62 157q-1 4 -3 8.5t-4 9.5q-40 99 -74.5 183
t-44.5 108q-3 6 -5 11.5t-4 10.5q-1 1 -1 2.5t-1 2.5q-2 5 -4.5 10.5t-5.5 11.5q-5 9 -17.5 15.5t-28.5 12.5q-1 0 -2.5 1t-3.5 1q-7 3 -14.5 6t-14.5 7l-20 12h295l-25 -11q-6 -3 -13 -5.5t-15 -5.5q-14 -5 -25.5 -11.5t-14.5 -16.5v-1.5v-0.5q-1 -1 -1 -1.5v-1.5
q0 -6 2 -13.5t4 -16.5q1 -2 1.5 -4t1.5 -4l3.5 -10.5t2.5 -8.5v1z" />
    <glyph glyph-name="W" unicode="W" horiz-adv-x="1284" 
d="M703 617q3 -7 5.5 -13t4.5 -12q54 -127 102.5 -244t82.5 -185l165 468q2 3 3.5 8t2.5 9q3 11 5 21t2 16v1.5v1.5q-1 1 -1 1.5v0.5q-3 9 -17 16.5t-31 13.5q-5 2 -9.5 4t-9.5 4l-27 12h278l-22 -8q-2 -2 -4.5 -2.5t-4.5 -1.5q-6 -2 -13 -4.5t-13 -4.5q-18 -5 -33 -12
t-20 -16l-6 -10t-5 -10q-4 -6 -7 -13t-6 -15q-9 -19 -37.5 -99t-60.5 -174q-1 -3 -2 -6.5t-3 -6.5q-32 -96 -60 -179.5t-35 -105.5q-3 -11 -5 -20.5t-3 -18.5q0 -5 -0.5 -9.5t-0.5 -9.5q0 -6 -0.5 -11.5t-1.5 -12.5h-49q-3 9 -5.5 16t-5.5 15q-1 2 -1.5 4.5t-1.5 4.5
q-2 5 -3.5 10.5t-3.5 11.5q-12 37 -30 85.5t-38 98.5q-3 7 -5.5 14t-5.5 13q-30 77 -57 142t-36 84l-33 73l-35 -85q-6 -15 -26.5 -74t-43.5 -127q0 -2 -0.5 -3.5t-1.5 -2.5q-22 -65 -41 -122.5t-26 -78.5q-3 -11 -5.5 -20t-4.5 -18q0 -2 -0.5 -4.5t-1.5 -4.5
q-1 -8 -3 -15.5t-4 -16.5h-49q-3 9 -5.5 16t-4.5 15q-2 7 -4.5 14.5l-5.5 16.5q-14 43 -43 118t-62 157q-1 4 -3 8.5t-4 9.5q-40 99 -74.5 183t-44.5 108q-2 5 -3.5 9t-3.5 8q-1 3 -1.5 5t-2.5 5q-2 5 -4.5 10.5t-5.5 11.5q-5 9 -17.5 15.5t-28.5 12.5q-1 0 -2.5 1t-3.5 1
q-7 3 -14.5 6t-14.5 7l-20 12h304l-26 -11q-6 -3 -15 -6t-19 -6q-14 -5 -26.5 -12t-15.5 -17q-1 -2 -1 -4.5v-6.5q0 -5 0.5 -11t1.5 -13l4 -16t4 -14l198 -471q15 41 51.5 141.5t77.5 213.5q10 28 19.5 55.5t19.5 54.5q7 20 13 37t11 33l1 1v1q6 16 12 33.5t13 38.5
q5 -16 9.5 -30.5t8.5 -27.5q1 -5 3 -10t3 -10q5 -16 11.5 -32t14.5 -35v1z" />
    <glyph glyph-name="X" unicode="X" horiz-adv-x="745" 
d="M382 440l103 187q2 2 4 5.5t4 7.5q8 16 13.5 31t4.5 19q-4 10 -18.5 17.5t-30.5 14.5q-4 1 -8 2.5t-8 3.5l-27 12h284l-22 -8q-5 -3 -10 -4.5t-10 -3.5q-10 -3 -20.5 -6.5t-21.5 -8.5q-7 -4 -15 -9t-16 -12q-11 -10 -21.5 -24t-20.5 -31l-138 -242l172 -283
q10 -17 19.5 -31.5t16.5 -27.5q5 -10 22 -18t35 -15l10 -4t9 -4l21 -8h-279l25 10q1 -1 2 -0.5l3 1.5l4 2t4 1q13 6 24.5 13t15.5 20v2v2q0 5 -2.5 13t-6.5 17q-1 3 -3 6.5t-3 7.5q-2 4 -4 7.5t-4 6.5l-124 208l-118 -208q-3 -6 -6 -11.5t-7 -11.5q0 -1 -0.5 -1t-0.5 -1
q-7 -12 -12.5 -23t-4.5 -14q4 -10 16 -17t27 -14q3 -1 7 -2.5t8 -3.5l27 -10h-273l22 8q5 1 10.5 2.5t10.5 3.5l20 6t21 8q7 4 15 9.5t16 12.5q11 11 21 24.5t20 30.5l152 259l-166 271q-5 8 -11 15.5t-12 14.5q-7 6 -13 11.5t-11 10.5t-13.5 10t-18.5 11q-6 2 -12.5 5
t-12.5 6q-5 2 -9.5 4.5t-8.5 4.5l-22 12h302l-26 -11l-8 -4t-9 -4q-13 -6 -24 -15t-14 -21q-1 -1 -1 -3v-4q0 -5 1 -10.5t3 -11.5l4 -10t5 -10q0 -1 0.5 -2t1.5 -2l121 -192v0z" />
    <glyph glyph-name="Y" unicode="Y" horiz-adv-x="762" 
d="M350 350l-65 123q-7 13 -15.5 28.5t-18.5 30.5q-5 9 -10.5 17.5t-10.5 16.5q-13 20 -25.5 38t-22.5 32q-15 21 -33 37t-37 27q-11 7 -22 12.5t-21 9.5l-39 19l36 8q3 0 7.5 0.5t8.5 -0.5q14 0 33 -3.5t39 -10.5q19 -7 37 -16.5t32 -22.5q20 -19 38.5 -42t34.5 -46
q14 -20 25.5 -40t21.5 -37l59 -106l116 202q2 2 3.5 4.5t2.5 5.5q9 16 14.5 30t4.5 20v1.5v1.5q-2 5 -5.5 9t-9.5 8q-9 5 -23 10.5t-36 14.5l-17 8h283l-21 -8q-5 -3 -10 -4.5t-10 -3.5q-10 -3 -20.5 -6.5t-21.5 -8.5q-7 -4 -15 -9t-16 -12q-6 -5 -11 -12.5t-10 -15.5
q-4 -7 -8 -14.5t-9 -15.5l-148 -251l-1 -282q0 -15 1.5 -26.5t8.5 -21.5q1 -2 2 -3t2 -3q6 -8 21.5 -13.5t32.5 -9.5q3 -1 5.5 -2t5.5 -1q7 -2 14.5 -4.5l13.5 -4.5l22 -8h-339l23 7q8 1 18.5 4t21.5 6q10 4 20 7.5t18 7.5q5 2 9 5t6 5q3 5 5.5 9.5t3.5 9.5t1.5 10t0.5 9
v5.5v4.5q-1 3 -1 5.5v4.5v250v0z" />
    <glyph glyph-name="Z" unicode="Z" horiz-adv-x="689" 
d="M660 741q-16 -23 -29.5 -41.5t-26.5 -35.5q-14 -17 -27.5 -35.5t-29.5 -40.5q-56 -75 -101.5 -137.5t-87.5 -123.5q-4 -4 -7 -8.5t-6 -9.5q-42 -59 -85.5 -122.5t-97.5 -138.5l331 1q8 -1 14 -0.5t13 1.5q6 2 12.5 3.5t13.5 4.5q17 7 29 18.5t21 23.5t15 23t12 18l28 36
l-66 -191l-27 14h-532l491 689h-347q-6 -1 -16.5 -2t-21.5 -3q-14 -2 -26 -4.5t-16 -5.5q-7 -4 -13 -18.5t-11 -30.5q-3 -10 -5.5 -20.5t-4.5 -17.5l-14 -46l-3 210l39 -10h582v0z" />
    <glyph glyph-name="bracketleft" unicode="[" horiz-adv-x="271" 
d="M29 -125l4 31q5 31 5 100.5t-1 152.5q0 17 -0.5 34.5t-0.5 35.5v50v49v55v57q0 75 -1.5 143.5t-2.5 108.5q-1 11 -1.5 19.5t-0.5 13.5l-3 25h16q5 -1 13.5 -2t19.5 -1q6 -1 13 -1.5t14 -0.5q5 -1 9.5 -1h9.5h9.5h8.5h4h4q10 0 20.5 0.5t19.5 0.5q10 0 18.5 0.5t12.5 0.5
l18 1v-32h-21q-1 -1 -3 -1h-4h-16t-19 -1q-13 -1 -24 -4.5t-17 -9.5q-8 -9 -9.5 -19t-1.5 -22l2 -690q0 -13 2.5 -23t10.5 -20q6 -7 17.5 -10t23.5 -4h8h8h10h9q3 1 6.5 1h5.5h13l1 -34h-18q-4 0 -12.5 0.5t-19.5 0.5q-8 0 -17 0.5t-19 0.5h-6.5h-6.5h-7.5h-7.5t-8.5 -0.5
t-8.5 -0.5q-6 0 -12 -0.5t-11 -0.5q-13 -1 -23.5 -2t-16.5 -1h-16v0z" />
    <glyph glyph-name="backslash" unicode="\" horiz-adv-x="692" 
d="M600 0l-568 740h64l567 -740h-63v0z" />
    <glyph glyph-name="bracketright" unicode="]" horiz-adv-x="270" 
d="M230 -93l5 -31h-17q-5 0 -15.5 1t-23.5 2q-5 0 -10 0.5t-10 0.5t-10 0.5t-10 0.5h-8.5h-9.5h-2h-2q-11 0 -22.5 -0.5t-20.5 -0.5q-11 0 -19 -0.5t-12 -0.5h-19l2 34h13h5t7 -1h9h10h8h8q12 1 23.5 4t17.5 10q8 10 10 20t2 23l2 691v1v2q0 10 -1 19.5t-9 17.5q-6 7 -17 10
t-23 4q-6 1 -12 1h-11h-12h-8l-22 1v32h19q4 -1 12.5 -1.5t19.5 -0.5q10 0 22 -0.5t24 -0.5h2h2h7.5h7.5h9.5t8.5 1q8 0 14.5 0.5t13.5 1.5q10 0 19 1t13 1l17 1l-3 -24q-2 -24 -4 -107.5t-3 -178.5v-57v-55v-49v-50v-44.5t-1 -43.5v-142t4 -93v0z" />
    <glyph glyph-name="asciicircum" unicode="^" horiz-adv-x="320" 
d="M159 645l-133 -52l133 145l133 -140l-133 47v0z" />
    <glyph glyph-name="underscore" unicode="_" horiz-adv-x="698" 
d="M5 -167v16h719v-16h-719v0z" />
    <glyph glyph-name="grave" unicode="`" horiz-adv-x="222" 
d="M193 519l-163 174l73 47l90 -221v0z" />
    <glyph glyph-name="a" unicode="a" horiz-adv-x="841" 
d="M460 740q2 -8 4 -14.5t4 -12.5q1 -7 3 -13t4 -14q14 -43 41 -118.5t57 -156.5l4 -10l4 -10q36 -99 68.5 -182.5t43.5 -107.5q3 -8 6 -14t6 -13q2 -5 5 -10.5t6 -11.5q5 -10 20.5 -18t33.5 -15q4 -1 8 -3t8 -3q3 -1 5.5 -2.5t5.5 -2.5l21 -8h-296l26 10q6 1 13 4t15 6
q14 5 25.5 12t14.5 17v0.5t1 1.5v1.5v1.5q0 5 -2 13t-5 15q-1 4 -2 7l-2 6q-1 4 -2.5 7.5t-2.5 6.5l-67 188h-247l-70 -187l-1.5 -4.5t-0.5 -3.5q-2 -4 -3.5 -9t-2.5 -10q-3 -11 -5 -21t-2 -15v-1.5v-1.5q4 -9 15.5 -14.5t25.5 -10.5q2 0 4 -0.5t3 -1.5q5 -2 10 -3.5t9 -3.5
l27 -10h-273l22 8q7 2 15.5 5t16.5 6q17 6 32 14t20 17q3 5 5 10t4 9q2 3 3 6t2 7q2 4 3.5 8t3.5 9q13 28 25.5 58.5t25.5 62.5q7 16 14 32.5t14 33.5q52 129 94 241.5t52 143.5q3 10 5.5 18t4.5 16q0 3 1 5.5t1 5.5q2 5 3.5 11t2.5 12l67 1v0zM511 349l-101 262l-102 -262
h203v0z" />
    <glyph glyph-name="b" unicode="b" horiz-adv-x="630" 
d="M26 740h182q16 -1 29.5 -1h25.5q8 1 15 1h14h32.5t37.5 -1q72 -3 127.5 -45t59.5 -119v-2.5v-2.5v-2.5v-2.5q0 -54 -29.5 -93t-78.5 -65l-31 -16l58 -19q59 -20 94.5 -61.5t40.5 -103.5v-6v-6q0 -75 -60 -126.5t-131 -67.5q-13 -2 -25.5 -4t-24.5 -2h-8.5h-9.5
q-11 0 -21 0.5t-19 1.5h-5.5t-5.5 1q-12 0 -25.5 1t-29.5 1h-212l22 8q7 2 16 5l18 6q17 6 32.5 13.5t21.5 15.5q2 2 3 4t2 3q6 10 8.5 19.5t2.5 21.5v546q0 13 -1.5 24t-9.5 21q-6 8 -21.5 14.5t-33.5 12.5q-11 4 -21.5 7.5t-18.5 7.5l-20 11v0zM258 53q9 -5 28.5 -8.5
t41.5 -3.5q13 0 25.5 1t24.5 4q74 18 107 58t32 95v10.5t-1 11.5q-6 67 -64 99t-127 36q-5 1 -10.5 1h-11.5l-66 1v-261q0 -14 4.5 -26t16.5 -19v1zM335 691q-3 -1 -6 -1h-7h-9.5h-9.5q-17 -1 -32.5 -3t-21.5 -5q-9 -6 -10.5 -16t-1.5 -22v-1v-2v-238h47q10 -1 19.5 0
t19.5 3q57 10 104 48t47 97v3.5v2.5q-1 2 -1 3.5v3.5q-7 74 -48 99t-90 27v1z" />
    <glyph glyph-name="c" unicode="c" horiz-adv-x="771" 
d="M438 768q17 0 32 0.5t29 0.5q21 0 40.5 -1.5t39.5 -4.5q19 -3 38.5 -7.5t40.5 -10.5l29 -7l1 -201l-24 62q-2 5 -4.5 10.5t-4.5 11.5q-8 20 -16.5 37t-22.5 26l-4 2t-5 3q-18 7 -52.5 13.5t-72.5 8.5q-7 1 -14 1h-14h-6h-5q-3 -1 -5.5 -1h-5.5q-135 -7 -227 -99.5
t-91 -236.5q1 -138 97.5 -236.5t241.5 -96.5q6 0 12 0.5t12 0.5q57 4 109 23t74 44q8 9 15.5 21.5t14.5 25.5q6 12 12 24.5t11 21.5l25 48l-43 -214l-36 -13q-11 -5 -21 -8.5t-20 -6.5q-42 -11 -88.5 -15t-117.5 -3q-17 0 -34 2t-34 6q-117 24 -215 121t-103 240v3.5v3.5v3
v3q0 169 123.5 277.5t288.5 116.5v1z" />
    <glyph glyph-name="d" unicode="d" horiz-adv-x="841" 
d="M807 414q1 -12 1.5 -23t0.5 -22q0 -123 -56 -198t-123 -115q-46 -28 -88.5 -42t-66.5 -17q-14 -2 -31.5 -3.5t-36.5 -1.5q-10 0 -20 0.5t-20 0.5q-14 1 -28 1.5t-27 1.5q-22 2 -41.5 3t-32.5 1h-212l22 8q7 2 16 5l18 6q17 6 32.5 13.5t21.5 15.5q2 2 3 4t2 3
q6 10 8.5 19.5t2.5 21.5v546q0 13 -1.5 24t-9.5 21q-7 8 -22.5 14.5t-32.5 11.5q-10 4 -19.5 6.5t-17.5 5.5l-22 9h182q13 -1 31 0t40 2q22 0 46.5 1t51.5 1q18 0 36 -0.5t36 -1.5q13 -1 25 -2t24 -3q26 -4 58 -14.5t66 -29.5q64 -36 119.5 -103.5t64.5 -170.5v1zM237 642
v-538q0 -16 4 -28.5t17 -20.5q1 -1 2.5 -1.5t4.5 -0.5q13 -3 42.5 -6t64.5 -3h15.5t14.5 1q32 1 62.5 6t52.5 15q17 8 38.5 17.5t44.5 23.5q44 28 82 83t42 158v3.5v3.5v3v3q0 110 -68.5 201t-185.5 117q-12 3 -43 5t-66 1h-2h-2q-35 0 -65.5 -2.5t-41.5 -8.5
q-8 -4 -10.5 -13t-2.5 -20v1z" />
    <glyph glyph-name="e" unicode="e" horiz-adv-x="593" 
d="M26 740h501l-1 -164l-14 40q-2 4 -3.5 9t-3.5 9q-5 14 -10.5 24.5t-17.5 18.5q-8 5 -18 8t-20 4q-6 0 -11.5 0.5t-11.5 0.5l-123 1q-2 -1 -4 -1h-5q-12 0 -23.5 -1t-17.5 -7q-4 -4 -5 -13.5t-1 -20.5v-0.5v-1.5v-2.5v-2.5v-239h142q6 -1 12 -1h12q12 0 22.5 1.5t19.5 8.5
q2 2 4 3.5t3 3.5q5 4 7.5 8t5.5 10l21 44v-235l-9 23q-1 3 -2.5 7t-2.5 8q-1 2 -1.5 3.5t-1.5 3.5q-5 16 -11.5 30.5t-17.5 20.5q-6 4 -12 6t-12 3t-12.5 1h-14.5h-2.5h-2.5l-147 1v-246q0 -5 0.5 -11t1.5 -11q2 -11 5.5 -19.5t9.5 -11.5q8 -4 14.5 -5t13.5 -1h5.5t5.5 1h5
h6l164 1q3 -1 6 -1h6q2 -1 5 -1h6q5 0 10 1t10 3q8 4 13.5 16t10.5 27q1 3 2 6.5t2 6.5q2 6 4.5 12t4.5 11l13 32l-5 -162h-530l23 7q8 1 18.5 4t21.5 6q10 4 20 7.5t18 7.5q5 2 9 5t6 5q5 6 7 13.5t3 15.5v6v6v9v8v542v9.5v9.5q0 10 -1.5 18.5t-8.5 16.5q-2 2 -6 5t-9 5
q-8 4 -18 7.5t-20 7.5q-11 3 -21.5 6t-18.5 5l-23 8v0z" />
    <glyph glyph-name="f" unicode="f" horiz-adv-x="537" 
d="M26 740h481v-164l-14 40q-2 4 -3.5 9t-3.5 9q-5 14 -10.5 24.5t-17.5 18.5q-10 6 -21 8.5t-23 3.5q-4 1 -8.5 1h-9.5l-103 1q-2 -1 -4 -1h-5q-12 0 -23.5 -1t-17.5 -7q-4 -4 -5.5 -9.5t-1.5 -10.5v-4.5t1 -5.5v-2v-2v-3.5v-3.5v-239h133q6 -1 12 -1h11q12 0 23 1.5
t20 8.5q2 2 4 3.5t3 3.5q3 3 5.5 6t4.5 8q0 1 0.5 2t1.5 2l21 44v-235l-9 23q-2 3 -3.5 7.5t-2.5 9.5q0 1 -0.5 2.5t-0.5 2.5q-6 16 -12 30.5t-18 20.5q-6 3 -11 5t-11 3q-6 2 -13 2h-15h-2.5h-2.5l-138 1v-255q0 -17 1.5 -29.5t11.5 -24.5q6 -8 21.5 -13.5t32.5 -9.5
q3 -1 5.5 -2t5.5 -1q8 -2 15 -4.5t13 -4.5l22 -8h-339l23 7q8 1 18.5 4t21.5 6q10 4 20 7.5t18 7.5q5 2 9 5t6 5q3 5 5.5 9.5t3.5 9.5t1.5 10t0.5 9v5.5v4.5q-1 3 -1 5.5v4.5v542v9.5v9.5q0 10 -1.5 18.5t-8.5 16.5q-2 2 -6 5t-9 5q-8 4 -18 7.5t-20 7.5q-11 3 -21.5 6
t-18.5 5l-23 8v0z" />
    <glyph glyph-name="g" unicode="g" horiz-adv-x="831" 
d="M631 153v74q0 9 -3 16.5t-9 14.5q-1 1 -2 2.5t-2 2.5q-6 6 -15.5 9.5t-20.5 6.5q-4 1 -8.5 2t-9.5 2q-4 2 -7.5 3t-6.5 2l-32 17h289l-34 -19q-2 -2 -4 -3l-4 -2q-4 -2 -8.5 -3.5t-8.5 -2.5q-10 -4 -18 -8.5t-12 -13.5q-3 -7 -4.5 -30t-1.5 -50v-4.5v-4.5q0 -15 1 -28.5
t2 -24.5l6 -54l-58 -23q-5 -3 -11 -5l-12 -4q-37 -14 -92 -24.5t-131 -9.5q-16 0 -33 2t-34 5q-117 24 -215.5 121.5t-103.5 240.5v3.5v3.5v3v3q0 169 124.5 278.5t289.5 116.5q11 1 22 1h21q42 0 77.5 -5t69.5 -14q6 -2 13 -4.5t14 -4.5l42 -13l-15 -210l-20 81
q-6 26 -14.5 49.5t-27.5 35.5q-3 2 -8.5 4.5t-13.5 5.5q-19 6 -48.5 11.5t-61.5 7.5q-10 1 -21 1.5t-21 0.5h-8.5h-9.5q-133 -8 -225 -98t-91 -229v-3v-3v-3.5v-3.5q6 -156 101 -246t239 -88q8 0 16.5 0.5t16.5 1.5q45 6 84 22t50 35q2 3 3 5.5t2 4.5q2 8 2.5 17t0.5 25v1z
" />
    <glyph glyph-name="h" unicode="h" horiz-adv-x="891" 
d="M756 697q-1 -3 -2.5 -4.5t-2.5 -3.5q-6 -10 -6.5 -19.5t-0.5 -21.5v-3.5v-3.5l1 -544v-4.5v-3.5q0 -13 1 -24t10 -22q6 -8 21.5 -13.5t32.5 -9.5q3 -1 5.5 -2t5.5 -1q7 -2 14.5 -4.5l13.5 -4.5l21 -8h-338l23 7q8 1 18.5 4t21.5 6q10 4 20 7.5t18 7.5q5 2 9 5t6 5
q2 3 3.5 6t3.5 6q2 6 2.5 12t0.5 12v8.5v9.5v253h-427v-252q0 -17 1.5 -29.5t11.5 -24.5q6 -8 21.5 -13.5t32.5 -9.5q3 -1 5.5 -2t5.5 -1q8 -2 15 -4.5t13 -4.5l22 -8h-339l23 7q8 1 18.5 4t21.5 6q10 4 20 7.5t18 7.5q5 2 9 5t6 5q3 5 5.5 9.5t3.5 9.5t1.5 10t0.5 9v5.5
v4.5q-1 3 -1 5.5v4.5v539v3.5t1 5.5v5v6q0 4 -0.5 7.5t-1.5 7.5q-1 6 -3 11.5t-6 10.5q-2 2 -6 5t-9 5q-8 4 -18 7.5t-20 7.5q-11 3 -21.5 6t-18.5 5l-23 8h339l-22 -9q-6 -4 -14 -6t-17 -4q-2 -1 -4 -1.5t-4 -1.5q-17 -4 -32.5 -9.5t-21.5 -12.5q-1 -2 -2.5 -3.5t-2.5 -3.5
q-6 -11 -7 -22.5t-1 -25.5v-231h427v232v9.5v9.5q0 10 -1.5 18.5t-8.5 16.5q-2 2 -6 5t-9 5q-8 4 -18 7.5t-20 7.5q-11 3 -21.5 6t-18.5 5l-23 8h338l-21 -9q-6 -4 -14 -6t-17 -4q-2 -1 -4 -1.5t-4 -1.5q-17 -4 -32.5 -9.5t-21.5 -12.5v1z" />
    <glyph glyph-name="i" unicode="i" horiz-adv-x="389" 
d="M237 642v-545q0 -17 1.5 -29.5t11.5 -24.5q6 -8 21.5 -13.5t32.5 -9.5q3 -1 5.5 -2t5.5 -1q8 -2 15 -4.5t13 -4.5l22 -8h-339l23 7q8 1 18.5 4t21.5 6q10 4 20 7.5t18 7.5q5 2 9 5t6 5q3 5 5.5 9.5t3.5 9.5t1.5 10t0.5 9v5.5v4.5q-1 3 -1 5.5v4.5v539v3.5t1 5.5v5v6
q0 4 -0.5 7.5t-1.5 7.5q-1 6 -3 11.5t-6 10.5q-2 2 -6 5t-9 5q-8 4 -18 7.5t-20 7.5q-11 3 -21.5 6t-18.5 5l-23 8h339l-22 -9q-6 -4 -14 -6t-17 -4q-2 -1 -4 -1.5t-4 -1.5q-17 -4 -32.5 -9.5t-21.5 -12.5q-1 -2 -2.5 -3.5t-2.5 -3.5q-6 -11 -7 -22.5t-1 -25.5v1z" />
    <glyph glyph-name="j" unicode="j" horiz-adv-x="423" 
d="M262 233q0 -97 -15.5 -157t-88.5 -91q-17 -8 -38.5 -13.5t-46.5 -5.5h-3.5h-4.5l-36 1l26 12q4 1 7.5 2.5t6.5 3.5q10 4 18.5 8.5t16.5 9.5q6 4 11.5 8t11.5 9q19 16 29.5 38t15.5 46q3 13 4 26t1 25v484v3.5t1 5.5v5v6q0 4 -0.5 7.5t-1.5 7.5q-1 6 -3 11.5t-6 10.5
q-2 2 -6 5t-9 5q-8 4 -18 7.5t-20 7.5q-11 3 -21.5 6t-18.5 5l-23 8h338l-21 -9q-6 -4 -14 -6t-17 -4q-2 -1 -4 -1.5t-4 -1.5q-17 -4 -32.5 -9.5t-21.5 -12.5q-1 -2 -2.5 -3.5t-2.5 -3.5q-6 -11 -7 -22.5t-1 -25.5v-408v0z" />
    <glyph glyph-name="k" unicode="k" horiz-adv-x="817" 
d="M237 367v-270q0 -17 1.5 -29.5t11.5 -24.5q6 -8 21.5 -13.5t32.5 -9.5q3 -1 5.5 -2t5.5 -1q8 -2 15 -4.5t13 -4.5l22 -8h-339l23 7q8 1 18.5 4t21.5 6q10 4 20 7.5t18 7.5q5 2 9 5t6 5q3 5 5.5 9.5t3.5 9.5t1.5 10t0.5 9v5.5v4.5q-1 3 -1 5.5v4.5v539v7v9v8.5t-1 9.5
q-1 6 -3 12t-6 11q-2 2 -5.5 5t-9.5 5q-7 4 -17 7.5t-21 7.5q-11 3 -21.5 6t-18.5 5l-23 8h339l-22 -9q-6 -4 -14 -6t-17 -4q-2 -1 -4 -1.5t-4 -1.5q-17 -4 -32.5 -9.5t-21.5 -12.5q-1 -2 -2.5 -3.5t-2.5 -3.5q-6 -11 -7 -22.5t-1 -25.5v-244l173 164q8 7 17.5 15.5
t18.5 17.5q3 2 6 5l6 6q25 24 44 45.5t18 32.5v0.5v1.5t-0.5 1.5l-0.5 0.5q-4 7 -12.5 12t-18.5 9q-9 4 -16.5 6.5t-12.5 4.5l-30 14h289l-29 -16q-3 -3 -7 -4t-8 -3q-7 -2 -15.5 -4.5t-16.5 -6.5q-5 -2 -9.5 -4.5t-9.5 -5.5q-26 -17 -60.5 -50t-72.5 -69l-9.5 -9.5
t-9.5 -8.5l-165 -152l200 -216q33 -37 70.5 -75t89.5 -76q9 -7 17.5 -11.5t16.5 -8.5q6 -2 12 -4.5t13 -4.5q7 -3 15.5 -5t18.5 -6l35 -13l-46 -5h-2.5h-3.5h-1.5h-1.5q-11 0 -27 1.5t-33 5.5q-20 3 -38 8t-28 10q-20 13 -42 27.5t-45 33.5q-9 7 -17.5 15t-16.5 17l-255 274
v0z" />
    <glyph glyph-name="l" unicode="l" horiz-adv-x="570" 
d="M237 642v-545q0 -11 2 -21t9 -17q6 -6 16 -8t20 -3h5h4l123 1q7 -1 14.5 -0.5t15.5 2.5q10 1 20 4t17 8q14 9 21 23t13 31q1 4 2.5 7.5t2.5 6.5l13 37v-168h-509l23 7q8 1 18.5 4t21.5 6q10 4 20 7.5t18 7.5q5 2 9 5t6 5q2 3 3.5 6t3.5 6q2 6 2.5 12t0.5 12v8.5v9.5v543
v3.5t1 5.5v5v6q0 4 -0.5 7.5t-1.5 7.5q-1 6 -3 11.5t-6 10.5q-2 2 -6 5t-9 5q-8 4 -18 7.5t-20 7.5q-11 3 -21.5 6t-18.5 5l-23 8h339l-22 -9q-6 -4 -14 -6t-17 -4q-2 -1 -4 -1.5t-4 -1.5q-17 -4 -32.5 -9.5t-21.5 -12.5q-1 -2 -2.5 -3.5t-2.5 -3.5q-6 -11 -7 -22.5
t-1 -25.5v1z" />
    <glyph glyph-name="m" unicode="m" horiz-adv-x="1116" 
d="M255 653q20 -43 53 -102.5t69 -123.5q4 -7 7.5 -13.5t7.5 -12.5q52 -90 97.5 -165.5t58.5 -92.5q32 52 90 159.5t122 227.5q3 5 6 10.5t6 10.5q9 17 18.5 34t18.5 34q8 15 14.5 28t12.5 26q1 3 2.5 6t2.5 6q6 12 11.5 25.5t12.5 28.5l55 1q1 -18 2 -33t2 -28
q0 -4 0.5 -7.5t0.5 -6.5q1 -17 2.5 -35t3.5 -39q3 -37 7 -78.5t8 -83.5q10 -118 19 -217t10 -101q0 -3 0.5 -5.5t0.5 -5.5q2 -15 5.5 -28.5t7.5 -22.5q5 -9 20 -16.5t32 -13.5q8 -3 15.5 -5.5t14.5 -5.5l21 -8h-311l33 13q4 0 7.5 1.5t7.5 2.5q1 0 1.5 0.5t1.5 0.5
q16 5 30.5 11t19.5 15q8 13 10.5 24t2.5 21q0 6 -0.5 12t-1.5 11q-1 4 -1.5 7.5t-0.5 7.5l-41 454q-18 -32 -57 -102.5t-83 -150.5q-30 -56 -59 -109.5t-51 -93.5q-4 -7 -7.5 -14l-7.5 -15q-1 -3 -3 -6.5t-4 -7.5q-15 -31 -27.5 -57.5t-15.5 -32.5q-4 8 -15.5 28t-23.5 43
q-1 1 -1 1.5v0.5q-4 8 -8 15l-8 14q-110 204 -181 321t-85 142l-28 -382q0 -5 -1 -11t-1 -14q-1 -10 -2 -22t-1 -24v-4v-3q0 -15 2.5 -29t8.5 -24q5 -8 17 -14t26 -11q2 0 4 -1t4 -1q4 -2 8.5 -3.5t8.5 -3.5l28 -10h-261l17 8q3 0 5.5 1t5.5 2q3 2 6 3l6 2q17 7 32 14.5
t21 17.5q5 10 8 36.5t5 56.5q0 7 0.5 13.5t0.5 13.5q4 34 7.5 71.5t5.5 75.5q6 80 9.5 153t6.5 113q2 26 2.5 48t0.5 44v19v20v13.5v13.5l58 1q3 -10 7.5 -23.5t10.5 -28.5l4 -12t5 -12q1 -3 2.5 -6t2.5 -6v1z" />
    <glyph glyph-name="n" unicode="n" horiz-adv-x="935" 
d="M769 -2q-78 87 -99.5 110.5t-31.5 34.5l-14 14t-27 28l-42 44t-43 45q-4 5 -9 9.5t-9 9.5q-98 102 -186 190.5t-126 125.5v-432v-9.5v-11.5q-1 -6 -1 -13.5v-15.5v-12v-12q1 -16 3.5 -32t7.5 -26t19.5 -17t30.5 -13q5 -2 9 -3.5t8 -2.5l28 -9h-261l17 8q5 1 9.5 3t9.5 4
q17 7 32.5 15t21.5 19q5 9 6.5 31.5t2.5 48.5v24v22v565h58q11 -14 26 -33.5t40 -45.5q42 -43 92.5 -95t102.5 -106q106 -111 198.5 -207t113.5 -115v426v15.5v17.5v17.5v16.5q0 20 -1 36.5t-5 23.5q-5 10 -19.5 17t-30.5 13l-3 1.5t-2 0.5l-10 4l-10 4l-17 9h261l-28 -12
q-3 -2 -5.5 -3t-5.5 -2q-16 -7 -28.5 -13.5t-22.5 -16.5q-5 -5 -7.5 -23.5t-3.5 -39.5q-1 -12 -1 -23.5v-20.5v-15.5v-5.5v-567h-48v0z" />
    <glyph glyph-name="o" unicode="o" horiz-adv-x="845" 
d="M405 754q2 -1 4.5 -1h5.5h4.5h4.5q157 0 272 -103t119 -277q2 -175 -121 -280.5t-290 -103.5q-157 1 -266.5 112.5t-109.5 271.5q0 156 111 265t266 115v1zM404 698q-136 -5 -215.5 -100.5t-78.5 -222.5q2 -122 86 -223t214 -109h5.5h4.5q2 -1 4.5 -1h5.5q122 0 212 87.5
t90 225.5q0 135 -91.5 239t-225.5 103h-2.5h-2.5h-3h-3v1z" />
    <glyph glyph-name="p" unicode="p" horiz-adv-x="641" 
d="M611 513v-2.5v-0.5v-1.5v-1.5q0 -84 -74.5 -146t-163.5 -68q-5 -1 -9.5 -1h-9.5q-13 0 -25.5 1.5t-25.5 4.5l-36 9v-210q0 -17 1.5 -29.5t11.5 -24.5q6 -8 21 -13t32 -10q3 -1 6 -1.5t6 -1.5q8 -2 15 -4.5t13 -4.5l22 -8h-339l23 7q8 1 18.5 4t21.5 6q10 4 20 7.5t18 7.5
q5 2 9 5t6 5q3 5 5.5 9.5t3.5 9.5t1.5 10t0.5 9v5.5v4.5q-1 3 -1 5.5v4.5v542q0 13 -1.5 24t-9.5 21q-7 8 -22.5 15.5t-32.5 14.5q-10 4 -19.5 7.5t-17.5 6.5l-22 9h182q15 -1 29 -0.5t27 0.5h5h4q11 1 22.5 1h23.5h21t22 -1q11 0 23 -2t24 -5q62 -15 115 -69t56 -152v1z
M365 685q-3 -1 -6 -1h-7h-9.5h-9.5q-17 -1 -32.5 -3t-21.5 -6q-9 -6 -10.5 -16t-1.5 -21v-1.5v-1.5v-279l30 -4q12 -3 23.5 -4t22.5 -1q77 0 131 44t54 123v5.5v4.5q-3 67 -38 102.5t-75 48.5q-13 4 -25.5 6t-24.5 3v1z" />
    <glyph glyph-name="q" unicode="q" horiz-adv-x="859" 
d="M511 -8l-24 -6l9 -17q3 -5 12 -12.5t22 -15.5q11 -6 23 -11.5t24 -10.5q26 -11 48.5 -19t44.5 -13q29 -8 59.5 -12.5t67.5 -7.5q4 0 8 -0.5t7 -0.5h3h3q5 0 11 -0.5t13 -1.5l37 -4l-30 -13q-3 -1 -5.5 -2t-5.5 -1q-10 -3 -21 -3.5t-24 -0.5h-4h-4h-4h-4h-13.5h-13.5
q-99 0 -187 23.5t-143 58.5q-7 4 -13 8.5t-12 8.5q-8 6 -15 12l-14 12t-13.5 13t-14.5 15l-20 4q-13 3 -26.5 6.5t-27.5 9.5q-88 36 -162 124.5t-74 228.5q0 158 112 266t269 119q3 0 6.5 0.5t6.5 0.5h6.5h6.5h8.5h8.5q140 -7 256.5 -107.5t115.5 -264.5v-3v-3v-3.5v-3.5
q-6 -154 -90.5 -248t-222.5 -125v0zM408 693q-136 -5 -216 -98.5t-80 -220.5v-2v-2v-2v-2q2 -139 88 -230t213 -102q3 0 6 -0.5t6 -0.5h5h6q115 1 209 88.5t94 225.5q1 137 -91.5 241.5t-228.5 103.5h-2.5h-2.5h-3h-3v1z" />
    <glyph glyph-name="r" unicode="r" horiz-adv-x="764" 
d="M380 344l-20 -4l111 -123q18 -21 33.5 -38.5t30.5 -34.5q4 -5 8.5 -9.5t8.5 -9.5q12 -13 25.5 -26t28.5 -28q9 -8 15.5 -14.5t13.5 -12.5q4 -3 7.5 -6t8.5 -6q9 -6 20.5 -12.5t29.5 -15.5l27 -12l-33 -8q-2 -1 -5 -1h-7q-16 0 -39.5 5.5t-48.5 13.5q-28 11 -67.5 51
t-81.5 86q-1 1 -2 1.5t-1 1.5q-9 9 -17 18l-16 18l-146 156h-27v-237q0 -17 1.5 -29.5t11.5 -24.5q6 -8 21.5 -13.5t32.5 -9.5q3 -1 5.5 -2t5.5 -1q8 -2 15 -4.5t13 -4.5l22 -8h-339l23 7q8 1 18.5 4t21.5 6q11 4 21 7.5t17 7.5q6 2 9.5 5t5.5 5q5 6 7 13.5t3 15.5v11.5
v11.5v3v3v542q0 13 -1.5 24t-9.5 21q-7 8 -22.5 15.5t-32.5 14.5q-10 4 -19.5 7.5t-17.5 6.5l-22 9h182q15 -1 28 -0.5t26 1.5h4h4q11 0 22 0.5t23 0.5q11 0 22.5 -0.5t24.5 -1.5q8 -1 15.5 -2t15.5 -2q60 -13 111 -63t51 -139q0 -68 -33.5 -107t-73.5 -59q-18 -9 -36 -15
t-33 -10v1zM334 695q-3 -1 -5.5 -1t-4.5 1h-5.5h-5.5h-2h-2q-19 0 -36.5 -2.5t-23.5 -6.5q-9 -6 -10.5 -16t-1.5 -21v-1.5v-1.5v-270l47 1q79 0 136 43.5t56 114.5v6v6q-5 61 -43.5 99.5t-84.5 45.5q-3 1 -6.5 1.5t-7.5 0.5v1z" />
    <glyph glyph-name="s" unicode="s" horiz-adv-x="490" 
d="M260 755q36 -1 69.5 -5.5t55.5 -10.5q2 0 4.5 -0.5t4.5 -1.5l20 -5l2 -193l-42 102q-14 35 -43 46.5t-75 13.5h-2h-2h-2h-2q-61 0 -102.5 -41.5t-41.5 -99.5q0 -38 24.5 -65.5t53.5 -46.5q16 -10 30.5 -17.5t25.5 -12.5q8 -4 15.5 -8t15.5 -8q73 -37 129.5 -81t58.5 -127
q2 -100 -65 -153t-171 -54h-10t-10 1q-17 1 -34 3.5t-31 5.5q-12 3 -22 5t-16 3l-43 12l-5 190l34 -88q14 -38 44.5 -54t64.5 -21q6 -1 11.5 -1.5t10.5 -1.5q3 0 5.5 -0.5t4.5 -0.5h4.5h5.5q59 0 104.5 36t44.5 92v2v2v1v2q-3 53 -35.5 81.5t-77.5 51.5q-13 7 -26.5 14
t-27.5 15q-18 10 -34.5 19t-32.5 18q-50 29 -82 65t-36 106v2.5v2.5v2.5v2.5q0 93 70.5 145.5t157.5 53.5v1z" />
    <glyph glyph-name="t" unicode="t" horiz-adv-x="623" 
d="M26 756l42 -16h472l52 19l-2 -224l-16 53q-1 1 -1.5 2.5t-0.5 2.5q-2 6 -3.5 12t-3.5 12q-7 20 -15 37.5t-22 22.5q-5 2 -10 3t-10 1q-5 1 -10 1h-11h-3.5h-3.5l-132 1v-586q0 -17 1.5 -29.5t11.5 -24.5q6 -8 21.5 -13.5t32.5 -9.5q3 -1 5.5 -2t5.5 -1q8 -2 15 -4.5
t13 -4.5l22 -8h-339l23 7q8 1 18.5 4t21.5 6q10 4 20 7.5t18 7.5q5 2 9 5t6 5q3 5 5.5 9.5t3.5 9.5t1.5 10t0.5 9v5.5v4.5q-1 3 -1 5.5v4.5v583h-155q-5 -1 -9.5 -1t-8.5 -1q-2 -1 -4.5 -2t-4.5 -2q-12 -8 -19 -28t-12 -43q-1 -3 -1.5 -6.5t-1.5 -6.5q-1 -5 -2.5 -10
t-2.5 -10l-11 -34l-5 217v0z" />
    <glyph glyph-name="u" unicode="u" horiz-adv-x="882" 
d="M726 603v-313q0 -173 -89 -239.5t-203 -65.5q-109 1 -195.5 69t-86.5 223v362v3.5t1 5.5v5v6q0 4 -0.5 7.5t-1.5 7.5q-1 6 -3 11.5t-6 10.5q-2 2 -6 5t-9 5q-8 4 -18 7.5t-20 7.5q-11 3 -21.5 6t-18.5 5l-23 8h339l-22 -9q-6 -4 -14 -6t-17 -4q-2 -1 -4 -1.5t-4 -1.5
q-17 -4 -32.5 -9.5t-21.5 -12.5q-1 -2 -2.5 -3.5t-2.5 -3.5q-6 -11 -7 -22.5t-1 -25.5v-367q0 -120 54.5 -172t139.5 -65q8 -1 15 -1.5t14 -0.5q83 0 146 61.5t63 164.5v374v0.5v1.5v14.5t-2 15.5q-1 6 -3.5 12t-6.5 12q-2 2 -6 4.5t-10 5.5q-7 3 -16.5 6.5t-19.5 7.5
q-12 3 -22.5 7t-18.5 7l-23 11h312l-20 -11q-8 -5 -18.5 -8t-21.5 -7q-17 -5 -32.5 -10.5t-20.5 -12.5q-4 -5 -6.5 -17.5t-4.5 -26.5q-2 -15 -2.5 -27.5t-0.5 -17.5v1z" />
    <glyph glyph-name="v" unicode="v" horiz-adv-x="855" 
d="M247 629l199 -502l185 503q2 3 3.5 7.5t2.5 9.5q3 10 4.5 19.5t1.5 15.5v3t-1 2q-3 10 -17 18t-30 14q-6 3 -11 5l-10 4l-27 12h279l-22 -8q-2 -2 -4.5 -2.5t-4.5 -1.5q-6 -2 -13 -4.5t-13 -4.5q-18 -5 -33 -12t-20 -16l-6 -10l-6 -10l-6.5 -13t-6.5 -15
q-9 -19 -39 -99.5t-64 -175.5q-1 -4 -2.5 -7.5t-2.5 -6.5q-35 -97 -64 -181.5t-36 -106.5q-3 -10 -5.5 -19t-5.5 -18v-0.5v-0.5q-2 -9 -5 -18.5t-6 -19.5h-51q-4 9 -7.5 16t-6.5 15q-3 7 -6 14.5t-6 16.5q-14 43 -43 118t-62 157q-1 4 -3 8.5t-4 9.5q-40 99 -74.5 183
t-44.5 108q-3 6 -5 11.5t-4 10.5q-1 1 -1 2.5t-1 2.5q-2 5 -4.5 10.5t-5.5 11.5q-5 9 -17.5 15.5t-28.5 12.5q-1 0 -2.5 1t-3.5 1q-7 3 -14.5 6t-14.5 7l-20 12h295l-25 -11q-6 -3 -13 -5.5t-15 -5.5q-14 -5 -25.5 -11.5t-14.5 -16.5v-1.5v-0.5q-1 -1 -1 -1.5v-1.5
q0 -6 2 -13.5t4 -16.5q1 -2 1.5 -4t1.5 -4l3.5 -10.5t2.5 -8.5v1z" />
    <glyph glyph-name="w" unicode="w" horiz-adv-x="1284" 
d="M703 617q3 -7 5.5 -13t4.5 -12q54 -127 102.5 -244t82.5 -185l165 468q2 3 3.5 8t2.5 9q3 11 5 21t2 16v1.5v1.5q-1 1 -1 1.5v0.5q-3 9 -17 16.5t-31 13.5q-5 2 -9.5 4t-9.5 4l-27 12h278l-22 -8q-2 -2 -4.5 -2.5t-4.5 -1.5q-6 -2 -13 -4.5t-13 -4.5q-18 -5 -33 -12
t-20 -16l-6 -10t-5 -10q-4 -6 -7 -13t-6 -15q-9 -19 -37.5 -99t-60.5 -174q-1 -3 -2 -6.5t-3 -6.5q-32 -96 -60 -179.5t-35 -105.5q-3 -11 -5 -20.5t-3 -18.5q0 -5 -0.5 -9.5t-0.5 -9.5q0 -6 -0.5 -11.5t-1.5 -12.5h-49q-3 9 -5.5 16t-5.5 15q-1 2 -1.5 4.5t-1.5 4.5
q-2 5 -3.5 10.5t-3.5 11.5q-12 37 -30 85.5t-38 98.5q-3 7 -5.5 14t-5.5 13q-30 77 -57 142t-36 84l-33 73l-35 -85q-6 -15 -26.5 -74t-43.5 -127q0 -2 -0.5 -3.5t-1.5 -2.5q-22 -65 -41 -122.5t-26 -78.5q-3 -11 -5.5 -20t-4.5 -18q0 -2 -0.5 -4.5t-1.5 -4.5
q-1 -8 -3 -15.5t-4 -16.5h-49q-3 9 -5.5 16t-4.5 15q-2 7 -4.5 14.5l-5.5 16.5q-14 43 -43 118t-62 157q-1 4 -3 8.5t-4 9.5q-40 99 -74.5 183t-44.5 108q-2 5 -3.5 9t-3.5 8q-1 3 -1.5 5t-2.5 5q-2 5 -4.5 10.5t-5.5 11.5q-5 9 -17.5 15.5t-28.5 12.5q-1 0 -2.5 1t-3.5 1
q-7 3 -14.5 6t-14.5 7l-20 12h304l-26 -11q-6 -3 -15 -6t-19 -6q-14 -5 -26.5 -12t-15.5 -17q-1 -2 -1 -4.5v-6.5q0 -5 0.5 -11t1.5 -13l4 -16t4 -14l198 -471q15 41 51.5 141.5t77.5 213.5q10 28 19.5 55.5t19.5 54.5q7 20 13 37t11 33l1 1v1q6 16 12 33.5t13 38.5
q5 -16 9.5 -30.5t8.5 -27.5q1 -5 3 -10t3 -10q5 -16 11.5 -32t14.5 -35v1z" />
    <glyph glyph-name="x" unicode="x" horiz-adv-x="745" 
d="M382 440l103 187q2 2 4 5.5t4 7.5q8 16 13.5 31t4.5 19q-4 10 -18.5 17.5t-30.5 14.5q-4 1 -8 2.5t-8 3.5l-27 12h284l-22 -8q-5 -3 -10 -4.5t-10 -3.5q-10 -3 -20.5 -6.5t-21.5 -8.5q-7 -4 -15 -9t-16 -12q-11 -10 -21.5 -24t-20.5 -31l-138 -242l172 -283
q10 -17 19.5 -31.5t16.5 -27.5q5 -10 22 -18t35 -15l10 -4t9 -4l21 -8h-279l25 10q1 -1 2 -0.5l3 1.5l4 2t4 1q13 6 24.5 13t15.5 20v2v2q0 5 -2.5 13t-6.5 17q-1 3 -3 6.5t-3 7.5q-2 4 -4 7.5t-4 6.5l-124 208l-118 -208q-3 -6 -6 -11.5t-7 -11.5q0 -1 -0.5 -1t-0.5 -1
q-7 -12 -12.5 -23t-4.5 -14q4 -10 16 -17t27 -14q3 -1 7 -2.5t8 -3.5l27 -10h-273l22 8q5 1 10.5 2.5t10.5 3.5l20 6t21 8q7 4 15 9.5t16 12.5q11 11 21 24.5t20 30.5l152 259l-166 271q-5 8 -11 15.5t-12 14.5q-7 6 -13 11.5t-11 10.5t-13.5 10t-18.5 11q-6 2 -12.5 5
t-12.5 6q-5 2 -9.5 4.5t-8.5 4.5l-22 12h302l-26 -11l-8 -4t-9 -4q-13 -6 -24 -15t-14 -21q-1 -1 -1 -3v-4q0 -5 1 -10.5t3 -11.5l4 -10t5 -10q0 -1 0.5 -2t1.5 -2l121 -192v0z" />
    <glyph glyph-name="y" unicode="y" horiz-adv-x="762" 
d="M350 350l-65 123q-7 13 -15.5 28.5t-18.5 30.5q-5 9 -10.5 17.5t-10.5 16.5q-13 20 -25.5 38t-22.5 32q-15 21 -33 37t-37 27q-11 7 -22 12.5t-21 9.5l-39 19l36 8q3 0 7.5 0.5t8.5 -0.5q14 0 33 -3.5t39 -10.5q19 -7 37 -16.5t32 -22.5q20 -19 38.5 -42t34.5 -46
q14 -20 25.5 -40t21.5 -37l59 -106l116 202q2 2 3.5 4.5t2.5 5.5q9 16 14.5 30t4.5 20v1.5v1.5q-2 5 -5.5 9t-9.5 8q-9 5 -23 10.5t-36 14.5l-17 8h283l-21 -8q-5 -3 -10 -4.5t-10 -3.5q-10 -3 -20.5 -6.5t-21.5 -8.5q-7 -4 -15 -9t-16 -12q-6 -5 -11 -12.5t-10 -15.5
q-4 -7 -8 -14.5t-9 -15.5l-148 -251l-1 -282q0 -15 1.5 -26.5t8.5 -21.5q1 -2 2 -3t2 -3q6 -8 21.5 -13.5t32.5 -9.5q3 -1 5.5 -2t5.5 -1q7 -2 14.5 -4.5l13.5 -4.5l22 -8h-339l23 7q8 1 18.5 4t21.5 6q10 4 20 7.5t18 7.5q5 2 9 5t6 5q3 5 5.5 9.5t3.5 9.5t1.5 10t0.5 9
v5.5v4.5q-1 3 -1 5.5v4.5v250v0z" />
    <glyph glyph-name="z" unicode="z" horiz-adv-x="689" 
d="M660 741q-16 -23 -29.5 -41.5t-26.5 -35.5q-14 -17 -27.5 -35.5t-29.5 -40.5q-56 -75 -101.5 -137.5t-87.5 -123.5q-4 -4 -7 -8.5t-6 -9.5q-42 -59 -85.5 -122.5t-97.5 -138.5l331 1q8 -1 14 -0.5t13 1.5q6 2 12.5 3.5t13.5 4.5q17 7 29 18.5t21 23.5t15 23t12 18l28 36
l-66 -191l-27 14h-532l491 689h-347q-6 -1 -16.5 -2t-21.5 -3q-14 -2 -26 -4.5t-16 -5.5q-7 -4 -13 -18.5t-11 -30.5q-3 -10 -5.5 -20.5t-4.5 -17.5l-14 -46l-3 210l39 -10h582v0z" />
    <glyph glyph-name="braceleft" unicode="{" horiz-adv-x="274" 
d="M112 325l-14 -5l16 -8q1 -1 2.5 -1.5t2.5 -1.5q11 -5 19.5 -10.5t15.5 -16.5q3 -4 5.5 -7.5t4.5 -7.5q3 -6 5 -13t2 -16v-248q0 -23 4 -41t19 -34q2 -3 4.5 -5.5l4.5 -4.5q6 -6 13 -10.5t17 -7.5l19 -5h-31q-10 0 -19.5 1t-20.5 3q-16 4 -31.5 12t-29.5 21
q-12 12 -17.5 34t-6.5 46q-1 13 -1 27.5v26.5v8v8v167v14q0 9 -2.5 17t-7.5 16q-2 2 -4 4.5t-4 5.5q-5 6 -11 9l-12 6q-3 1 -6.5 2.5t-7.5 3.5l-13 7l12 5q4 1 7.5 2.5t6.5 3.5q8 3 14.5 7.5t12.5 10.5q1 1 2 2.5t2 2.5q2 3 4.5 6.5t3.5 6.5q4 7 6 15t3 18l2 12l5 231
q0 6 1 13.5t3 14.5q3 12 8.5 24t15.5 23q19 20 40 26.5t48 6.5l37 1l-19 -7q-12 -6 -20 -12t-15 -16q-1 -1 -2 -2.5t-2 -2.5q-4 -6 -7.5 -12.5t-5.5 -13.5q-3 -12 -4.5 -22.5t-1.5 -17.5l-5 -208v-16q0 -5 -2 -16.5t-6 -24.5q-3 -8 -6.5 -15t-8.5 -13q-1 -2 -2.5 -3.5
l-2.5 -2.5q-7 -8 -15.5 -13t-18.5 -9l-3 -1.5t-2 -0.5v1z" />
    <glyph glyph-name="bar" unicode="|" horiz-adv-x="138" 
d="M102 752l1 -867h-77v867h76v0z" />
    <glyph glyph-name="braceright" unicode="}" horiz-adv-x="293" 
d="M190 319l-14 5q-12 3 -20.5 8t-16.5 13q-2 2 -3.5 4t-3.5 4q-5 6 -8.5 13t-6.5 15q-4 13 -6 24.5t-2 15.5v17l-5 209q0 6 -1.5 16.5t-4.5 22.5q-2 7 -5 14t-8 13q-1 1 -2 2.5t-2 2.5q-7 9 -15 15t-20 11l-20 8h39q27 -1 47.5 -7t39.5 -26q11 -12 17 -26t9 -28
q1 -6 1.5 -11.5t0.5 -11.5l5 -229l1 -12q2 -11 4 -19t6 -15q1 -3 3.5 -6.5t4.5 -6.5q8 -9 16 -14.5t18 -9.5l5 -2.5t6 -2.5l12 -5l-13 -5q-3 -3 -6.5 -4t-6.5 -3q-3 -1 -7 -3t-7 -5q-2 -1 -4.5 -3t-5.5 -5q-10 -10 -14 -20t-4 -24v-12v-167v-9v-8v-26t-1 -28
q-1 -23 -6.5 -45t-17.5 -34q-14 -13 -29.5 -21t-31.5 -12q-11 -3 -20.5 -4t-19.5 -1h-30l18 6q11 3 18.5 7.5t14.5 11.5q2 2 3.5 4t3.5 4t3 4t3 4q10 15 13 31t3 36v249q0 9 2 16t6 14q2 3 4.5 6.5t4.5 7.5q8 11 17.5 17.5t22.5 11.5l16 8v0z" />
    <glyph glyph-name="asciitilde" unicode="~" horiz-adv-x="396" 
d="M349 691q-11 -20 -27 -34t-34 -22q-8 -3 -15.5 -4.5t-14.5 -1.5q-19 0 -33.5 8.5t-27.5 18.5t-27.5 18.5t-33.5 8.5h-0.5h-1.5q-19 -1 -30.5 -5t-21.5 -10q-6 -3 -13 -7.5t-15 -8.5l-32 -16l18 33q12 21 34 39t46 24q4 2 8.5 2.5t8.5 0.5h0.5h1.5h1.5h0.5q18 0 30.5 -8.5
t24.5 -18.5t24.5 -18.5t30.5 -8.5h1.5h1.5q22 2 35 5.5t25 9.5q7 3 14.5 7t17.5 9l24 12l-21 -33v0z" />
    <glyph glyph-name="glyph98" unicode="&#xa1;" horiz-adv-x="225" 
d="M62 -235l14 526l51 -25l29 -525l-94 24v0zM82 337l-47 151l151 -43l-104 -108v0z" />
    <glyph glyph-name="cent" unicode="&#xa2;" horiz-adv-x="468" 
d="M286 655h12.5h10.5t10 -0.5t9 -0.5q7 -1 13.5 -2t13.5 -2q8 -1 15 -2.5t13 -3.5q6 -1 12 -3t13 -4l-3 -120l-21 40q-1 1 -2 2.5t-2 2.5q-7 12 -14.5 17.5t-17.5 10.5q-3 1 -5.5 2t-5.5 2q-6 3 -12 5t-11 3q-4 0 -8 0.5t-9 0.5h-2h-2h-2h-2v-361q16 -1 28.5 1.5t24.5 7.5
q8 3 15.5 7t15.5 9q2 1 3.5 2t2.5 2q9 7 15.5 14t12.5 15q3 4 5.5 8t5.5 8l19 30l-21 -126q-9 -5 -17 -8t-16 -5q-10 -3 -20 -5.5t-22 -4.5q-7 -1 -12.5 -1.5t-11.5 -1.5q-6 0 -11.5 -0.5t-12.5 -0.5v-75h-53v72l-34 10q-78 20 -127 80t-49 142q1 83 53 142.5t123 78.5l28 9
v71h52v-68v0zM237 597l-24 -7q-43 -12 -73.5 -58t-29.5 -104v-3v-3v-3.5v-3.5q4 -56 33 -101.5t63 -58.5q2 -1 4.5 -1.5t4.5 -1.5l22 -5v350v0z" />
    <glyph glyph-name="sterling" unicode="&#xa3;" horiz-adv-x="565" 
d="M286 734q2 -1 4 -1h4h4h4q40 0 76 -9.5t61 -20.5q4 -2 7.5 -3.5t6.5 -3.5l37 -19l-11 -161l-19 71q-13 49 -55.5 70t-92.5 21h-8t-8 -1q-4 0 -8 -0.5t-8 -0.5q-44 -6 -82 -34.5t-57 -61.5q-6 -12 -10 -23.5t-4 -22.5q0 -29 4 -53t13 -45l49 -111h139v-52h-120
q2 -15 3.5 -28t1.5 -26q0 -11 -1 -23t-4 -26q0 -2 -0.5 -4.5t-1.5 -4.5q-3 -15 -8 -29t-10 -26q-4 -11 -8.5 -20.5t-7.5 -15.5l258 1q5 -1 8.5 -0.5t7.5 1.5q4 0 8 1.5t8 2.5q5 1 11.5 9.5t12.5 21.5q4 5 7 11.5t6 12.5q6 13 11 25.5t9 20.5l12 28l-14 -205h-503l30 29
q9 7 17.5 15t15.5 16q30 30 49.5 62t20.5 74q0 16 -2 27.5t-6 22.5q-2 6 -4.5 12.5t-6.5 13.5l-107 1v52h81l-21 41q-1 1 -2 3t-2 5q-1 2 -2.5 4t-2.5 5q-14 28 -25.5 57.5t-11.5 65.5v10.5t1 10.5q10 92 81.5 147t164.5 59v1z" />
    <glyph glyph-name="Idieresis" unicode="&#xa4;" horiz-adv-x="336" 
d="M40 176l35 36q-10 13 -14.5 29.5t-4.5 33.5q0 19 5.5 36.5t15.5 32.5l-6 6.5t-13 13.5q-8 7 -14 13l-6 6l25 27q0 -1 6 -7l14 -14l13 -13l6 -6q13 8 29 13t35 5h1.5h1.5h0.5h1.5q19 -1 34.5 -6.5t27.5 -13.5l6.5 6.5t13.5 14.5q8 7 14 13.5l6 6.5l27 -26q0 -1 -6.5 -7.5
t-13.5 -14.5q-8 -7 -14.5 -14l-6.5 -7q9 -13 13.5 -29.5t4.5 -33.5q0 -16 -4.5 -32t-13.5 -30l6.5 -7t15.5 -15l14.5 -14.5l6.5 -6.5l-26 -25l-42 42q-13 -11 -30 -17t-37 -6h-1.5h-0.5h-1.5h-1.5q-18 1 -33 6.5t-27 12.5l-5.5 -5.5l-12.5 -12.5q-7 -6 -12.5 -12l-5.5 -6
l-26 27v0zM162 200q0 -1 0.5 -1h1.5h1.5h0.5q37 0 57 24t20 52v1.5v1.5q0 29 -19 53t-57 25h-1.5h-1.5q-39 0 -58.5 -25t-19.5 -55q0 -28 19 -52t57 -25v1z" />
    <glyph glyph-name="ae" unicode="&#xa5;" horiz-adv-x="775" 
d="M622 371l-192 1v-43h190v-53h-190l1 -179q0 -17 1.5 -29.5t11.5 -24.5q6 -8 21.5 -13.5t32.5 -9.5q3 -1 5.5 -2t5.5 -1q8 -2 15 -4.5t13 -4.5l21 -8h-338l23 7q8 1 18.5 4t21.5 6q10 4 20 7.5t18 7.5q5 2 9 5t6 5q3 5 5.5 9.5t3.5 9.5t1.5 10t0.5 9v5.5v4.5q-1 3 -1 5.5
v4.5l-1 176h-186v53h186l1 21l-10 22l-175 -1v54l146 -1l-25 49q-7 13 -16 28.5t-19 30.5q-4 7 -9 14.5t-9 14.5l-27 40.5t-24 34.5q-14 20 -31.5 35.5t-34.5 26.5q-12 7 -23.5 13t-22.5 11l-40 19l35 8q3 0 7.5 0.5t8.5 -0.5q14 0 33 -3.5t40 -10.5q19 -7 37 -16.5
t32 -22.5q20 -19 38.5 -42t34.5 -46q14 -20 26 -40t21 -37l58 -106l117 202q2 2 4 5.5t4 7.5q8 16 13.5 31t4.5 19q-4 9 -18.5 16.5t-30.5 14.5q-4 2 -8.5 3.5t-8.5 3.5l-27 12h284l-22 -8q-5 -3 -10 -4.5t-10 -3.5q-11 -3 -22.5 -7t-22.5 -10q-7 -4 -13.5 -8.5t-13.5 -10.5
t-12 -13.5t-10 -16.5q-4 -6 -7.5 -13.5t-8.5 -14.5l-121 -206l164 1v-54v0z" />
    <glyph glyph-name="brokenbar" unicode="&#xa6;" 
 />
    <glyph glyph-name="section" unicode="&#xa7;" horiz-adv-x="513" 
d="M97 421l11 10l-10 7q-18 12 -30 35.5t-14 49.5v2.5v2.5v2v2v2v2v7.5t1 6.5q5 73 60 134.5t147 65.5h4.5h4.5q18 0 34.5 -1.5t27.5 -3.5q5 -1 8.5 -1.5t5.5 -1.5q3 -1 11.5 -3.5t18.5 -5.5q11 -4 19.5 -6.5t11.5 -3.5l11 -3l-1 -6q0 -3 -1.5 -15.5t-2.5 -28.5v-3.5v-3.5
q-1 -6 -1.5 -12t-0.5 -11q0 -4 -0.5 -9t-1.5 -10v0v-1q-1 -14 -2 -26t-1 -15l1 -10l-31 1l-7 83l-4 4q-9 10 -23.5 18.5t-30.5 12.5q-18 6 -36 9.5t-35 3.5q-47 0 -84 -25t-47 -80q-1 -3 -1 -6v-6q0 -32 23.5 -54t52.5 -36q22 -11 41.5 -17t28.5 -9l16 -3l15 -6
q16 -7 40 -13.5t49 -16.5q2 -1 3.5 -1.5t3.5 -1.5q49 -21 69 -53t21 -66v-3.5v-3.5v-6v-6q-1 -26 -11.5 -47t-22.5 -36q-6 -7 -11.5 -13t-10.5 -10l-21 -18l5 -3q27 -18 43 -43.5t16 -62.5v-2v-3q0 -5 -1 -10.5t-2 -11.5q-13 -66 -77.5 -123.5t-139.5 -70.5l-12 -2t-12 -1
h-2.5h-2.5h-2.5h-2.5q-34 0 -66.5 9t-55.5 20q-8 3 -14.5 6.5t-11.5 6.5l-8 4l13 154h30v-53q0 -25 20 -45.5t44 -32.5q10 -5 20.5 -8t18.5 -4q11 -2 21.5 -2h20.5q68 0 112 29t44 99v1.5v1.5q0 26 -17.5 44.5t-52.5 34.5q-24 12 -58 24t-77 27l-38 14q-36 12 -59 26t-35 28
q-18 19 -22 37.5t-6 33.5v1.5v0.5v4.5v4.5q0 30 14.5 55t31.5 44q6 7 12 13l11 11v1zM380 189q4 5 7 10t6 11q4 7 6.5 15.5t3.5 17.5q1 5 1.5 9.5t0.5 9.5q0 8 -1.5 16.5t-5.5 16.5q-7 18 -25 34.5t-52 27.5l-184 60l-16 -17q-15 -17 -20 -35t-5 -40v-3.5v-4.5
q2 -38 57.5 -64t122.5 -47q16 -5 31.5 -10t30.5 -10q3 -1 5.5 -1.5t4.5 -1.5l23 -7l9 13v0z" />
    <glyph glyph-name="dieresis" unicode="&#xa8;" horiz-adv-x="378" 
d="M127 740l45 -147l-144 46l99 101v0zM301 740l45 -147l-143 46l98 101v0z" />
    <glyph glyph-name="copyright" unicode="&#xa9;" horiz-adv-x="793" 
d="M390 732q183 -1 274.5 -115.5t91.5 -252.5v-1.5v-1.5q-1 -136 -92.5 -248.5t-273.5 -112.5q-183 0 -274 114t-91 252v1.5v1.5q1 136 92.5 249t272.5 113v1zM390 39q163 -1 244.5 100.5t82.5 222.5v1.5v1.5q0 122 -81.5 224t-245.5 102q-163 0 -244.5 -101.5t-81.5 -222.5
v-1.5v-1.5q0 -122 81.5 -224t244.5 -102v1zM513 496v6v1t-1 2q-3 8 -16 16.5t-28 14.5q-6 2 -12.5 4t-12.5 3q-1 0 -5 1t-9 1q-7 1 -16.5 2t-19.5 1q-8 0 -15.5 -0.5t-15.5 -2.5q-68 -15 -96.5 -63.5t-28.5 -107.5v-8t1 -8q0 -4 0.5 -8t0.5 -8q8 -67 56 -111.5t111 -47.5
h7.5h7.5q39 0 63.5 9t43.5 19l13 8l4 -6l-10 -25l-13 -7q-5 -3 -11.5 -5.5t-14.5 -5.5q-14 -5 -31 -9t-35 -7q-6 0 -12 -0.5t-12 -0.5h-1.5h-1.5q-94 3 -155 51t-70 131q-1 8 -1.5 16t-0.5 15q1 84 45.5 131.5t98.5 64.5q6 2 12.5 3.5t13.5 2.5q6 1 12.5 2t12.5 1
q6 1 12.5 1h12.5q16 0 29.5 -1t22.5 -2q4 -1 6.5 -1.5t4.5 -0.5l10 -2t11 -3q3 0 6 -1l6 -2q15 -3 26.5 -6.5t16.5 -4.5l7 -1l-12 -86h-17v35v0z" />
    <glyph glyph-name="ellipsis" unicode="&#xaa;" horiz-adv-x="466" 
d="M27 336v18h400v-18h-400v0zM248 747q1 -5 1.5 -8t1.5 -6q1 -4 2 -7t2 -7q7 -22 20.5 -60t29.5 -79q1 -2 1.5 -4.5t1.5 -4.5q19 -50 35.5 -92.5t21.5 -54.5q1 -2 2 -4.5t2 -4.5q0 -1 0.5 -2t1.5 -1q1 -3 2.5 -6l3.5 -7q2 -5 9.5 -9t17.5 -7q0 -1 1 -1h2q2 -2 5 -3l6 -2
l10 -3h-149l13 5q3 0 7 1.5t8 2.5q6 3 12 6.5t7 8.5v1.5v1.5q0 3 -0.5 6.5t-1.5 7.5q-1 2 -1.5 4.5t-1.5 4.5q-1 1 -1.5 2.5t-0.5 2.5l-34 95h-125l-35 -95q0 -2 -0.5 -3t-1.5 -2q0 -2 -0.5 -4t-1.5 -5q-2 -6 -3 -12t0 -8q2 -5 9 -8t15 -6h0.5h0.5q2 -1 4 -1.5t4 -1.5l14 -4
h-138l11 4q4 0 8 1.5t9 3.5q8 3 15.5 7t10.5 8q1 3 2 5.5t2 4.5q1 1 1 1.5v0.5q1 3 2.5 6t2.5 7q6 14 12.5 29t12.5 31q4 8 7.5 16.5t6.5 17.5q27 65 48.5 122t26.5 73q2 5 3 9l2 8q0 4 1.5 8t2.5 9l34 1v0zM273 550l-51 132l-51 -132h102v0z" />
    <glyph glyph-name="ydieresis" unicode="&#xab;" horiz-adv-x="536" 
d="M26 341l213 158v-103l-151 -109l148 -105v-110l-210 164v105v0zM294 341l213 158v-103l-152 -109l149 -105v-110l-210 164v105v0z" />
    <glyph glyph-name="emdash" unicode="&#xac;" 
 />
    <glyph glyph-name="uni00AD" unicode="&#xad;" 
d="M0 344h279v-126h-279v126v0z" />
    <glyph glyph-name="registered" unicode="&#xae;" horiz-adv-x="803" 
d="M400 732q183 -1 274.5 -115.5t91.5 -252.5v-1.5v-1.5q-1 -136 -92.5 -248.5t-273.5 -112.5q-183 0 -274 114t-91 252v1.5v1.5q1 136 92.5 249t272.5 113v1zM400 39q163 -1 244.5 100.5t82.5 222.5v1.5v1.5q0 122 -81.5 224t-245.5 102q-163 0 -244.5 -101.5t-81.5 -222.5
v-1.5v-1.5q0 -122 81.5 -224t244.5 -102v1zM359 371l3 10l20 -1q2 -1 3.5 -1h2.5h2.5h3.5q36 2 66 25t30 58v1.5v1.5v0.5v1.5q-3 29 -17.5 49.5t-48.5 24.5q-6 1 -12.5 1.5t-13.5 0.5q-9 0 -18 -1t-16 -2q-5 0 -9 -1t-6 -1l-9 -2v-321q0 -8 2 -13.5t6 -10.5q3 -3 7 -5t8 -2
q4 -1 7 -1t6 -1h2h2h14v-17h-10q-3 -1 -10.5 -0.5t-17.5 1.5q-5 0 -11.5 0.5t-12.5 1.5h-9.5h-9.5h-8h-8q-7 -1 -13.5 -1.5t-12.5 -0.5q-10 -1 -18 -1.5t-12 -0.5l-10 1v18l17 1q3 -1 6.5 -1t7.5 1t7.5 2.5t6.5 4.5q5 5 7 10.5t2 12.5v302q0 7 -1 10.5t-2 7.5l-2.5 2.5
t-2.5 3.5q-2 3 -7.5 4.5t-11.5 2.5q-7 1 -12.5 1h-7.5l-7 1v17h10q2 -1 9.5 -1.5t18.5 -0.5q6 0 12.5 -0.5t12.5 -0.5h10h10h16.5h17.5q8 0 16.5 0.5t16.5 0.5q15 0 26 0.5t13 0.5l10 2q1 -1 2 -1h2h2h2q6 0 13 -0.5t14 -1.5q24 -4 45.5 -17t30.5 -38q3 -9 4.5 -17.5
t1.5 -16.5q0 -25 -14 -47.5t-39 -39.5q-4 -3 -9 -5.5t-10 -4.5q-11 -5 -21 -7.5l-14 -3.5h-5l129 -170q0 -1 2.5 -3t4.5 -4q1 -1 2 -1.5t2 -1.5q1 0 2 -0.5t2 -1.5q1 0 1.5 -0.5l1.5 -1.5q1 0 2 -0.5t2 -0.5q3 -1 5 -1.5t3 -0.5l4 1v-16h-5q-5 -1 -9 -0.5t-8 0.5t-8 0.5
t-9 0.5h-7.5t-6.5 -1q-4 0 -8.5 -0.5t-9.5 -0.5h-7l-161 207v0z" />
    <glyph glyph-name="glyph263" unicode="&#xaf;" 
 />
    <glyph glyph-name="glyph264" unicode="&#xb0;" 
 />
    <glyph glyph-name="mu" unicode="&#xb1;" horiz-adv-x="476" 
d="M28 -1v38h408v-38h-408v0zM214 351v179h48v-180h178v-50h-180v-179h-46v179h-178v51h178v0z" />
    <glyph glyph-name="uni00B2" unicode="&#xb2;" 
 />
    <glyph glyph-name="uni00B3" unicode="&#xb3;" 
 />
    <glyph glyph-name="acute" unicode="&#xb4;" horiz-adv-x="229" 
d="M196 693l-163 -174l91 221l72 -47v0z" />
    <glyph glyph-name="oslash" unicode="&#xb5;" horiz-adv-x="612" 
d="M26 533h90v-367q0 -44 27 -80t70 -36q10 0 21 2.5t23 7.5q33 13 61 41t28 62v370h88v-415q0 -6 0.5 -11t1.5 -10q4 -26 18.5 -47t37.5 -21h3.5t3.5 1q19 4 30.5 16t16.5 31l8 29h19l-7 -33q-6 -30 -28.5 -51.5t-47.5 -32.5q-12 -5 -23 -7.5t-21 -2.5h-2h-2q-1 1 -2 1h-2
t-2.5 0.5t-3.5 0.5q-32 7 -59.5 36t-28.5 68l-27 -26q-13 -14 -27.5 -25.5t-28.5 -21.5q-21 -12 -41.5 -20t-37.5 -8v0v0h-1v0q-12 0 -28.5 4t-33.5 11t-32.5 18.5t-27.5 27.5v-37q0 -23 4.5 -40.5t10.5 -34.5q1 -2 2 -4.5t2 -5.5q7 -18 12.5 -39t6.5 -50v-1.5v-1.5
q-1 -25 -15 -45.5t-38 -20.5v0v0h-1v0q-24 0 -37 19.5t-13 42.5v2v1v2v2q0 26 4.5 43.5t10.5 33.5q1 0 1 0.5v1.5q5 12 9 25.5t6 30.5q0 5 0.5 9t0.5 8q1 3 1 6v7v534v0z" />
    <glyph glyph-name="paragraph" unicode="&#xb6;" horiz-adv-x="633" 
d="M528 712q-12 -5 -20 -17.5t-8 -40.5v-8v-678v-14q0 -10 4 -17t11 -11q5 -3 11 -5l12 -4q11 -2 21 -3t17 -1l20 -1v-28h-18q-3 0 -22 0.5t-47 0.5q-13 1 -27.5 1h-28.5q-16 1 -31.5 1h-29.5h-30h-32q-15 -1 -30.5 -1t-29.5 -1q-29 0 -49.5 -0.5t-25.5 -0.5h-16v29l24 2
h3.5h4.5q5 0 11.5 0.5t12.5 1.5q8 1 16 4.5t13 9.5q8 9 11.5 18.5t3.5 22.5l-1 420h-11q-10 0 -51 9.5t-89 34.5q-40 22 -68.5 67t-28.5 96q0 14 2.5 27.5t7.5 26.5q23 60 77.5 81.5t118.5 20.5h16q4 -1 22.5 -2t45.5 -2q13 -1 27 -1.5t29 -1.5q14 0 28.5 -0.5t27.5 -0.5h23
h25q18 1 35 1.5t32 0.5q16 1 27.5 1.5t14.5 0.5l13 1v-31h-12q-4 -1 -13.5 -2t-21.5 -2q-7 -1 -14.5 -2.5t-12.5 -3.5v1zM424 713l-67 -1l1 -787h65l1 788v0zM279 432v281l-17 1q-1 -1 -1.5 -1h-2.5q-8 0 -22.5 -3.5t-29.5 -12.5q-21 -13 -39 -39.5t-21 -72.5v-4v-4
q0 -52 34.5 -93t89.5 -51l9 -1v0z" />
    <glyph glyph-name="glyph265" unicode="&#xb7;" 
 />
    <glyph glyph-name="glyph121" unicode="&#xb8;" horiz-adv-x="254" 
d="M57 -3l24 -1l-3 -70l12 4q5 1 9.5 2.5t8.5 1.5q3 1 6.5 1.5t7.5 0.5q38 0 65 -26t28 -61q0 -47 -28.5 -76t-72.5 -29q-17 0 -31.5 3t-25.5 11l-16 11l15 20l14 -11q9 -7 20 -10t22 -3q29 0 49.5 23t20.5 52v0v0v1v0q-1 28 -20.5 47.5t-47.5 21.5h-1.5h-1.5q-4 0 -8 -0.5
t-8 -1.5q-4 0 -8 -1l-8 -2q-3 -1 -6 -1.5t-5 -1.5l-16 -6l5 101v0z" />
    <glyph glyph-name="uni00B9" unicode="&#xb9;" 
 />
    <glyph glyph-name="Agrave" unicode="&#xba;" horiz-adv-x="454" 
d="M27 332v19h397v-19h-397v0zM215 752q2 -1 3 -1h3h2.5h2.5q78 0 135.5 -51.5t58.5 -138.5q2 -87 -60 -140t-145 -52q-79 1 -133.5 56.5t-54.5 135.5q0 78 55.5 132.5t132.5 57.5v1zM215 724q-68 -3 -108 -51t-39 -111q1 -61 43 -111.5t107 -54.5h3h3h2.5h2.5
q60 0 104.5 44t45.5 112q0 68 -45.5 119.5t-112.5 51.5h-2.5h-3.5v1z" />
    <glyph glyph-name="Ydieresis" unicode="&#xbb;" horiz-adv-x="546" 
d="M31 499l213 -158v-105l-210 -164v110l149 105l-152 109v103v0zM299 499l213 -158v-105l-210 -164v110l148 105l-151 109v103v0z" />
    <glyph glyph-name="onequarter" unicode="&#xbc;" 
 />
    <glyph glyph-name="glyph243" unicode="&#xbd;" horiz-adv-x="500" 
 />
    <glyph glyph-name="threequarters" unicode="&#xbe;" 
 />
    <glyph glyph-name="oe" unicode="&#xbf;" horiz-adv-x="514" 
d="M235 276l-28 -42q-18 -29 -25.5 -41t-12.5 -21q-3 -5 -5.5 -10t-6.5 -11q-6 -10 -9 -17t-5 -13q-1 -1 -1 -2t-1 -2q-1 -3 -2 -6.5t-2 -7.5l36 17q2 0 3.5 0.5t2.5 1.5q5 3 9.5 6.5t10.5 6.5q12 8 31.5 14t54.5 7h4.5h4.5q13 0 26.5 -2t27.5 -6q50 -15 92 -59.5t42 -119.5
q0 -98 -64.5 -159.5t-168.5 -68.5h-3h-3h-3.5h-3.5q-82 0 -145 56t-64 141q0 50 16.5 107t78.5 148l78 114l35 -31v0zM242 94q-53 -8 -93 -47.5t-45 -84.5q-1 -3 -1 -6v-6v-2v-2v-1v-2q4 -63 48.5 -105t105.5 -44h3h2q66 0 112.5 46.5t46.5 118.5v4v3q-1 2 -1 4v4
q-4 58 -52 89.5t-104 30.5h-5.5h-5.5t-5.5 -0.5t-5.5 -0.5v1zM243 325l-47 163l157 -51l-110 -112v0z" />
    <glyph glyph-name="currency" unicode="&#xc0;" horiz-adv-x="840" 
d="M460 740q2 -8 4 -14.5t4 -12.5q1 -7 3 -13t4 -14q14 -43 41 -118.5t57 -156.5l4 -10l4 -10q36 -99 68.5 -182.5t43.5 -107.5q3 -8 6 -14t6 -13q2 -5 5 -10.5t6 -11.5q5 -10 20.5 -18t33.5 -15q4 -1 8 -3t8 -3q3 -1 5.5 -2.5t5.5 -2.5l21 -8h-296l26 10q6 1 13 4t15 6
q14 5 25.5 12t14.5 17v0.5t1 1.5v1.5v1.5q0 5 -2 13t-5 15q-1 4 -2 7l-2 6q-1 4 -2.5 7.5t-2.5 6.5l-67 188h-247l-70 -187l-1.5 -4.5t-0.5 -3.5q-2 -4 -3.5 -9t-2.5 -10q-3 -11 -5 -21t-2 -15v-1.5v-1.5q4 -9 15.5 -14.5t25.5 -10.5q2 0 4 -0.5t3 -1.5q5 -2 10 -3.5t9 -3.5
l27 -10h-273l22 8q7 2 15.5 5t16.5 6q17 6 32 14t20 17q3 5 5 10t4 9q2 3 3 6t2 7q2 4 3.5 8t3.5 9q13 28 25.5 58.5t25.5 62.5q7 16 14 32.5t14 33.5q52 129 94 241.5t52 143.5q3 10 5.5 18t4.5 16q0 3 1 5.5t1 5.5q2 5 3.5 11t2.5 12l67 1v0zM511 349l-101 262l-102 -262
h203v0zM518 789l-163 174l73 47l90 -221v0z" />
    <glyph glyph-name="breve" unicode="&#xc1;" horiz-adv-x="833" 
d="M460 740q2 -8 4 -14.5t4 -12.5q1 -7 3 -13t4 -14q14 -43 41 -118.5t57 -156.5l4 -10l4 -10q36 -99 68.5 -182.5t43.5 -107.5q3 -8 6 -14t6 -13q2 -5 5 -10.5t6 -11.5q5 -10 20.5 -18t33.5 -15q4 -1 8 -3t8 -3q3 -1 5.5 -2.5t5.5 -2.5l21 -8h-296l26 10q6 1 13 4t15 6
q14 5 25.5 12t14.5 17v0.5t1 1.5v1.5v1.5q0 5 -2 13t-5 15q-1 4 -2 7l-2 6q-1 4 -2.5 7.5t-2.5 6.5l-67 188h-247l-70 -187l-1.5 -4.5t-0.5 -3.5q-2 -4 -3.5 -9t-2.5 -10q-3 -11 -5 -21t-2 -15v-1.5v-1.5q4 -9 15.5 -14.5t25.5 -10.5q2 0 4 -0.5t3 -1.5q5 -2 10 -3.5t9 -3.5
l27 -10h-273l22 8q7 2 15.5 5t16.5 6q17 6 32 14t20 17q3 5 5 10t4 9q2 3 3 6t2 7q2 4 3.5 8t3.5 9q13 28 25.5 58.5t25.5 62.5q7 16 14 32.5t14 33.5q52 129 94 241.5t52 143.5q3 10 5.5 18t4.5 16q0 3 1 5.5t1 5.5q2 5 3.5 11t2.5 12l67 1v0zM511 349l-101 262l-102 -262
h203v0zM514 963l-162 -174l90 221l72 -47v0z" />
    <glyph glyph-name="tilde" unicode="&#xc2;" horiz-adv-x="840" 
d="M460 740q2 -8 4 -14.5t4 -12.5q1 -7 3 -13t4 -14q14 -43 41 -118.5t57 -156.5l4 -10l4 -10q36 -99 68.5 -182.5t43.5 -107.5q3 -8 6 -14t6 -13q2 -5 5 -10.5t6 -11.5q5 -10 20.5 -18t33.5 -15q4 -1 8 -3t8 -3q3 -1 5.5 -2.5t5.5 -2.5l21 -8h-296l26 10q6 1 13 4t15 6
q14 5 25.5 12t14.5 17v0.5t1 1.5v1.5v1.5q0 5 -2 13t-5 15q-1 4 -2 7l-2 6q-1 4 -2.5 7.5t-2.5 6.5l-67 188h-247l-70 -187l-1.5 -4.5t-0.5 -3.5q-2 -4 -3.5 -9t-2.5 -10q-3 -11 -5 -21t-2 -15v-1.5v-1.5q4 -9 15.5 -14.5t25.5 -10.5q2 0 4 -0.5t3 -1.5q5 -2 10 -3.5t9 -3.5
l27 -10h-273l22 8q7 2 15.5 5t16.5 6q17 6 32 14t20 17q3 5 5 10t4 9q2 3 3 6t2 7q2 4 3.5 8t3.5 9q13 28 25.5 58.5t25.5 62.5q7 16 14 32.5t14 33.5q52 129 94 241.5t52 143.5q3 10 5.5 18t4.5 16q0 3 1 5.5t1 5.5q2 5 3.5 11t2.5 12l67 1v0zM511 349l-101 262l-102 -262
h203v0zM426 845l-132 -52l132 145l133 -140l-133 47v0z" />
    <glyph glyph-name="guilsinglleft" unicode="&#xc3;" horiz-adv-x="850" 
d="M460 740q2 -8 4 -14.5t4 -12.5q1 -7 3 -13t4 -14q14 -43 41 -118.5t57 -156.5l4 -10l4 -10q36 -99 68.5 -182.5t43.5 -107.5q3 -8 6 -14t6 -13q2 -5 5 -10.5t6 -11.5q5 -10 20.5 -18t33.5 -15q4 -1 8 -3t8 -3q3 -1 5.5 -2.5t5.5 -2.5l21 -8h-296l26 10q6 1 13 4t15 6
q14 5 25.5 12t14.5 17v0.5t1 1.5v1.5v1.5q0 5 -2 13t-5 15q-1 4 -2 7l-2 6q-1 4 -2.5 7.5t-2.5 6.5l-67 188h-247l-70 -187l-1.5 -4.5t-0.5 -3.5q-2 -4 -3.5 -9t-2.5 -10q-3 -11 -5 -21t-2 -15v-1.5v-1.5q4 -9 15.5 -14.5t25.5 -10.5q2 0 4 -0.5t3 -1.5q5 -2 10 -3.5t9 -3.5
l27 -10h-273l22 8q7 2 15.5 5t16.5 6q17 6 32 14t20 17q3 5 5 10t4 9q2 3 3 6t2 7q2 4 3.5 8t3.5 9q13 28 25.5 58.5t25.5 62.5q7 16 14 32.5t14 33.5q52 129 94 241.5t52 143.5q3 10 5.5 18t4.5 16q0 3 1 5.5t1 5.5q2 5 3.5 11t2.5 12l67 1v0zM511 349l-101 262l-102 -262
h203v0zM599 853q-11 -20 -27 -34t-34 -21q-8 -3 -16 -5t-15 -2q-19 0 -33.5 8.5t-27.5 18.5q-14 10 -28 18.5t-34 8.5v0v0h-1v0q-19 -1 -30.5 -5t-21.5 -10q-6 -3 -13 -7.5t-15 -8.5l-31 -16l18 33q12 22 35 40.5t49 23.5q3 1 6.5 1.5t6.5 0.5h1.5h1.5q18 0 30.5 -8.5
t24.5 -19.5q12 -10 24 -18t29 -8h1.5h1.5h0.5h1.5q23 1 36.5 5t25.5 10q6 4 13.5 8t16.5 8l24 12l-20 -33v0z" />
    <glyph glyph-name="Adieresis" unicode="&#xc4;" horiz-adv-x="806" 
d="M460 740q2 -8 4 -14.5t4 -12.5q1 -7 3 -13t4 -14q14 -43 41 -118.5t57 -156.5l4 -10l4 -10q36 -99 68.5 -182.5t43.5 -107.5q3 -8 6 -14t6 -13q2 -5 5 -10.5t6 -11.5q5 -10 20.5 -18t33.5 -15q4 -1 8 -3t8 -3q3 -1 5.5 -2.5t5.5 -2.5l21 -8h-296l26 10q6 1 13 4t15 6
q14 5 25.5 12t14.5 17v0.5t1 1.5v1.5v1.5q0 5 -2 13t-5 15q-1 4 -2 7l-2 6q-1 4 -2.5 7.5t-2.5 6.5l-67 188h-247l-70 -187l-1.5 -4.5t-0.5 -3.5q-2 -4 -3.5 -9t-2.5 -10q-3 -11 -5 -21t-2 -15v-1.5v-1.5q4 -9 15.5 -14.5t25.5 -10.5q2 0 4 -0.5t3 -1.5q5 -2 10 -3.5t9 -3.5
l27 -10h-273l22 8q7 2 15.5 5t16.5 6q17 6 32 14t20 17q3 5 5 10t4 9q2 3 3 6t2 7q2 4 3.5 8t3.5 9q13 28 25.5 58.5t25.5 62.5q7 16 14 32.5t14 33.5q52 129 94 241.5t52 143.5q3 10 5.5 18t4.5 16q0 3 1 5.5t1 5.5q2 5 3.5 11t2.5 12l67 1v0zM511 349l-101 262l-102 -262
h203v0zM376 937l45 -147l-143 45l98 102v0zM551 937l44 -147l-143 45l99 102v0z" />
    <glyph glyph-name="Aring" unicode="&#xc5;" horiz-adv-x="832" 
d="M460 740q2 -8 4 -14.5t4 -12.5q1 -7 3 -13t4 -14q14 -43 41 -118.5t57 -156.5l4 -10l4 -10q36 -99 68.5 -182.5t43.5 -107.5q3 -8 6 -14t6 -13q2 -5 5 -10.5t6 -11.5q5 -10 20.5 -18t33.5 -15q4 -1 8 -3t8 -3q3 -1 5.5 -2.5t5.5 -2.5l21 -8h-296l26 10q6 1 13 4t15 6
q14 5 25.5 12t14.5 17v0.5t1 1.5v1.5v1.5q0 5 -2 13t-5 15q-1 4 -2 7l-2 6q-1 4 -2.5 7.5t-2.5 6.5l-67 188h-247l-70 -187l-1.5 -4.5t-0.5 -3.5q-2 -4 -3.5 -9t-2.5 -10q-3 -11 -5 -21t-2 -15v-1.5v-1.5q4 -9 15.5 -14.5t25.5 -10.5q2 0 4 -0.5t3 -1.5q5 -2 10 -3.5t9 -3.5
l27 -10h-273l22 8q7 2 15.5 5t16.5 6q17 6 32 14t20 17q3 5 5 10t4 9q2 3 3 6t2 7q2 4 3.5 8t3.5 9q13 28 25.5 58.5t25.5 62.5q7 16 14 32.5t14 33.5q52 129 94 241.5t52 143.5q3 10 5.5 18t4.5 16q0 3 1 5.5t1 5.5q2 5 3.5 11t2.5 12l67 1v0zM511 349l-101 262l-102 -262
h203v0zM426 962q36 -1 63 -24.5t27 -61.5v0v0v-1v0q-1 -36 -26.5 -62t-62.5 -26q-34 0 -59.5 24t-27.5 59v0.5v1.5v1.5v0.5q0 35 25.5 61t60.5 26v1zM484 875q0 23 -17.5 39t-40.5 16t-39.5 -17.5t-16.5 -40.5v0v0v-1v0q1 -23 17.5 -38.5t38.5 -15.5q24 0 41 17t17 40v1z
" />
    <glyph glyph-name="Oslash" unicode="&#xc6;" horiz-adv-x="1056" 
d="M533 740h452l2 -168l-14 40q-2 4 -3.5 8.5t-3.5 9.5q-5 13 -11 24t-17 19q-10 6 -21 9t-23 4h-8.5h-9.5l-122 1q-2 -1 -4 -1h-5q-12 0 -23.5 -1t-17.5 -7q-4 -4 -5 -12.5t-1 -17.5v-2.5v-2.5v-2.5v-2.5v-239h142q4 -1 7.5 -1h6.5q4 -1 7.5 -1h6.5q11 0 20.5 2t17.5 8
q2 1 3 2.5t2 2.5q4 3 6 6.5t5 6.5l2 4l2 4l20 43v-235l-8 23q-2 4 -4 9.5t-4 11.5v0.5v0.5q-6 17 -12.5 31.5t-17.5 19.5q-5 3 -10.5 5t-9.5 3q-7 2 -14.5 2h-15.5h-2.5h-2.5l-147 1v-246q0 -5 0.5 -11t1.5 -11q1 -11 4.5 -19.5t10.5 -11.5q8 -4 14.5 -5t13.5 -1h5.5t5.5 1
h5h6l164 1q3 -1 5.5 -1h5.5q1 -1 1.5 -1h1.5h3.5h3.5q5 0 10.5 1t11.5 4q8 4 13.5 15.5t10.5 26.5q1 3 2 6.5t3 6.5q1 6 3.5 12t4.5 11l13 32l-4 -158h-502l25 10q5 1 10 3t11 5q12 5 23.5 12.5t14.5 18.5q2 5 3 13t1 17v4v4q-1 2 -1 4.5v4.5l-3 201h-264l-122 -191
q-4 -6 -7 -13t-5 -14q-4 -9 -5.5 -17.5t-1.5 -13.5v-0.5t1 -1.5v-1.5v-0.5q3 -9 14.5 -14.5t25.5 -10.5q2 0 4 -1t4 -1q5 -2 9.5 -3.5t8.5 -3.5l27 -10h-273l22 8q7 2 15.5 5t16.5 6q17 6 32 14t20 17q3 5 6 9.5t6 8.5q5 7 10 14.5l11 16.5q30 44 64.5 96t70.5 106
q3 4 6 8.5t6 9.5q78 118 143 220.5t74 131.5q3 10 5 18l4 16q1 4 1.5 7.5t0.5 7.5q1 4 1.5 9t1.5 10v1zM597 349l-1 342l-221 -342h222v0z" />
    <glyph glyph-name="Ccedilla" unicode="&#xc7;" horiz-adv-x="764" 
d="M407 -21l-40 10q-140 31 -237 115t-102 247v6v7q0 167 122.5 274t285.5 115q17 1 32.5 1.5t30.5 0.5q19 0 37 -1t36 -4q20 -2 40 -6.5t42 -11.5l28 -8l1 -199l-24 61q-2 4 -3.5 8.5t-3.5 8.5q-7 22 -16 40t-24 28q-3 2 -7.5 4t-9.5 4q-19 6 -50.5 11.5t-64.5 7.5
q-8 1 -15.5 1h-14.5h-5.5h-4.5q-2 -1 -4.5 -1h-5.5q-133 -7 -224.5 -99t-90.5 -235q1 -136 97 -233.5t239 -95.5q6 0 12 0.5t12 0.5q57 4 108 23t73 43q8 9 15 21t13 24q7 13 13 25.5t11 21.5l25 48l-42 -212l-36 -13q-33 -13 -47 -16.5t-23 -5.5q-2 0 -3 -0.5t-3 -0.5
q-5 -1 -10.5 -1.5t-14.5 -2.5q-11 -2 -20.5 -2.5t-18.5 -0.5q-2 -1 -5 -1h-6q-10 0 -21.5 -0.5t-24.5 -2.5l-27 -5l-3 -52l12 4q5 1 9.5 2.5t8.5 1.5q3 1 6.5 1.5t7.5 0.5q38 0 65 -26t28 -61q0 -47 -28.5 -76t-72.5 -29q-17 0 -31.5 3t-25.5 11l-16 11l15 20l14 -11
q9 -7 20 -10t22 -3q29 0 49 22t20 51v1.5v1.5q-1 28 -20 47.5t-47 21.5h-1.5h-2.5q-3 0 -7 -0.5t-8 -0.5l-8 -2l-8 -2q-3 -1 -6 -1.5t-5 -1.5l-16 -6l5 83v0z" />
    <glyph glyph-name="ring" unicode="&#xc8;" horiz-adv-x="592" 
d="M26 740h501l-1 -164l-14 40q-2 4 -3.5 9t-3.5 9q-5 14 -10.5 24.5t-17.5 18.5q-8 5 -18 8t-20 4q-6 0 -11.5 0.5t-11.5 0.5l-123 1q-2 -1 -4 -1h-5q-12 0 -23.5 -1t-17.5 -7q-4 -4 -5 -13.5t-1 -20.5v-0.5v-1.5v-2.5v-2.5v-239h142q6 -1 12 -1h12q12 0 22.5 1.5t19.5 8.5
q2 2 4 3.5t3 3.5q5 4 7.5 8t5.5 10l21 44v-235l-9 23q-1 3 -2.5 7t-2.5 8q-1 2 -1.5 3.5t-1.5 3.5q-5 16 -11.5 30.5t-17.5 20.5q-6 4 -12 6t-12 3t-12.5 1h-14.5h-2.5h-2.5l-147 1v-246q0 -5 0.5 -11t1.5 -11q2 -11 5.5 -19.5t9.5 -11.5q8 -4 14.5 -5t13.5 -1h5.5t5.5 1h5
h6l164 1q3 -1 6 -1h6q2 -1 5 -1h6q5 0 10 1t10 3q8 4 13.5 16t10.5 27q1 3 2 6.5t2 6.5q2 6 4.5 12t4.5 11l13 32l-5 -162h-530l23 7q8 1 18.5 4t21.5 6q10 4 20 7.5t18 7.5q5 2 9 5t6 5q5 6 7 13.5t3 15.5v6v6v9v8v542v9.5v9.5q0 10 -1.5 18.5t-8.5 16.5q-2 2 -6 5t-9 5
q-8 4 -18 7.5t-20 7.5q-11 3 -21.5 6t-18.5 5l-23 8v0zM403 791l-163 174l73 46l90 -220v0z" />
    <glyph glyph-name="Eacute" unicode="&#xc9;" horiz-adv-x="595" 
d="M26 740h501l-1 -164l-14 40q-2 4 -3.5 9t-3.5 9q-5 14 -10.5 24.5t-17.5 18.5q-8 5 -18 8t-20 4q-6 0 -11.5 0.5t-11.5 0.5l-123 1q-2 -1 -4 -1h-5q-12 0 -23.5 -1t-17.5 -7q-4 -4 -5 -13.5t-1 -20.5v-0.5v-1.5v-2.5v-2.5v-239h142q6 -1 12 -1h12q12 0 22.5 1.5t19.5 8.5
q2 2 4 3.5t3 3.5q5 4 7.5 8t5.5 10l21 44v-235l-9 23q-1 3 -2.5 7t-2.5 8q-1 2 -1.5 3.5t-1.5 3.5q-5 16 -11.5 30.5t-17.5 20.5q-6 4 -12 6t-12 3t-12.5 1h-14.5h-2.5h-2.5l-147 1v-246q0 -5 0.5 -11t1.5 -11q2 -11 5.5 -19.5t9.5 -11.5q8 -4 14.5 -5t13.5 -1h5.5t5.5 1h5
h6l164 1q3 -1 6 -1h6q2 -1 5 -1h6q5 0 10 1t10 3q8 4 13.5 16t10.5 27q1 3 2 6.5t2 6.5q2 6 4.5 12t4.5 11l13 32l-5 -162h-530l23 7q8 1 18.5 4t21.5 6q10 4 20 7.5t18 7.5q5 2 9 5t6 5q5 6 7 13.5t3 15.5v6v6v9v8v542v9.5v9.5q0 10 -1.5 18.5t-8.5 16.5q-2 2 -6 5t-9 5
q-8 4 -18 7.5t-20 7.5q-11 3 -21.5 6t-18.5 5l-23 8v0zM410 966l-163 -175l90 221l73 -46v0z" />
    <glyph glyph-name="macron" unicode="&#xca;" horiz-adv-x="598" 
d="M26 740h501l-1 -164l-14 40q-2 4 -3.5 9t-3.5 9q-5 14 -10.5 24.5t-17.5 18.5q-8 5 -18 8t-20 4q-6 0 -11.5 0.5t-11.5 0.5l-123 1q-2 -1 -4 -1h-5q-12 0 -23.5 -1t-17.5 -7q-4 -4 -5 -13.5t-1 -20.5v-0.5v-1.5v-2.5v-2.5v-239h142q6 -1 12 -1h12q12 0 22.5 1.5t19.5 8.5
q2 2 4 3.5t3 3.5q5 4 7.5 8t5.5 10l21 44v-235l-9 23q-1 3 -2.5 7t-2.5 8q-1 2 -1.5 3.5t-1.5 3.5q-5 16 -11.5 30.5t-17.5 20.5q-6 4 -12 6t-12 3t-12.5 1h-14.5h-2.5h-2.5l-147 1v-246q0 -5 0.5 -11t1.5 -11q2 -11 5.5 -19.5t9.5 -11.5q8 -4 14.5 -5t13.5 -1h5.5t5.5 1h5
h6l164 1q3 -1 6 -1h6q2 -1 5 -1h6q5 0 10 1t10 3q8 4 13.5 16t10.5 27q1 3 2 6.5t2 6.5q2 6 4.5 12t4.5 11l13 32l-5 -162h-530l23 7q8 1 18.5 4t21.5 6q10 4 20 7.5t18 7.5q5 2 9 5t6 5q5 6 7 13.5t3 15.5v6v6v9v8v542v9.5v9.5q0 10 -1.5 18.5t-8.5 16.5q-2 2 -6 5t-9 5
q-8 4 -18 7.5t-20 7.5q-11 3 -21.5 6t-18.5 5l-23 8v0zM306 843l-132 -51l132 144l134 -140l-134 47v0z" />
    <glyph glyph-name="dotaccent" unicode="&#xcb;" horiz-adv-x="595" 
d="M26 740h501l-1 -164l-14 40q-2 4 -3.5 9t-3.5 9q-5 14 -10.5 24.5t-17.5 18.5q-8 5 -18 8t-20 4q-6 0 -11.5 0.5t-11.5 0.5l-123 1q-2 -1 -4 -1h-5q-12 0 -23.5 -1t-17.5 -7q-4 -4 -5 -13.5t-1 -20.5v-0.5v-1.5v-2.5v-2.5v-239h142q6 -1 12 -1h12q12 0 22.5 1.5t19.5 8.5
q2 2 4 3.5t3 3.5q5 4 7.5 8t5.5 10l21 44v-235l-9 23q-1 3 -2.5 7t-2.5 8q-1 2 -1.5 3.5t-1.5 3.5q-5 16 -11.5 30.5t-17.5 20.5q-6 4 -12 6t-12 3t-12.5 1h-14.5h-2.5h-2.5l-147 1v-246q0 -5 0.5 -11t1.5 -11q2 -11 5.5 -19.5t9.5 -11.5q8 -4 14.5 -5t13.5 -1h5.5t5.5 1h5
h6l164 1q3 -1 6 -1h6q2 -1 5 -1h6q5 0 10 1t10 3q8 4 13.5 16t10.5 27q1 3 2 6.5t2 6.5q2 6 4.5 12t4.5 11l13 32l-5 -162h-530l23 7q8 1 18.5 4t21.5 6q10 4 20 7.5t18 7.5q5 2 9 5t6 5q5 6 7 13.5t3 15.5v6v6v9v8v542v9.5v9.5q0 10 -1.5 18.5t-8.5 16.5q-2 2 -6 5t-9 5
q-8 4 -18 7.5t-20 7.5q-11 3 -21.5 6t-18.5 5l-23 8v0zM263 938l45 -146l-143 45l98 101v0zM437 938l45 -146l-143 45l98 101v0z" />
    <glyph glyph-name="caron" unicode="&#xcc;" horiz-adv-x="390" 
d="M237 642v-545q0 -17 1.5 -29.5t11.5 -24.5q6 -8 21.5 -13.5t32.5 -9.5q3 -1 5.5 -2t5.5 -1q8 -2 15 -4.5t13 -4.5l22 -8h-339l23 7q8 1 18.5 4t21.5 6q10 4 20 7.5t18 7.5q5 2 9 5t6 5q3 5 5.5 9.5t3.5 9.5t1.5 10t0.5 9v5.5v4.5q-1 3 -1 5.5v4.5v539v3.5t1 5.5v5v6
q0 4 -0.5 7.5t-1.5 7.5q-1 6 -3 11.5t-6 10.5q-2 2 -6 5t-9 5q-8 4 -18 7.5t-20 7.5q-11 3 -21.5 6t-18.5 5l-23 8h339l-22 -9q-6 -4 -14 -6t-17 -4q-2 -1 -4 -1.5t-4 -1.5q-17 -4 -32.5 -9.5t-21.5 -12.5q-1 -2 -2.5 -3.5t-2.5 -3.5q-6 -11 -7 -22.5t-1 -25.5v1zM282 789
l-163 174l72 47l91 -221v0z" />
    <glyph glyph-name="cedilla" unicode="&#xcd;" horiz-adv-x="390" 
d="M237 642v-545q0 -17 1.5 -29.5t11.5 -24.5q6 -8 21.5 -13.5t32.5 -9.5q3 -1 5.5 -2t5.5 -1q8 -2 15 -4.5t13 -4.5l22 -8h-339l23 7q8 1 18.5 4t21.5 6q10 4 20 7.5t18 7.5q5 2 9 5t6 5q3 5 5.5 9.5t3.5 9.5t1.5 10t0.5 9v5.5v4.5q-1 3 -1 5.5v4.5v539v3.5t1 5.5v5v6
q0 4 -0.5 7.5t-1.5 7.5q-1 6 -3 11.5t-6 10.5q-2 2 -6 5t-9 5q-8 4 -18 7.5t-20 7.5q-11 3 -21.5 6t-18.5 5l-23 8h339l-22 -9q-6 -4 -14 -6t-17 -4q-2 -1 -4 -1.5t-4 -1.5q-17 -4 -32.5 -9.5t-21.5 -12.5q-1 -2 -2.5 -3.5t-2.5 -3.5q-6 -11 -7 -22.5t-1 -25.5v1zM274 964
l-163 -174l90 221l73 -47v0z" />
    <glyph glyph-name="hungarumlaut" unicode="&#xce;" horiz-adv-x="390" 
d="M237 642v-545q0 -17 1.5 -29.5t11.5 -24.5q6 -8 21.5 -13.5t32.5 -9.5q3 -1 5.5 -2t5.5 -1q8 -2 15 -4.5t13 -4.5l22 -8h-339l23 7q8 1 18.5 4t21.5 6q10 4 20 7.5t18 7.5q5 2 9 5t6 5q3 5 5.5 9.5t3.5 9.5t1.5 10t0.5 9v5.5v4.5q-1 3 -1 5.5v4.5v539v3.5t1 5.5v5v6
q0 4 -0.5 7.5t-1.5 7.5q-1 6 -3 11.5t-6 10.5q-2 2 -6 5t-9 5q-8 4 -18 7.5t-20 7.5q-11 3 -21.5 6t-18.5 5l-23 8h339l-22 -9q-6 -4 -14 -6t-17 -4q-2 -1 -4 -1.5t-4 -1.5q-17 -4 -32.5 -9.5t-21.5 -12.5q-1 -2 -2.5 -3.5t-2.5 -3.5q-6 -11 -7 -22.5t-1 -25.5v1zM191 840
l-132 -51l132 144l133 -140l-133 47v0z" />
    <glyph glyph-name="ogonek" unicode="&#xcf;" horiz-adv-x="390" 
d="M237 642v-545q0 -17 1.5 -29.5t11.5 -24.5q6 -8 21.5 -13.5t32.5 -9.5q3 -1 5.5 -2t5.5 -1q8 -2 15 -4.5t13 -4.5l22 -8h-339l23 7q8 1 18.5 4t21.5 6q10 4 20 7.5t18 7.5q5 2 9 5t6 5q3 5 5.5 9.5t3.5 9.5t1.5 10t0.5 9v5.5v4.5q-1 3 -1 5.5v4.5v539v3.5t1 5.5v5v6
q0 4 -0.5 7.5t-1.5 7.5q-1 6 -3 11.5t-6 10.5q-2 2 -6 5t-9 5q-8 4 -18 7.5t-20 7.5q-11 3 -21.5 6t-18.5 5l-23 8h339l-22 -9q-6 -4 -14 -6t-17 -4q-2 -1 -4 -1.5t-4 -1.5q-17 -4 -32.5 -9.5t-21.5 -12.5q-1 -2 -2.5 -3.5t-2.5 -3.5q-6 -11 -7 -22.5t-1 -25.5v1zM135 936
l45 -146l-143 45l98 101v0zM309 936l45 -146l-143 45l98 101v0z" />
    <glyph glyph-name="glyph232" unicode="&#xd0;" horiz-adv-x="500" 
 />
    <glyph glyph-name="Ntilde" unicode="&#xd1;" horiz-adv-x="937" 
d="M769 -2q-78 87 -99.5 110.5t-31.5 34.5l-14 14t-27 28l-42 44t-43 45q-4 5 -9 9.5t-9 9.5q-98 102 -186 190.5t-126 125.5v-432v-9.5v-11.5q-1 -6 -1 -13.5v-15.5v-12v-12q1 -16 3.5 -32t7.5 -26t19.5 -17t30.5 -13q5 -2 9 -3.5t8 -2.5l28 -9h-261l17 8q5 1 9.5 3t9.5 4
q17 7 32.5 15t21.5 19q5 9 6.5 31.5t2.5 48.5v24v22v565h58q11 -14 26 -33.5t40 -45.5q42 -43 92.5 -95t102.5 -106q106 -111 198.5 -207t113.5 -115v426v15.5v17.5v17.5v16.5q0 20 -1 36.5t-5 23.5q-5 10 -19.5 17t-30.5 13l-3 1.5t-2 0.5l-10 4l-10 4l-17 9h261l-28 -12
q-3 -2 -5.5 -3t-5.5 -2q-16 -7 -28.5 -13.5t-22.5 -16.5q-5 -5 -7.5 -23.5t-3.5 -39.5q-1 -12 -1 -23.5v-20.5v-15.5v-5.5v-567h-48v0zM648 851q-10 -19 -25.5 -32.5t-32.5 -21.5q-8 -4 -16.5 -6t-16.5 -2q-20 0 -35 8.5t-28 19.5q-13 10 -27.5 18t-33.5 8v0v0h-1v0
q-18 -1 -29.5 -5t-21.5 -10l-14 -8t-15 -9l-31 -15l18 32q13 23 37 42t50 24q3 0 5.5 0.5t4.5 0.5h1.5h1.5q18 0 31 -9t25 -19t24.5 -18.5t29.5 -8.5h1.5h1.5q23 2 36.5 6t24.5 10q7 3 14.5 7t17.5 9l23 12l-20 -33v0z" />
    <glyph glyph-name="scaron" unicode="&#xd2;" horiz-adv-x="853" 
d="M405 754q2 -1 4.5 -1h5.5h4.5h4.5q157 0 272 -103t119 -277q2 -175 -121 -280.5t-290 -103.5q-157 1 -266.5 112.5t-109.5 271.5q0 156 111 265t266 115v1zM404 698q-136 -5 -215.5 -100.5t-78.5 -222.5q2 -122 86 -223t214 -109h5.5h4.5q2 -1 4.5 -1h5.5q122 0 212 87.5
t90 225.5q0 135 -91.5 239t-225.5 103h-2.5h-2.5h-3h-3v1zM510 791l-163 174l72 46l91 -220v0z" />
    <glyph glyph-name="Lslash" unicode="&#xd3;" horiz-adv-x="843" 
d="M405 754q2 -1 4.5 -1h5.5h4.5h4.5q157 0 272 -103t119 -277q2 -175 -121 -280.5t-290 -103.5q-157 1 -266.5 112.5t-109.5 271.5q0 156 111 265t266 115v1zM404 698q-136 -5 -215.5 -100.5t-78.5 -222.5q2 -122 86 -223t214 -109h5.5h4.5q2 -1 4.5 -1h5.5q122 0 212 87.5
t90 225.5q0 135 -91.5 239t-225.5 103h-2.5h-2.5h-3h-3v1zM516 963l-163 -174l90 221l73 -47v0z" />
    <glyph glyph-name="lslash" unicode="&#xd4;" horiz-adv-x="857" 
d="M405 754q2 -1 4.5 -1h5.5h4.5h4.5q157 0 272 -103t119 -277q2 -175 -121 -280.5t-290 -103.5q-157 1 -266.5 112.5t-109.5 271.5q0 156 111 265t266 115v1zM404 698q-136 -5 -215.5 -100.5t-78.5 -222.5q2 -122 86 -223t214 -109h5.5h4.5q2 -1 4.5 -1h5.5q122 0 212 87.5
t90 225.5q0 135 -91.5 239t-225.5 103h-2.5h-2.5h-3h-3v1zM431 842l-132 -51l132 144l133 -140l-133 47v0z" />
    <glyph glyph-name="guilsinglright" unicode="&#xd5;" horiz-adv-x="850" 
d="M405 754q2 -1 4.5 -1h5.5h4.5h4.5q157 0 272 -103t119 -277q2 -175 -121 -280.5t-290 -103.5q-157 1 -266.5 112.5t-109.5 271.5q0 156 111 265t266 115v1zM404 698q-136 -5 -215.5 -100.5t-78.5 -222.5q2 -122 86 -223t214 -109h5.5h4.5q2 -1 4.5 -1h5.5q122 0 212 87.5
t90 225.5q0 135 -91.5 239t-225.5 103h-2.5h-2.5h-3h-3v1zM582 851q-11 -20 -27 -34t-34 -22q-8 -3 -15.5 -4.5t-14.5 -1.5q-20 0 -34.5 8.5t-27.5 18.5q-1 0 -1 0.5t-1 0.5q-13 10 -26.5 18t-32.5 8v0v0h-1v0q-19 -1 -30.5 -5t-22.5 -10q-6 -4 -13 -8t-15 -9l-31 -15l18 32
q13 23 37 42t50 24q3 0 5.5 0.5t4.5 0.5h1.5h1.5q18 0 31.5 -9t25.5 -19q11 -10 24 -18.5t30 -8.5h1.5h1.5q22 2 35 6t25 9q7 4 14.5 8t17.5 9l24 12l-21 -33v0z" />
    <glyph glyph-name="Odieresis" unicode="&#xd6;" horiz-adv-x="850" 
d="M405 754q2 -1 4.5 -1h5.5h4.5h4.5q157 0 272 -103t119 -277q2 -175 -121 -280.5t-290 -103.5q-157 1 -266.5 112.5t-109.5 271.5q0 156 111 265t266 115v1zM404 698q-136 -5 -215.5 -100.5t-78.5 -222.5q2 -122 86 -223t214 -109h5.5h4.5q2 -1 4.5 -1h5.5q122 0 212 87.5
t90 225.5q0 135 -91.5 239t-225.5 103h-2.5h-2.5h-3h-3v1zM366 935l45 -146l-143 45l98 101v0zM541 935l45 -146l-144 45l99 101v0z" />
    <glyph glyph-name="multiply" unicode="&#xd7;" 
 />
    <glyph glyph-name="plusminus" unicode="&#xd8;" horiz-adv-x="855" 
d="M405 754q2 -1 4.5 -1h5.5h4.5h4.5q50 0 96.5 -11t88.5 -32l22 33h101l-55 -76q62 -50 99 -124.5t39 -169.5q2 -175 -121 -280.5t-290 -103.5q-48 0 -93 12t-85 34l-20 -29h-97l52 74q-61 52 -97 128t-36 165q0 156 111 265t266 115v1zM266 91q32 -20 68 -33t76 -15h4.5
h5.5q2 -1 4.5 -1h4.5q122 0 212.5 87.5t90.5 225.5q0 71 -26.5 135.5t-73.5 112.5l-366 -512v0zM266 91l366 513l-366 -513v0zM569 654q-34 20 -72.5 31.5t-81.5 11.5h-2.5h-2.5h-3h-3q-136 -4 -215.5 -99.5t-78.5 -222.5q0 -65 26 -126t70 -108l363 513v0zM569 654
l-363 -512l363 512v0z" />
    <glyph glyph-name="Thorn" unicode="&#xd9;" horiz-adv-x="884" 
d="M726 603v-313q0 -173 -89 -239.5t-203 -65.5q-109 1 -195.5 69t-86.5 223v362v3.5t1 5.5v5v6q0 4 -0.5 7.5t-1.5 7.5q-1 6 -3 11.5t-6 10.5q-2 2 -6 5t-9 5q-8 4 -18 7.5t-20 7.5q-11 3 -21.5 6t-18.5 5l-23 8h339l-22 -9q-6 -4 -14 -6t-17 -4q-2 -1 -4 -1.5t-4 -1.5
q-17 -4 -32.5 -9.5t-21.5 -12.5q-1 -2 -2.5 -3.5t-2.5 -3.5q-6 -11 -7 -22.5t-1 -25.5v-367q0 -120 54.5 -172t139.5 -65q8 -1 15 -1.5t14 -0.5q83 0 146 61.5t63 164.5v374v0.5v1.5v14.5t-2 15.5q-1 6 -3.5 12t-6.5 12q-2 2 -6 4.5t-10 5.5q-7 3 -16.5 6.5t-19.5 7.5
q-12 3 -22.5 7t-18.5 7l-23 11h312l-20 -11q-8 -5 -18.5 -8t-21.5 -7q-17 -5 -32.5 -10.5t-20.5 -12.5q-4 -5 -6.5 -17.5t-4.5 -26.5q-2 -15 -2.5 -27.5t-0.5 -17.5v1zM518 794l-163 175l73 46l90 -221v0z" />
    <glyph glyph-name="Eth" unicode="&#xda;" horiz-adv-x="893" 
d="M726 607v-312q0 -173 -89 -239.5t-203 -65.5q-109 1 -195.5 69t-86.5 223v362v3.5t1 5.5v5v6q0 4 -0.5 7.5t-1.5 7.5q-1 6 -3 11.5t-6 10.5q-2 2 -5 4.5t-8 4.5q-8 4 -18.5 8t-21.5 7q-11 4 -21.5 7t-18.5 5l-23 8h339l-22 -9q-6 -3 -13 -5.5t-15 -4.5q-3 0 -5.5 -1
t-5.5 -2q-17 -4 -32.5 -9.5t-21.5 -13.5q-10 -12 -11.5 -24.5t-1.5 -29.5v-367q0 -120 54.5 -172t139.5 -65q8 -1 15 -1.5t14 -0.5q83 0 146 61t63 165v374v0.5v1.5v14.5t-2 15.5q-1 6 -3.5 12t-6.5 12q-2 2 -6 4.5t-10 5.5q-7 3 -16.5 6.5t-19.5 7.5q-12 3 -22.5 7t-18.5 7
l-23 11h312l-20 -11q-8 -5 -18.5 -8t-21.5 -7q-17 -5 -32.5 -10.5t-20.5 -12.5q-4 -5 -6.5 -17.5t-4.5 -27.5q-2 -14 -2.5 -27t-0.5 -18v1zM531 966l-163 -174l90 221l73 -47v0z" />
    <glyph glyph-name="eth" unicode="&#xdb;" horiz-adv-x="893" 
d="M726 603v-313q0 -173 -89 -239.5t-203 -65.5q-109 1 -195.5 69t-86.5 223v362v3.5t1 5.5v5v6q0 4 -0.5 7.5t-1.5 7.5q-1 6 -3 11.5t-6 10.5q-2 2 -6 5t-9 5q-8 4 -18 7.5t-20 7.5q-11 3 -21.5 6t-18.5 5l-23 8h339l-22 -9q-6 -4 -14 -6t-17 -4q-2 -1 -4 -1.5t-4 -1.5
q-17 -4 -32.5 -9.5t-21.5 -12.5q-1 -2 -2.5 -3.5t-2.5 -3.5q-6 -11 -7 -22.5t-1 -25.5v-367q0 -120 54.5 -172t139.5 -65q8 -1 15 -1.5t14 -0.5q83 0 146 61.5t63 164.5v374v0.5v1.5v14.5t-2 15.5q-1 6 -3.5 12t-6.5 12q-2 2 -6 4.5t-10 5.5q-7 3 -16.5 6.5t-19.5 7.5
q-12 3 -22.5 7t-18.5 7l-23 11h312l-20 -11q-8 -5 -18.5 -8t-21.5 -7q-17 -5 -32.5 -10.5t-20.5 -12.5q-4 -5 -6.5 -17.5t-4.5 -26.5q-2 -15 -2.5 -27.5t-0.5 -17.5v1zM451 841l-133 -51l133 144l133 -140l-133 47v0z" />
    <glyph glyph-name="Udieresis" unicode="&#xdc;" horiz-adv-x="890" 
d="M726 603v-313q0 -173 -89 -239.5t-203 -65.5q-109 1 -195.5 69t-86.5 223v362v3.5t1 5.5v5v6q0 4 -0.5 7.5t-1.5 7.5q-1 6 -3 11.5t-6 10.5q-2 2 -6 5t-9 5q-8 4 -18 7.5t-20 7.5q-11 3 -21.5 6t-18.5 5l-23 8h339l-22 -9q-6 -4 -14 -6t-17 -4q-2 -1 -4 -1.5t-4 -1.5
q-17 -4 -32.5 -9.5t-21.5 -12.5q-1 -2 -2.5 -3.5t-2.5 -3.5q-6 -11 -7 -22.5t-1 -25.5v-367q0 -120 54.5 -172t139.5 -65q8 -1 15 -1.5t14 -0.5q83 0 146 61.5t63 164.5v374v0.5v1.5v14.5t-2 15.5q-1 6 -3.5 12t-6.5 12q-2 2 -6 4.5t-10 5.5q-7 3 -16.5 6.5t-19.5 7.5
q-12 3 -22.5 7t-18.5 7l-23 11h312l-20 -11q-8 -5 -18.5 -8t-21.5 -7q-17 -5 -32.5 -10.5t-20.5 -12.5q-4 -5 -6.5 -17.5t-4.5 -26.5q-2 -15 -2.5 -27.5t-0.5 -17.5v1zM389 935l45 -146l-143 45l98 101v0zM564 935l45 -146l-144 45l99 101v0z" />
    <glyph glyph-name="Yacute" unicode="&#xdd;" 
 />
    <glyph glyph-name="glyph236" unicode="&#xde;" horiz-adv-x="500" 
 />
    <glyph glyph-name="germandbls" unicode="&#xdf;" horiz-adv-x="630" 
d="M237 97v-2v-3q0 -4 0.5 -13t1.5 -18q1 -6 2.5 -12t3.5 -11q2 -3 3 -6t3 -6q4 -8 10 -12.5t17 -8.5l18 -5h-270l23 7q8 1 18.5 4t21.5 6q10 4 20 7.5t18 7.5q5 2 9 5t6 5q2 3 3.5 6t3.5 6q2 6 2.5 12t0.5 12v8.5v9.5v546q0 13 -1.5 24t-9.5 21q-6 8 -21.5 14.5t-33.5 12.5
q-11 4 -21.5 7.5t-18.5 7.5l-20 11h182q13 -1 25.5 -1h24.5q2 0 4 0.5t4 0.5h45t51 -1q72 -3 127.5 -45t59.5 -119v-2.5v-2.5v-2.5v-2.5q0 -54 -29.5 -93t-78.5 -65l-31 -16l58 -19q59 -20 94.5 -61.5t40.5 -103.5v-4.5t1 -4.5v-4.5v-4.5q-1 -68 -40.5 -123t-118.5 -58h-1.5
h-1.5h-2.5h-2.5q-13 1 -24 6t-18 12l-16 17l43 6q5 -1 8 -0.5t5 0.5t4 0.5t3 0.5q4 0 8 1.5t11 4.5q29 12 44 48t15 77q0 11 -1 20.5t-3 19.5q-12 63 -60 90t-108 47q-4 1 -8.5 2.5t-9.5 3.5l-23 19l18 17q3 1 6.5 3t6.5 4q11 6 22 11.5t22 11.5q38 20 65 45t27 72v8.5
t-1 8.5q-7 74 -48 99t-90 27h-6h-7h-9.5h-9.5q-17 -1 -32.5 -3t-21.5 -5q-9 -6 -10.5 -16t-1.5 -22v-1v-2v-283v-261v0z" />
    <glyph glyph-name="agrave" unicode="&#xe0;" horiz-adv-x="843" 
d="M460 740q2 -8 4 -14.5t4 -12.5q1 -7 3 -13t4 -14q14 -43 41 -118.5t57 -156.5l4 -10l4 -10q36 -99 68.5 -182.5t43.5 -107.5q3 -8 6 -14t6 -13q2 -5 5 -10.5t6 -11.5q5 -10 20.5 -18t33.5 -15q4 -1 8 -3t8 -3q3 -1 5.5 -2.5t5.5 -2.5l21 -8h-296l26 10q6 1 13 4t15 6
q14 5 25.5 12t14.5 17v0.5t1 1.5v1.5v1.5q0 5 -2 13t-5 15q-1 4 -2 7l-2 6q-1 4 -2.5 7.5t-2.5 6.5l-67 188h-247l-70 -187l-1.5 -4.5t-0.5 -3.5q-2 -4 -3.5 -9t-2.5 -10q-3 -11 -5 -21t-2 -15v-1.5v-1.5q4 -9 15.5 -14.5t25.5 -10.5q2 0 4 -0.5t3 -1.5q5 -2 10 -3.5t9 -3.5
l27 -10h-273l22 8q7 2 15.5 5t16.5 6q17 6 32 14t20 17q3 5 5 10t4 9q2 3 3 6t2 7q2 4 3.5 8t3.5 9q13 28 25.5 58.5t25.5 62.5q7 16 14 32.5t14 33.5q52 129 94 241.5t52 143.5q3 10 5.5 18t4.5 16q0 3 1 5.5t1 5.5q2 5 3.5 11t2.5 12l67 1v0zM511 349l-101 262l-102 -262
h203v0zM514 789l-162 174l72 47l90 -221v0z" />
    <glyph glyph-name="aacute" unicode="&#xe1;" horiz-adv-x="833" 
d="M460 740q2 -8 4 -14.5t4 -12.5q1 -7 3 -13t4 -14q14 -43 41 -118.5t57 -156.5l4 -10l4 -10q36 -99 68.5 -182.5t43.5 -107.5q3 -8 6 -14t6 -13q2 -5 5 -10.5t6 -11.5q5 -10 20.5 -18t33.5 -15q4 -1 8 -3t8 -3q3 -1 5.5 -2.5t5.5 -2.5l21 -8h-296l26 10q6 1 13 4t15 6
q14 5 25.5 12t14.5 17v0.5t1 1.5v1.5v1.5q0 5 -2 13t-5 15q-1 4 -2 7l-2 6q-1 4 -2.5 7.5t-2.5 6.5l-67 188h-247l-70 -187l-1.5 -4.5t-0.5 -3.5q-2 -4 -3.5 -9t-2.5 -10q-3 -11 -5 -21t-2 -15v-1.5v-1.5q4 -9 15.5 -14.5t25.5 -10.5q2 0 4 -0.5t3 -1.5q5 -2 10 -3.5t9 -3.5
l27 -10h-273l22 8q7 2 15.5 5t16.5 6q17 6 32 14t20 17q3 5 5 10t4 9q2 3 3 6t2 7q2 4 3.5 8t3.5 9q13 28 25.5 58.5t25.5 62.5q7 16 14 32.5t14 33.5q52 129 94 241.5t52 143.5q3 10 5.5 18t4.5 16q0 3 1 5.5t1 5.5q2 5 3.5 11t2.5 12l67 1v0zM511 349l-101 262l-102 -262
h203v0zM514 960l-162 -174l90 221l72 -47v0z" />
    <glyph glyph-name="acircumflex" unicode="&#xe2;" horiz-adv-x="840" 
d="M460 740q2 -8 4 -14.5t4 -12.5q1 -7 3 -13t4 -14q14 -43 41 -118.5t57 -156.5l4 -10l4 -10q36 -99 68.5 -182.5t43.5 -107.5q3 -8 6 -14t6 -13q2 -5 5 -10.5t6 -11.5q5 -10 20.5 -18t33.5 -15q4 -1 8 -3t8 -3q3 -1 5.5 -2.5t5.5 -2.5l21 -8h-296l26 10q6 1 13 4t15 6
q14 5 25.5 12t14.5 17v0.5t1 1.5v1.5v1.5q0 5 -2 13t-5 15q-1 4 -2 7l-2 6q-1 4 -2.5 7.5t-2.5 6.5l-67 188h-247l-70 -187l-1.5 -4.5t-0.5 -3.5q-2 -4 -3.5 -9t-2.5 -10q-3 -11 -5 -21t-2 -15v-1.5v-1.5q4 -9 15.5 -14.5t25.5 -10.5q2 0 4 -0.5t3 -1.5q5 -2 10 -3.5t9 -3.5
l27 -10h-273l22 8q7 2 15.5 5t16.5 6q17 6 32 14t20 17q3 5 5 10t4 9q2 3 3 6t2 7q2 4 3.5 8t3.5 9q13 28 25.5 58.5t25.5 62.5q7 16 14 32.5t14 33.5q52 129 94 241.5t52 143.5q3 10 5.5 18t4.5 16q0 3 1 5.5t1 5.5q2 5 3.5 11t2.5 12l67 1v0zM511 349l-101 262l-102 -262
h203v0zM426 841l-132 -51l132 144l133 -140l-133 47v0z" />
    <glyph glyph-name="atilde" unicode="&#xe3;" horiz-adv-x="840" 
d="M460 740q2 -8 4 -14.5t4 -12.5q1 -7 3 -13t4 -14q14 -43 41 -118.5t57 -156.5l4 -10l4 -10q36 -99 68.5 -182.5t43.5 -107.5q3 -8 6 -14t6 -13q2 -5 5 -10.5t6 -11.5q5 -10 20.5 -18t33.5 -15q4 -1 8 -3t8 -3q3 -1 5.5 -2.5t5.5 -2.5l21 -8h-296l26 10q6 1 13 4t15 6
q14 5 25.5 12t14.5 17v0.5t1 1.5v1.5v1.5q0 5 -2 13t-5 15q-1 4 -2 7l-2 6q-1 4 -2.5 7.5t-2.5 6.5l-67 188h-247l-70 -187l-1.5 -4.5t-0.5 -3.5q-2 -4 -3.5 -9t-2.5 -10q-3 -11 -5 -21t-2 -15v-1.5v-1.5q4 -9 15.5 -14.5t25.5 -10.5q2 0 4 -0.5t3 -1.5q5 -2 10 -3.5t9 -3.5
l27 -10h-273l22 8q7 2 15.5 5t16.5 6q17 6 32 14t20 17q3 5 5 10t4 9q2 3 3 6t2 7q2 4 3.5 8t3.5 9q13 28 25.5 58.5t25.5 62.5q7 16 14 32.5t14 33.5q52 129 94 241.5t52 143.5q3 10 5.5 18t4.5 16q0 3 1 5.5t1 5.5q2 5 3.5 11t2.5 12l67 1v0zM511 349l-101 262l-102 -262
h203v0zM590 852q-11 -20 -27 -34t-34 -21q-8 -4 -15.5 -5.5t-14.5 -1.5q-19 0 -33 8t-27 18q-13 11 -27.5 19.5t-34.5 8.5h-0.5h-1.5q-10 0 -18 210.5t-14 463.5q-6 217 -10.5 407.5t-9.5 247.5q-6 78 -13 -197.5t-15 -1162.5l-31 -15l18 32q12 21 33.5 39.5t45.5 24.5
q5 1 9 2t8 1h1.5h1.5q18 0 31.5 -9t25.5 -19q11 -10 24 -18.5t30 -8.5h1.5h1.5q22 2 35 5.5t25 9.5q7 3 14.5 7t17.5 9l24 13l-21 -34v0z" />
    <glyph glyph-name="adieresis" unicode="&#xe4;" horiz-adv-x="843" 
d="M460 740q2 -8 4 -14.5t4 -12.5q1 -7 3 -13t4 -14q14 -43 41 -118.5t57 -156.5l4 -10l4 -10q36 -99 68.5 -182.5t43.5 -107.5q3 -8 6 -14t6 -13q2 -5 5 -10.5t6 -11.5q5 -10 20.5 -18t33.5 -15q4 -1 8 -3t8 -3q3 -1 5.5 -2.5t5.5 -2.5l21 -8h-296l26 10q6 1 13 4t15 6
q14 5 25.5 12t14.5 17v0.5t1 1.5v1.5v1.5q0 5 -2 13t-5 15q-1 4 -2 7l-2 6q-1 4 -2.5 7.5t-2.5 6.5l-67 188h-247l-70 -187l-1.5 -4.5t-0.5 -3.5q-2 -4 -3.5 -9t-2.5 -10q-3 -11 -5 -21t-2 -15v-1.5v-1.5q4 -9 15.5 -14.5t25.5 -10.5q2 0 4 -0.5t3 -1.5q5 -2 10 -3.5t9 -3.5
l27 -10h-273l22 8q7 2 15.5 5t16.5 6q17 6 32 14t20 17q3 5 5 10t4 9q2 3 3 6t2 7q2 4 3.5 8t3.5 9q13 28 25.5 58.5t25.5 62.5q7 16 14 32.5t14 33.5q52 129 94 241.5t52 143.5q3 10 5.5 18t4.5 16q0 3 1 5.5t1 5.5q2 5 3.5 11t2.5 12l67 1v0zM511 349l-101 262l-102 -262
h203v0zM370 938l44 -147l-143 46l99 101v0zM544 938l45 -147l-143 46l98 101v0z" />
    <glyph glyph-name="aring" unicode="&#xe5;" horiz-adv-x="830" 
d="M460 740q2 -8 4 -14.5t4 -12.5q1 -7 3 -13t4 -14q14 -43 41 -118.5t57 -156.5l4 -10l4 -10q36 -99 68.5 -182.5t43.5 -107.5q3 -8 6 -14t6 -13q2 -5 5 -10.5t6 -11.5q5 -10 20.5 -18t33.5 -15q4 -1 8 -3t8 -3q3 -1 5.5 -2.5t5.5 -2.5l21 -8h-296l26 10q6 1 13 4t15 6
q14 5 25.5 12t14.5 17v0.5t1 1.5v1.5v1.5q0 5 -2 13t-5 15q-1 4 -2 7l-2 6q-1 4 -2.5 7.5t-2.5 6.5l-67 188h-247l-70 -187l-1.5 -4.5t-0.5 -3.5q-2 -4 -3.5 -9t-2.5 -10q-3 -11 -5 -21t-2 -15v-1.5v-1.5q4 -9 15.5 -14.5t25.5 -10.5q2 0 4 -0.5t3 -1.5q5 -2 10 -3.5t9 -3.5
l27 -10h-273l22 8q7 2 15.5 5t16.5 6q17 6 32 14t20 17q3 5 5 10t4 9q2 3 3 6t2 7q2 4 3.5 8t3.5 9q13 28 25.5 58.5t25.5 62.5q7 16 14 32.5t14 33.5q52 129 94 241.5t52 143.5q3 10 5.5 18t4.5 16q0 3 1 5.5t1 5.5q2 5 3.5 11t2.5 12l67 1v0zM511 349l-101 262l-102 -262
h203v0zM426 963q36 -1 63 -24.5t27 -60.5v0v0v-1v0q-1 -37 -26.5 -63t-62.5 -26q-34 0 -59.5 24.5t-27.5 58.5v0.5v1.5v1.5v0.5q0 35 25.5 61t60.5 26v1zM484 876q0 23 -17.5 39t-40.5 16t-39.5 -17.5t-16.5 -40.5v0v0v-1v0q1 -22 17.5 -38t38.5 -16q24 0 41 17t17 40v1z
" />
    <glyph glyph-name="Otilde" unicode="&#xe6;" horiz-adv-x="1056" 
d="M533 740h452l2 -168l-14 40q-2 4 -3.5 8.5t-3.5 9.5q-5 13 -11 24t-17 19q-10 6 -21 9t-23 4h-8.5h-9.5l-122 1q-2 -1 -4 -1h-5q-12 0 -23.5 -1t-17.5 -7q-4 -4 -5 -12.5t-1 -17.5v-2.5v-2.5v-2.5v-2.5v-239h142q4 -1 7.5 -1h6.5q4 -1 7.5 -1h6.5q11 0 20.5 2t17.5 8
q2 1 3 2.5t2 2.5q4 3 6 6.5t5 6.5l2 4l2 4l20 43v-235l-8 23q-2 4 -4 9.5t-4 11.5v0.5v0.5q-6 17 -12.5 31.5t-17.5 19.5q-5 3 -10.5 5t-9.5 3q-7 2 -14.5 2h-15.5h-2.5h-2.5l-147 1v-246q0 -5 0.5 -11t1.5 -11q1 -11 4.5 -19.5t10.5 -11.5q8 -4 14.5 -5t13.5 -1h5.5t5.5 1
h5h6l164 1q3 -1 5.5 -1h5.5q1 -1 1.5 -1h1.5h3.5h3.5q5 0 10.5 1t11.5 4q8 4 13.5 15.5t10.5 26.5q1 3 2 6.5t3 6.5q1 6 3.5 12t4.5 11l13 32l-4 -158h-502l25 10q4 1 9 3l10 4q12 5 23.5 13t14.5 19q2 5 2.5 12.5t0.5 15.5v4.5v5.5q-1 2 -1 4.5v4.5v201h-264l-122 -191
q-4 -6 -7 -13t-5 -14q-4 -9 -5.5 -17.5t-1.5 -13.5v-0.5t1 -1.5v-1.5v-0.5q3 -9 14.5 -14.5t25.5 -10.5q2 0 4 -1t4 -1q5 -2 9.5 -3.5t8.5 -3.5l27 -10h-273l22 8q7 2 15.5 5t16.5 6q17 6 32 14t20 17q3 5 6 9.5t6 8.5q5 7 10 14.5l11 16.5q30 44 64.5 96t70.5 106
q3 4 6 8.5t6 9.5q78 118 143 220.5t74 131.5q3 10 5 18l4 16q1 4 1.5 7.5t0.5 7.5q1 4 1.5 9t1.5 10v1zM598 349l-2 342l-221 -342h223v0z" />
    <glyph glyph-name="ccedilla" unicode="&#xe7;" horiz-adv-x="764" 
d="M407 -13l-40 9q-140 32 -237 115.5t-102 246.5v6v7q0 167 122.5 274.5t285.5 115.5q16 1 30.5 1.5t27.5 -0.5q23 0 43.5 -1.5t40.5 -4.5q19 -2 37.5 -6.5t38.5 -10.5l28 -7l1 -199l-24 61q-2 4 -3.5 8.5t-3.5 8.5q-7 21 -16 39.5t-24 28.5q-2 2 -5.5 3.5t-8.5 2.5
q-18 7 -51 12.5t-69 7.5q-7 1 -13.5 1h-13.5h-5.5h-4.5q-3 -1 -5.5 -1h-5.5q-133 -6 -224.5 -98t-90.5 -235q1 -136 97 -233.5t239 -95.5q6 0 12 0.5t12 0.5q57 4 108 22.5t73 43.5q8 9 15 21t14 25t12.5 25t10.5 21l25 48l-42 -213l-36 -12q-33 -14 -47 -18t-23 -6
q-2 0 -3.5 -0.5t-3.5 -0.5q-5 0 -10.5 -0.5t-13.5 -1.5q-11 -2 -20.5 -2.5t-18.5 -0.5q-2 -1 -5 -1h-6q-10 0 -21.5 -0.5t-24.5 -2.5l-27 -5l-3 -52l12 4q5 1 9.5 2.5t8.5 1.5q3 1 6.5 1.5t7.5 0.5q38 0 65 -26t28 -62q0 -46 -28.5 -75.5t-72.5 -29.5q-17 0 -31.5 3.5
t-25.5 11.5l-16 11l15 20l14 -11q9 -8 20 -10.5t22 -2.5q29 0 49 22t20 51v1.5v1.5q-1 28 -20 47.5t-47 20.5h-3h-4q-3 0 -6.5 -0.5t-7.5 -0.5l-8 -2t-7 -2t-5.5 -1.5t-4.5 -1.5l-16 -6l5 84v0z" />
    <glyph glyph-name="egrave" unicode="&#xe8;" horiz-adv-x="592" 
d="M26 740h501l-1 -164l-14 40q-2 4 -3.5 9t-3.5 9q-5 14 -10.5 24.5t-17.5 18.5q-8 5 -18 8t-20 4q-6 0 -11.5 0.5t-11.5 0.5l-123 1q-2 -1 -4 -1h-5q-12 0 -23.5 -1t-17.5 -7q-4 -4 -5 -13.5t-1 -20.5v-0.5v-1.5v-2.5v-2.5v-239h142q6 -1 12 -1h12q12 0 22.5 1.5t19.5 8.5
q2 2 4 3.5t3 3.5q5 4 7.5 8t5.5 10l21 44v-235l-9 23q-1 3 -2.5 7t-2.5 8q-1 2 -1.5 3.5t-1.5 3.5q-5 16 -11.5 30.5t-17.5 20.5q-6 4 -12 6t-12 3t-12.5 1h-14.5h-2.5h-2.5l-147 1v-246q0 -5 0.5 -11t1.5 -11q2 -11 5.5 -19.5t9.5 -11.5q8 -4 14.5 -5t13.5 -1h5.5t5.5 1h5
h6l164 1q3 -1 6 -1h6q2 -1 5 -1h6q5 0 10 1t10 3q8 4 13.5 16t10.5 27q1 3 2 6.5t2 6.5q2 6 4.5 12t4.5 11l13 32l-5 -162h-530l23 7q8 1 18.5 4t21.5 6q10 4 20 7.5t18 7.5q5 2 9 5t6 5q5 6 7 13.5t3 15.5v6v6v9v8v542v9.5v9.5q0 10 -1.5 18.5t-8.5 16.5q-2 2 -6 5t-9 5
q-8 4 -18 7.5t-20 7.5q-11 3 -21.5 6t-18.5 5l-23 8v0zM400 791l-163 174l72 46l91 -220v0z" />
    <glyph glyph-name="eacute" unicode="&#xe9;" horiz-adv-x="592" 
d="M26 740h501l-1 -164l-14 40q-2 4 -3.5 9t-3.5 9q-5 14 -10.5 24.5t-17.5 18.5q-8 5 -18 8t-20 4q-6 0 -11.5 0.5t-11.5 0.5l-123 1q-2 -1 -4 -1h-5q-12 0 -23.5 -1t-17.5 -7q-4 -4 -5 -13.5t-1 -20.5v-0.5v-1.5v-2.5v-2.5v-239h142q6 -1 12 -1h12q12 0 22.5 1.5t19.5 8.5
q2 2 4 3.5t3 3.5q5 4 7.5 8t5.5 10l21 44v-235l-9 23q-1 3 -2.5 7t-2.5 8q-1 2 -1.5 3.5t-1.5 3.5q-5 16 -11.5 30.5t-17.5 20.5q-6 4 -12 6t-12 3t-12.5 1h-14.5h-2.5h-2.5l-147 1v-246q0 -5 0.5 -11t1.5 -11q2 -11 5.5 -19.5t9.5 -11.5q8 -4 14.5 -5t13.5 -1h5.5t5.5 1h5
h6l164 1q3 -1 6 -1h6q2 -1 5 -1h6q5 0 10 1t10 3q8 4 13.5 16t10.5 27q1 3 2 6.5t2 6.5q2 6 4.5 12t4.5 11l13 32l-5 -162h-530l23 7q8 1 18.5 4t21.5 6q10 4 20 7.5t18 7.5q5 2 9 5t6 5q5 6 7 13.5t3 15.5v6v6v9v8v542v9.5v9.5q0 10 -1.5 18.5t-8.5 16.5q-2 2 -6 5t-9 5
q-8 4 -18 7.5t-20 7.5q-11 3 -21.5 6t-18.5 5l-23 8v0zM413 963l-163 -174l90 221l73 -47v0z" />
    <glyph glyph-name="ecircumflex" unicode="&#xea;" horiz-adv-x="598" 
d="M26 740h501l-1 -164l-14 40q-2 4 -3.5 9t-3.5 9q-5 14 -10.5 24.5t-17.5 18.5q-8 5 -18 8t-20 4q-6 0 -11.5 0.5t-11.5 0.5l-123 1q-2 -1 -4 -1h-5q-12 0 -23.5 -1t-17.5 -7q-4 -4 -5 -13.5t-1 -20.5v-0.5v-1.5v-2.5v-2.5v-239h142q6 -1 12 -1h12q12 0 22.5 1.5t19.5 8.5
q2 2 4 3.5t3 3.5q5 4 7.5 8t5.5 10l21 44v-235l-9 23q-1 3 -2.5 7t-2.5 8q-1 2 -1.5 3.5t-1.5 3.5q-5 16 -11.5 30.5t-17.5 20.5q-6 4 -12 6t-12 3t-12.5 1h-14.5h-2.5h-2.5l-147 1v-246q0 -5 0.5 -11t1.5 -11q2 -11 5.5 -19.5t9.5 -11.5q8 -4 14.5 -5t13.5 -1h5.5t5.5 1h5
h6l164 1q3 -1 6 -1h6q2 -1 5 -1h6q5 0 10 1t10 3q8 4 13.5 16t10.5 27q1 3 2 6.5t2 6.5q2 6 4.5 12t4.5 11l13 32l-5 -162h-530l23 7q8 1 18.5 4t21.5 6q10 4 20 7.5t18 7.5q5 2 9 5t6 5q5 6 7 13.5t3 15.5v6v6v9v8v542v9.5v9.5q0 10 -1.5 18.5t-8.5 16.5q-2 2 -6 5t-9 5
q-8 4 -18 7.5t-20 7.5q-11 3 -21.5 6t-18.5 5l-23 8v0zM326 843l-132 -51l132 144l133 -140l-133 47v0z" />
    <glyph glyph-name="edieresis" unicode="&#xeb;" horiz-adv-x="595" 
d="M26 740h501l-1 -164l-14 40q-2 4 -3.5 9t-3.5 9q-5 14 -10.5 24.5t-17.5 18.5q-8 5 -18 8t-20 4q-6 0 -11.5 0.5t-11.5 0.5l-123 1q-2 -1 -4 -1h-5q-12 0 -23.5 -1t-17.5 -7q-4 -4 -5 -13.5t-1 -20.5v-0.5v-1.5v-2.5v-2.5v-239h142q6 -1 12 -1h12q12 0 22.5 1.5t19.5 8.5
q2 2 4 3.5t3 3.5q5 4 7.5 8t5.5 10l21 44v-235l-9 23q-1 3 -2.5 7t-2.5 8q-1 2 -1.5 3.5t-1.5 3.5q-5 16 -11.5 30.5t-17.5 20.5q-6 4 -12 6t-12 3t-12.5 1h-14.5h-2.5h-2.5l-147 1v-246q0 -5 0.5 -11t1.5 -11q2 -11 5.5 -19.5t9.5 -11.5q8 -4 14.5 -5t13.5 -1h5.5t5.5 1h5
h6l164 1q3 -1 6 -1h6q2 -1 5 -1h6q5 0 10 1t10 3q8 4 13.5 16t10.5 27q1 3 2 6.5t2 6.5q2 6 4.5 12t4.5 11l13 32l-5 -162h-530l23 7q8 1 18.5 4t21.5 6q10 4 20 7.5t18 7.5q5 2 9 5t6 5q5 6 7 13.5t3 15.5v6v6v9v8v542v9.5v9.5q0 10 -1.5 18.5t-8.5 16.5q-2 2 -6 5t-9 5
q-8 4 -18 7.5t-20 7.5q-11 3 -21.5 6t-18.5 5l-23 8v0zM250 938l45 -146l-144 45l99 101v0zM424 938l45 -146l-143 45l98 101v0z" />
    <glyph glyph-name="igrave" unicode="&#xec;" horiz-adv-x="390" 
d="M237 642v-545q0 -17 1.5 -29.5t11.5 -24.5q6 -8 21.5 -13.5t32.5 -9.5q3 -1 5.5 -2t5.5 -1q8 -2 15 -4.5t13 -4.5l22 -8h-339l23 7q8 1 18.5 4t21.5 6q10 4 20 7.5t18 7.5q5 2 9 5t6 5q3 5 5.5 9.5t3.5 9.5t1.5 10t0.5 9v5.5v4.5q-1 3 -1 5.5v4.5v539v3.5t1 5.5v5v6
q0 4 -0.5 7.5t-1.5 7.5q-1 6 -3 11.5t-6 10.5q-2 2 -6 5t-9 5q-8 4 -18 7.5t-20 7.5q-11 3 -21.5 6t-18.5 5l-23 8h339l-22 -9q-6 -4 -14 -6t-17 -4q-2 -1 -4 -1.5t-4 -1.5q-17 -4 -32.5 -9.5t-21.5 -12.5q-1 -2 -2.5 -3.5t-2.5 -3.5q-6 -11 -7 -22.5t-1 -25.5v1zM282 789
l-163 174l72 47l91 -221v0z" />
    <glyph glyph-name="iacute" unicode="&#xed;" horiz-adv-x="390" 
d="M237 642v-545q0 -17 1.5 -29.5t11.5 -24.5q6 -8 21.5 -13.5t32.5 -9.5q3 -1 5.5 -2t5.5 -1q8 -2 15 -4.5t13 -4.5l22 -8h-339l23 7q8 1 18.5 4t21.5 6q10 4 20 7.5t18 7.5q5 2 9 5t6 5q3 5 5.5 9.5t3.5 9.5t1.5 10t0.5 9v5.5v4.5q-1 3 -1 5.5v4.5v539v3.5t1 5.5v5v6
q0 4 -0.5 7.5t-1.5 7.5q-1 6 -3 11.5t-6 10.5q-2 2 -6 5t-9 5q-8 4 -18 7.5t-20 7.5q-11 3 -21.5 6t-18.5 5l-23 8h339l-22 -9q-6 -4 -14 -6t-17 -4q-2 -1 -4 -1.5t-4 -1.5q-17 -4 -32.5 -9.5t-21.5 -12.5q-1 -2 -2.5 -3.5t-2.5 -3.5q-6 -11 -7 -22.5t-1 -25.5v1zM274 964
l-163 -174l90 221l73 -47v0z" />
    <glyph glyph-name="icircumflex" unicode="&#xee;" horiz-adv-x="390" 
d="M237 642v-545q0 -17 1.5 -29.5t11.5 -24.5q6 -8 21.5 -13.5t32.5 -9.5q3 -1 5.5 -2t5.5 -1q8 -2 15 -4.5t13 -4.5l22 -8h-339l23 7q8 1 18.5 4t21.5 6q10 4 20 7.5t18 7.5q5 2 9 5t6 5q3 5 5.5 9.5t3.5 9.5t1.5 10t0.5 9v5.5v4.5q-1 3 -1 5.5v4.5v539v3.5t1 5.5v5v6
q0 4 -0.5 7.5t-1.5 7.5q-1 6 -3 11.5t-6 10.5q-2 2 -6 5t-9 5q-8 4 -18 7.5t-20 7.5q-11 3 -21.5 6t-18.5 5l-23 8h339l-22 -9q-6 -4 -14 -6t-17 -4q-2 -1 -4 -1.5t-4 -1.5q-17 -4 -32.5 -9.5t-21.5 -12.5q-1 -2 -2.5 -3.5t-2.5 -3.5q-6 -11 -7 -22.5t-1 -25.5v1zM191 840
l-132 -51l132 144l133 -140l-133 47v0z" />
    <glyph glyph-name="idieresis" unicode="&#xef;" horiz-adv-x="390" 
d="M237 642v-545q0 -17 1.5 -29.5t11.5 -24.5q6 -8 21.5 -13.5t32.5 -9.5q3 -1 5.5 -2t5.5 -1q8 -2 15 -4.5t13 -4.5l22 -8h-339l23 7q8 1 18.5 4t21.5 6q10 4 20 7.5t18 7.5q5 2 9 5t6 5q3 5 5.5 9.5t3.5 9.5t1.5 10t0.5 9v5.5v4.5q-1 3 -1 5.5v4.5v539v3.5t1 5.5v5v6
q0 4 -0.5 7.5t-1.5 7.5q-1 6 -3 11.5t-6 10.5q-2 2 -6 5t-9 5q-8 4 -18 7.5t-20 7.5q-11 3 -21.5 6t-18.5 5l-23 8h339l-22 -9q-6 -4 -14 -6t-17 -4q-2 -1 -4 -1.5t-4 -1.5q-17 -4 -32.5 -9.5t-21.5 -12.5q-1 -2 -2.5 -3.5t-2.5 -3.5q-6 -11 -7 -22.5t-1 -25.5v1zM138 936
l45 -146l-143 45l98 101v0zM313 936l45 -146l-144 45l99 101v0z" />
    <glyph glyph-name="glyph233" unicode="&#xf0;" horiz-adv-x="500" 
 />
    <glyph glyph-name="ntilde" unicode="&#xf1;" horiz-adv-x="931" 
d="M769 -2q-78 87 -99.5 110.5t-31.5 34.5l-14 14t-27 28l-42 44t-43 45q-4 5 -9 9.5t-9 9.5q-98 102 -186 190.5t-126 125.5v-432v-9.5v-11.5q-1 -6 -1 -13.5v-15.5v-12v-12q1 -16 3.5 -32t7.5 -26t19.5 -17t30.5 -13q5 -2 9 -3.5t8 -2.5l28 -9h-261l17 8q5 1 9.5 3t9.5 4
q17 7 32.5 15t21.5 19q5 9 6.5 31.5t2.5 48.5v24v22v565h58q11 -14 26 -33.5t40 -45.5q42 -43 92.5 -95t102.5 -106q106 -111 198.5 -207t113.5 -115v426v15.5v17.5v17.5v16.5q0 20 -1 36.5t-5 23.5q-5 10 -19.5 17t-30.5 13l-3 1.5t-2 0.5l-10 4l-10 4l-17 9h261l-28 -12
q-3 -2 -5.5 -3t-5.5 -2q-16 -7 -28.5 -13.5t-22.5 -16.5q-5 -5 -7.5 -23.5t-3.5 -39.5q-1 -12 -1 -23.5v-20.5v-15.5v-5.5v-567h-48v0zM633 850q-10 -19 -25.5 -32.5t-32.5 -21.5q-8 -4 -16.5 -6t-16.5 -2q-20 0 -34.5 8.5t-27.5 19.5q-13 10 -27 18t-33 8h-0.5h-1.5
q-19 -1 -30.5 -5t-22.5 -10q-6 -4 -13 -8t-15 -8l-31 -15l18 32q13 22 37 41.5t50 24.5q3 0 5.5 0.5t4.5 0.5h1.5h1.5q18 0 31 -8.5t25 -18.5q0 -1 0.5 -1t0.5 -1q12 -10 24 -18t29 -8h1.5h1.5q23 2 36.5 5.5t24.5 9.5q7 3 14.5 7t17.5 9l23 13l-20 -34v0z" />
    <glyph glyph-name="ograve" unicode="&#xf2;" horiz-adv-x="853" 
d="M405 754q2 -1 4.5 -1h5.5h4.5h4.5q157 0 272 -103t119 -277q2 -175 -121 -280.5t-290 -103.5q-157 1 -266.5 112.5t-109.5 271.5q0 156 111 265t266 115v1zM404 698q-136 -5 -215.5 -100.5t-78.5 -222.5q2 -122 86 -223t214 -109h5.5h4.5q2 -1 4.5 -1h5.5q122 0 212 87.5
t90 225.5q0 135 -91.5 239t-225.5 103h-2.5h-2.5h-3h-3v1zM503 791l-163 174l73 46l90 -220v0z" />
    <glyph glyph-name="oacute" unicode="&#xf3;" horiz-adv-x="843" 
d="M405 754q2 -1 4.5 -1h5.5h4.5h4.5q157 0 272 -103t119 -277q2 -175 -121 -280.5t-290 -103.5q-157 1 -266.5 112.5t-109.5 271.5q0 156 111 265t266 115v1zM404 698q-136 -5 -215.5 -100.5t-78.5 -222.5q2 -122 86 -223t214 -109h5.5h4.5q2 -1 4.5 -1h5.5q122 0 212 87.5
t90 225.5q0 135 -91.5 239t-225.5 103h-2.5h-2.5h-3h-3v1zM506 963l-163 -174l91 221l72 -47v0z" />
    <glyph glyph-name="ocircumflex" unicode="&#xf4;" horiz-adv-x="857" 
d="M405 754q2 -1 4.5 -1h5.5h4.5h4.5q157 0 272 -103t119 -277q2 -175 -121 -280.5t-290 -103.5q-157 1 -266.5 112.5t-109.5 271.5q0 156 111 265t266 115v1zM404 698q-136 -5 -215.5 -100.5t-78.5 -222.5q2 -122 86 -223t214 -109h5.5h4.5q2 -1 4.5 -1h5.5q122 0 212 87.5
t90 225.5q0 135 -91.5 239t-225.5 103h-2.5h-2.5h-3h-3v1zM424 842l-132 -51l132 144l134 -140l-134 47v0z" />
    <glyph glyph-name="otilde" unicode="&#xf5;" horiz-adv-x="846" 
d="M405 754q2 -1 4.5 -1h5.5h4.5h4.5q157 0 272 -103t119 -277q2 -175 -121 -280.5t-290 -103.5q-157 1 -266.5 112.5t-109.5 271.5q0 156 111 265t266 115v1zM404 698q-136 -5 -215.5 -100.5t-78.5 -222.5q2 -122 86 -223t214 -109h5.5h4.5q2 -1 4.5 -1h5.5q122 0 212 87.5
t90 225.5q0 135 -91.5 239t-225.5 103h-2.5h-2.5h-3h-3v1zM595 853q-11 -20 -27 -34t-34 -22q-8 -3 -15.5 -4.5t-14.5 -1.5q-20 0 -34.5 8.5t-28.5 19.5q-13 10 -27 18t-33 8v0v0h-1v0q-19 -1 -30.5 -5t-21.5 -10q-6 -3 -13 -7.5t-15 -8.5l-32 -16l18 33q12 21 34 39t46 24
q4 2 8.5 2.5t8.5 0.5h1.5h1.5q18 0 30.5 -8.5t24.5 -18.5q1 0 1 -0.5t1 -0.5q11 -10 23.5 -18t28.5 -8h1.5h1.5h0.5h1.5q22 1 35 5t25 10q7 3 14.5 7t17.5 9l24 12l-21 -33v0z" />
    <glyph glyph-name="odieresis" unicode="&#xf6;" horiz-adv-x="850" 
d="M405 754q2 -1 4.5 -1h5.5h4.5h4.5q157 0 272 -103t119 -277q2 -175 -121 -280.5t-290 -103.5q-157 1 -266.5 112.5t-109.5 271.5q0 156 111 265t266 115v1zM404 698q-136 -5 -215.5 -100.5t-78.5 -222.5q2 -122 86 -223t214 -109h5.5h4.5q2 -1 4.5 -1h5.5q122 0 212 87.5
t90 225.5q0 135 -91.5 239t-225.5 103h-2.5h-2.5h-3h-3v1zM360 935l45 -146l-144 45l99 101v0zM534 935l45 -146l-143 45l98 101v0z" />
    <glyph glyph-name="Aacute" unicode="&#xf7;" 
 />
    <glyph glyph-name="OE" unicode="&#xf8;" horiz-adv-x="855" 
d="M405 754q5 -1 9.5 -1h8.5q51 0 98.5 -11.5t89.5 -32.5l24 34h100l-55 -78q60 -50 96.5 -124t38.5 -168q2 -175 -121 -280.5t-290 -103.5q-47 0 -91.5 11t-83.5 33l-20 -27h-97l51 72q-62 52 -98.5 129t-36.5 166q0 156 111 265t266 115v1zM268 90q32 -21 67.5 -33
t74.5 -14h4.5h5.5q2 -1 4.5 -1h4.5q122 0 212.5 87.5t90.5 225.5q0 71 -26 135t-72 111l-366 -511v0zM268 90l366 512l-366 -512v0zM571 653q-34 20 -74 32t-83 12h-2.5h-2.5h-2.5h-2.5q-136 -4 -215.5 -99.5t-78.5 -222.5q0 -65 26 -127t71 -109l364 514v0zM571 653
l-364 -513l364 513v0z" />
    <glyph glyph-name="ugrave" unicode="&#xf9;" horiz-adv-x="884" 
d="M726 603v-313q0 -173 -89 -239.5t-203 -65.5q-109 1 -195.5 69t-86.5 223v362v3.5t1 5.5v5v6q0 4 -0.5 7.5t-1.5 7.5q-1 6 -3 11.5t-6 10.5q-2 2 -6 5t-9 5q-8 4 -18 7.5t-20 7.5q-11 3 -21.5 6t-18.5 5l-23 8h339l-22 -9q-6 -4 -14 -6t-17 -4q-2 -1 -4 -1.5t-4 -1.5
q-17 -4 -32.5 -9.5t-21.5 -12.5q-1 -2 -2.5 -3.5t-2.5 -3.5q-6 -11 -7 -22.5t-1 -25.5v-367q0 -120 54.5 -172t139.5 -65q8 -1 15 -1.5t14 -0.5q83 0 146 61.5t63 164.5v374v0.5v1.5v14.5t-2 15.5q-1 6 -3.5 12t-6.5 12q-2 2 -6 4.5t-10 5.5q-7 3 -16.5 6.5t-19.5 7.5
q-12 3 -22.5 7t-18.5 7l-23 11h312l-20 -11q-8 -5 -18.5 -8t-21.5 -7q-17 -5 -32.5 -10.5t-20.5 -12.5q-4 -5 -6.5 -17.5t-4.5 -26.5q-2 -15 -2.5 -27.5t-0.5 -17.5v1zM521 791l-163 175l73 46l90 -221v0z" />
    <glyph glyph-name="uacute" unicode="&#xfa;" horiz-adv-x="893" 
d="M726 607v-312q0 -173 -89 -239.5t-203 -65.5q-109 1 -195.5 69t-86.5 223v362v3.5t1 5.5v5v6q0 4 -0.5 7.5t-1.5 7.5q-1 6 -3 11.5t-6 10.5q-2 2 -5 4.5t-8 4.5q-8 4 -18.5 8t-21.5 7q-11 4 -21.5 7t-18.5 5l-23 8h339l-22 -9q-6 -3 -13 -5.5t-15 -4.5q-3 0 -5.5 -1
t-5.5 -2q-17 -4 -32.5 -9.5t-21.5 -13.5q-10 -12 -11.5 -24.5t-1.5 -29.5v-367q0 -120 54.5 -172t139.5 -65q8 -1 15 -1.5t14 -0.5q83 0 146 61t63 165v374v0.5v1.5v14.5t-2 15.5q-1 6 -3.5 12t-6.5 12q-2 2 -6 4.5t-10 5.5q-7 3 -16.5 6.5t-19.5 7.5q-12 3 -22.5 7t-18.5 7
l-23 11h312l-20 -11q-8 -5 -18.5 -8t-21.5 -7q-17 -5 -32.5 -10.5t-20.5 -12.5q-4 -5 -6.5 -17.5t-4.5 -27.5q-2 -14 -2.5 -27t-0.5 -18v1zM534 966l-163 -174l90 221l73 -47v0z" />
    <glyph glyph-name="ucircumflex" unicode="&#xfb;" horiz-adv-x="893" 
d="M726 603v-313q0 -173 -89 -239.5t-203 -65.5q-109 1 -195.5 69t-86.5 223v362v3.5t1 5.5v5v6q0 4 -0.5 7.5t-1.5 7.5q-1 6 -3 11.5t-6 10.5q-2 2 -6 5t-9 5q-8 4 -18 7.5t-20 7.5q-11 3 -21.5 6t-18.5 5l-23 8h339l-22 -9q-6 -4 -14 -6t-17 -4q-2 -1 -4 -1.5t-4 -1.5
q-17 -4 -32.5 -9.5t-21.5 -12.5q-1 -2 -2.5 -3.5t-2.5 -3.5q-6 -11 -7 -22.5t-1 -25.5v-367q0 -120 54.5 -172t139.5 -65q8 -1 15 -1.5t14 -0.5q83 0 146 61.5t63 164.5v374v0.5v1.5v14.5t-2 15.5q-1 6 -3.5 12t-6.5 12q-2 2 -6 4.5t-10 5.5q-7 3 -16.5 6.5t-19.5 7.5
q-12 3 -22.5 7t-18.5 7l-23 11h312l-20 -11q-8 -5 -18.5 -8t-21.5 -7q-17 -5 -32.5 -10.5t-20.5 -12.5q-4 -5 -6.5 -17.5t-4.5 -26.5q-2 -15 -2.5 -27.5t-0.5 -17.5v1zM447 841l-132 -51l132 144l134 -140l-134 47v0z" />
    <glyph glyph-name="udieresis" unicode="&#xfc;" horiz-adv-x="897" 
d="M726 603v-313q0 -173 -89 -239.5t-203 -65.5q-109 1 -195.5 69t-86.5 223v362v3.5t1 5.5v5v6q0 4 -0.5 7.5t-1.5 7.5q-1 6 -3 11.5t-6 10.5q-2 2 -6 5t-9 5q-8 4 -18 7.5t-20 7.5q-11 3 -21.5 6t-18.5 5l-23 8h339l-22 -9q-6 -4 -14 -6t-17 -4q-2 -1 -4 -1.5t-4 -1.5
q-17 -4 -32.5 -9.5t-21.5 -12.5q-1 -2 -2.5 -3.5t-2.5 -3.5q-6 -11 -7 -22.5t-1 -25.5v-367q0 -120 54.5 -172t139.5 -65q8 -1 15 -1.5t14 -0.5q83 0 146 61.5t63 164.5v374v0.5v1.5v14.5t-2 15.5q-1 6 -3.5 12t-6.5 12q-2 2 -6 4.5t-10 5.5q-7 3 -16.5 6.5t-19.5 7.5
q-12 3 -22.5 7t-18.5 7l-23 11h312l-20 -11q-8 -5 -18.5 -8t-21.5 -7q-17 -5 -32.5 -10.5t-20.5 -12.5q-4 -5 -6.5 -17.5t-4.5 -26.5q-2 -15 -2.5 -27.5t-0.5 -17.5v1zM394 937l45 -146l-143 45l98 101v0zM569 937l44 -146l-143 45l99 101v0z" />
    <glyph glyph-name="yacute" unicode="&#xfd;" 
 />
    <glyph glyph-name="glyph237" unicode="&#xfe;" horiz-adv-x="500" 
 />
    <glyph glyph-name="Egrave" unicode="&#xff;" horiz-adv-x="773" 
d="M350 350l-65 123q-7 13 -15.5 28.5t-18.5 30.5q-5 9 -10.5 17.5t-10.5 16.5q-13 20 -25.5 38t-22.5 32q-15 21 -33 37t-37 27q-11 7 -22 12.5t-21 9.5l-39 19l36 8q3 0 7.5 0.5t8.5 -0.5q14 0 33 -3.5t39 -10.5q19 -7 37 -16.5t32 -22.5q20 -19 38.5 -42t34.5 -46
q14 -20 25.5 -40t21.5 -37l59 -106l116 202q2 2 3.5 4.5t2.5 5.5q9 16 14.5 30t4.5 20v1.5v1.5q-2 5 -5.5 9t-9.5 8q-9 5 -23 10.5t-36 14.5l-17 8h283l-21 -8q-5 -3 -10 -4.5t-10 -3.5q-10 -3 -20.5 -6.5t-21.5 -8.5q-7 -4 -15 -9t-16 -12q-6 -5 -11 -12.5t-10 -15.5
q-4 -7 -8 -14.5t-9 -15.5l-148 -251l-1 -282q0 -15 1.5 -26.5t8.5 -21.5q1 -2 2 -3t2 -3q6 -8 21.5 -13.5t32.5 -9.5q3 -1 5.5 -2t5.5 -1q7 -2 14.5 -4.5l13.5 -4.5l22 -8h-339l23 7q8 1 18.5 4t21.5 6q10 4 20 7.5t18 7.5q5 2 9 5t6 5q3 5 5.5 9.5t3.5 9.5t1.5 10t0.5 9
v5.5v4.5q-1 3 -1 5.5v4.5v250v0zM329 937l45 -147l-143 45l98 102v0zM504 937l44 -147l-143 45l99 102v0z" />
    <glyph glyph-name="Abreve" unicode="&#x102;" 
 />
    <glyph glyph-name="abreve" unicode="&#x103;" 
 />
    <glyph glyph-name="Aogonek" unicode="&#x104;" 
 />
    <glyph glyph-name="aogonek" unicode="&#x105;" 
 />
    <glyph glyph-name="Cacute" unicode="&#x106;" 
 />
    <glyph glyph-name="cacute" unicode="&#x107;" 
 />
    <glyph glyph-name="Ccaron" unicode="&#x10c;" 
 />
    <glyph glyph-name="ccaron" unicode="&#x10d;" 
 />
    <glyph glyph-name="Dcaron" unicode="&#x10e;" 
 />
    <glyph glyph-name="dcaron" unicode="&#x10f;" 
 />
    <glyph glyph-name="Dcroat" unicode="&#x110;" 
 />
    <glyph glyph-name="dcroat" unicode="&#x111;" 
 />
    <glyph glyph-name="Eogonek" unicode="&#x118;" 
 />
    <glyph glyph-name="eogonek" unicode="&#x119;" 
 />
    <glyph glyph-name="Ecaron" unicode="&#x11a;" 
 />
    <glyph glyph-name="ecaron" unicode="&#x11b;" 
 />
    <glyph glyph-name="Gbreve" unicode="&#x11e;" 
 />
    <glyph glyph-name="gbreve" unicode="&#x11f;" 
 />
    <glyph glyph-name="Idotaccent" unicode="&#x130;" 
 />
    <glyph glyph-name="thorn" unicode="&#x131;" horiz-adv-x="389" 
d="M237 642v-545q0 -17 1.5 -29.5t11.5 -24.5q6 -8 21.5 -13.5t32.5 -9.5q3 -1 5.5 -2t5.5 -1q8 -2 15 -4.5t13 -4.5l22 -8h-339l23 7q8 1 18.5 4t21.5 6q10 4 20 7.5t18 7.5q5 2 9 5t6 5q3 5 5.5 9.5t3.5 9.5t1.5 10t0.5 9v5.5v4.5q-1 3 -1 5.5v4.5v539v3.5t1 5.5v5v6
q0 4 -0.5 7.5t-1.5 7.5q-1 6 -3 11.5t-6 10.5q-2 2 -6 5t-9 5q-8 4 -18 7.5t-20 7.5q-11 3 -21.5 6t-18.5 5l-23 8h339l-22 -9q-6 -4 -14 -6t-17 -4q-2 -1 -4 -1.5t-4 -1.5q-17 -4 -32.5 -9.5t-21.5 -12.5q-1 -2 -2.5 -3.5t-2.5 -3.5q-6 -11 -7 -22.5t-1 -25.5v1z" />
    <glyph glyph-name="Lacute" unicode="&#x139;" 
 />
    <glyph glyph-name="lacute" unicode="&#x13a;" 
 />
    <glyph glyph-name="Lcaron" unicode="&#x13d;" 
 />
    <glyph glyph-name="lcaron" unicode="&#x13e;" 
 />
    <glyph glyph-name="Ldot" unicode="&#x13f;" 
 />
    <glyph glyph-name="ldot" unicode="&#x140;" 
 />
    <glyph glyph-name="glyph225" unicode="&#x141;" horiz-adv-x="500" 
 />
    <glyph glyph-name="glyph226" unicode="&#x142;" horiz-adv-x="500" 
 />
    <glyph glyph-name="Nacute" unicode="&#x143;" 
 />
    <glyph glyph-name="nacute" unicode="&#x144;" 
 />
    <glyph glyph-name="Ncaron" unicode="&#x147;" 
 />
    <glyph glyph-name="ncaron" unicode="&#x148;" 
 />
    <glyph glyph-name="Ohungarumlaut" unicode="&#x150;" 
 />
    <glyph glyph-name="ohungarumlaut" unicode="&#x151;" 
 />
    <glyph glyph-name="fi" unicode="&#x152;" horiz-adv-x="1168" 
d="M734 0v134q-57 -70 -144 -107.5t-186 -37.5q-157 1 -266.5 112.5t-109.5 271.5q0 156 111 265t266 115h9.5h8.5q93 0 174.5 -37.5t136.5 -106.5v131h373v-164l-15 40q-1 3 -2.5 7t-2.5 8q-5 14 -11 26t-19 20q-10 6 -21.5 9t-23.5 4h-8h-8l-122 1q-2 -1 -4 -1h-5
q-12 0 -23.5 -1t-18.5 -7q-4 -4 -4.5 -13.5t-0.5 -20.5v-0.5v-0.5v-2.5v-3.5v-239h142q6 -1 12 -1h12q12 0 22.5 1.5t19.5 8.5q2 2 4 3.5t3 3.5q3 3 5.5 6t4.5 8q0 1 0.5 2t1.5 2l21 44v-235l-9 23q-1 1 -1.5 2.5t-0.5 2.5q-1 4 -2.5 8.5t-2.5 8.5q-5 16 -12 30.5t-18 20.5
q-5 3 -10 5t-10 3q-7 2 -14.5 2h-16.5h-2.5h-2.5l-146 1v-246q0 -5 0.5 -11t1.5 -11q1 -11 4.5 -19.5t9.5 -11.5q4 -2 7.5 -3t7.5 -2q3 -1 6.5 -1h7.5h5.5t5.5 1h5h6l164 1q3 -1 6 -1h5q3 -1 5.5 -1h5.5h5.5t4.5 1q2 0 4.5 1t5.5 2q9 4 14.5 16.5t10.5 27.5q1 3 1.5 6t1.5 6
q2 6 4.5 12t4.5 11l14 32l-5 -162h-403v0zM110 376q2 -123 86 -224t214 -109h4.5h5.5q2 -1 4.5 -1h4.5q122 0 212.5 87.5t90.5 225.5q0 135 -91 238.5t-225 103.5h-6h-6q-136 -4 -215.5 -99.5t-78.5 -222.5v1z" />
    <glyph glyph-name="fl" unicode="&#x153;" horiz-adv-x="1174" 
d="M734 0v134q-57 -70 -144 -107.5t-186 -37.5q-157 1 -266.5 112.5t-109.5 271.5q0 156 111 265t266 115h9.5h8.5q93 0 174.5 -37.5t136.5 -106.5v131h373v-164l-15 40q-1 3 -2.5 7t-2.5 8q-5 14 -11 26t-19 20q-10 6 -21.5 9t-23.5 4h-8h-8l-122 1q-2 -1 -4 -1h-5
q-12 0 -23.5 -1t-18.5 -7q-4 -4 -4.5 -13.5t-0.5 -20.5v-0.5v-0.5v-2.5v-3.5v-239h142q6 -1 12 -1h12q12 0 22.5 1.5t19.5 8.5q2 2 4 3.5t3 3.5q3 3 5.5 6t4.5 8q0 1 0.5 2t1.5 2l21 44v-235l-9 23q-1 1 -1.5 2.5t-0.5 2.5q-1 4 -2.5 8.5t-2.5 8.5q-5 16 -12 30.5t-18 20.5
q-5 3 -10 5t-10 3q-7 2 -14.5 2h-16.5h-2.5h-2.5l-146 1v-246q0 -5 0.5 -11t1.5 -11q1 -11 4.5 -19.5t9.5 -11.5q4 -2 7.5 -3t7.5 -2q3 -1 6.5 -1h7.5h5.5t5.5 1h5h6l164 1q3 -1 6 -1h5q3 -1 5.5 -1h5.5h5.5t4.5 1q2 0 4.5 1t5.5 2q9 4 14.5 16.5t10.5 27.5q1 3 1.5 6t1.5 6
q2 6 4.5 12t4.5 11l14 32l-5 -162h-403v0zM404 698q-136 -5 -215.5 -100.5t-78.5 -222.5q2 -122 86 -223t214 -109h5.5h4.5q2 -1 4.5 -1h5.5q122 0 212 87.5t90 225.5q0 135 -91.5 239t-225.5 103h-2.5h-2.5h-3h-3v1z" />
    <glyph glyph-name="Racute" unicode="&#x154;" 
 />
    <glyph glyph-name="racute" unicode="&#x155;" 
 />
    <glyph glyph-name="Rcaron" unicode="&#x158;" 
 />
    <glyph glyph-name="rcaron" unicode="&#x159;" 
 />
    <glyph glyph-name="Sacute" unicode="&#x15a;" 
 />
    <glyph glyph-name="sacute" unicode="&#x15b;" 
 />
    <glyph glyph-name="Scedilla" unicode="&#x15e;" 
 />
    <glyph glyph-name="scedilla" unicode="&#x15f;" 
 />
    <glyph glyph-name="glyph227" unicode="&#x160;" horiz-adv-x="490" 
d="M260 755q36 -1 69.5 -5.5t55.5 -10.5q2 0 4.5 -0.5t4.5 -1.5l20 -5l2 -193l-42 102q-14 35 -43 46.5t-75 13.5h-2h-2h-2h-2q-61 0 -102.5 -41.5t-41.5 -99.5q0 -38 24.5 -65.5t53.5 -46.5q16 -10 30.5 -17.5t25.5 -12.5q8 -4 15.5 -8t15.5 -8q73 -37 129.5 -81t58.5 -127
q2 -100 -65 -153t-171 -54h-10t-10 1q-17 1 -34 3.5t-31 5.5q-12 3 -22 5t-16 3l-43 12l-5 190l34 -88q14 -38 44.5 -54t64.5 -21q6 -1 11.5 -1.5t10.5 -1.5q3 0 5.5 -0.5t4.5 -0.5h4.5h5.5q59 0 104.5 36t44.5 92v2v2v1v2q-3 53 -35.5 81.5t-77.5 51.5q-13 7 -26.5 14
t-27.5 15q-18 10 -34.5 19t-32.5 18q-50 29 -82 65t-36 106v2.5v2.5v2.5v2.5q0 93 70.5 145.5t157.5 53.5v1zM118 977l132 -51l134 47l-134 -140l-132 144v0z" />
    <glyph glyph-name="glyph228" unicode="&#x161;" horiz-adv-x="500" 
 />
    <glyph glyph-name="uni0162" unicode="&#x162;" 
 />
    <glyph glyph-name="uni0163" unicode="&#x163;" 
 />
    <glyph glyph-name="Tcaron" unicode="&#x164;" 
 />
    <glyph glyph-name="tcaron" unicode="&#x165;" 
 />
    <glyph glyph-name="Uring" unicode="&#x16e;" 
 />
    <glyph glyph-name="uring" unicode="&#x16f;" 
 />
    <glyph glyph-name="Uhungarumlaut" unicode="&#x170;" 
 />
    <glyph glyph-name="uhungarumlaut" unicode="&#x171;" 
 />
    <glyph glyph-name="Iacute" unicode="&#x178;" horiz-adv-x="773" 
d="M350 350l-65 123q-7 13 -15.5 28.5t-18.5 30.5q-5 9 -10.5 17.5t-10.5 16.5q-13 20 -25.5 38t-22.5 32q-15 21 -33 37t-37 27q-11 7 -22 12.5t-21 9.5l-39 19l36 8q3 0 7.5 0.5t8.5 -0.5q14 0 33 -3.5t39 -10.5q19 -7 37 -16.5t32 -22.5q20 -19 38.5 -42t34.5 -46
q14 -20 25.5 -40t21.5 -37l59 -106l116 202q2 2 3.5 4.5t2.5 5.5q9 16 14.5 30t4.5 20v1.5v1.5q-2 5 -5.5 9t-9.5 8q-9 5 -23 10.5t-36 14.5l-17 8h283l-21 -8q-5 -3 -10 -4.5t-10 -3.5q-10 -3 -20.5 -6.5t-21.5 -8.5q-7 -4 -15 -9t-16 -12q-6 -5 -11 -12.5t-10 -15.5
q-4 -7 -8 -14.5t-9 -15.5l-148 -251l-1 -282q0 -15 1.5 -26.5t8.5 -21.5q1 -2 2 -3t2 -3q6 -8 21.5 -13.5t32.5 -9.5q3 -1 5.5 -2t5.5 -1q7 -2 14.5 -4.5l13.5 -4.5l22 -8h-339l23 7q8 1 18.5 4t21.5 6q10 4 20 7.5t18 7.5q5 2 9 5t6 5q3 5 5.5 9.5t3.5 9.5t1.5 10t0.5 9
v5.5v4.5q-1 3 -1 5.5v4.5v250v0zM332 937l45 -147l-143 45l98 102v0zM507 937l45 -147l-144 45l99 102v0z" />
    <glyph glyph-name="Zacute" unicode="&#x179;" 
 />
    <glyph glyph-name="zacute" unicode="&#x17a;" 
 />
    <glyph glyph-name="Zdotaccent" unicode="&#x17b;" 
 />
    <glyph glyph-name="zdotaccent" unicode="&#x17c;" 
 />
    <glyph glyph-name="Zcaron" unicode="&#x17d;" 
 />
    <glyph glyph-name="zcaron" unicode="&#x17e;" 
 />
    <glyph glyph-name="quotedblright" unicode="&#x192;" horiz-adv-x="505" 
d="M451 744q-6 -1 -10.5 1.5t-8.5 6.5q-1 1 -2 1.5t-2 1.5q-2 2 -4.5 4t-5.5 4t-5.5 2.5t-4.5 0.5q-17 -1 -23.5 -36.5t-11.5 -81.5q-1 -4 -1 -7.5t-1 -7.5q-2 -22 -5 -43t-7 -39l-5 -20h100l-5 -41h-106l-61 -306q-5 -26 -14 -62.5t-22 -75.5q-22 -65 -57 -120t-84 -55
q-5 0 -10.5 0.5t-11.5 2.5q-11 3 -20 14t-9 24v4.5t1 4.5q6 16 18.5 26t29.5 11h1.5h1.5q8 0 12 -4.5t6 -9.5q1 0 1 -0.5v-0.5q2 -4 5 -8t8 -6q2 -1 3.5 -1h2.5q21 1 33.5 43t21.5 92q4 17 6.5 33t5.5 31q1 2 1.5 5t0.5 5l70 353h-111l3 43h124l6 27q3 15 7 32t9 34
q20 75 53.5 138t83.5 63h4.5t4.5 -1q15 -3 27 -13.5t12 -24.5q0 -1 -0.5 -3.5t-1.5 -4.5q-6 -18 -20 -27.5t-33 -9.5v1z" />
    <glyph glyph-name="uni02BA" unicode="&#x2ba;" horiz-adv-x="424" 
d="M196 693l-163 -174l91 221l72 -47v0zM384 693l-163 -174l91 221l72 -47v0z" />
    <glyph glyph-name="arrowright" unicode="&#x2c6;" horiz-adv-x="396" 
d="M349 691q-11 -20 -27 -34t-34 -22q-8 -3 -15.5 -4.5t-14.5 -1.5q-19 0 -33.5 8.5t-27.5 18.5t-27.5 18.5t-33.5 8.5h-0.5h-1.5q-19 -1 -30.5 -5t-21.5 -10q-6 -3 -13 -7.5t-15 -8.5l-32 -16l18 33q12 21 34 39t46 24q4 2 8.5 2.5t8.5 0.5h0.5h1.5h1.5h0.5q18 0 30.5 -8.5
t24.5 -18.5t24.5 -18.5t30.5 -8.5h1.5h1.5q22 2 35 5.5t25 9.5q7 3 14.5 7t17.5 9l24 12l-21 -33v0z" />
    <glyph glyph-name="glyph224" unicode="&#x2c7;" horiz-adv-x="315" 
d="M26 741l133 -52l133 47l-133 -139l-133 144v0z" />
    <glyph glyph-name="house" unicode="&#x2c9;" horiz-adv-x="402" 
d="M140 659h142q1 -1 2 -1h2h10.5t12.5 1q8 1 16 4t12 10q1 2 2.5 3.5t2.5 3.5q1 1 2 3l2 4q3 5 6.5 12l8.5 17l15 30v-229l-8 16q-3 4 -5.5 10t-5.5 12q-1 0 -1 0.5v1.5q-4 8 -7.5 15.5t-6.5 12.5q-6 8 -17 10t-24 2h-10.5h-10.5l-155 1q0 -1 -0.5 -1h-0.5q-4 0 -12 -0.5
t-17 -2.5q-7 -1 -13.5 -4t-10.5 -7q-3 -4 -7.5 -10.5t-8.5 -13.5q0 -1 -1 -2.5t-2 -3.5l-8 -14t-7 -12l-10 -17v236l16 -29q5 -11 8.5 -18.5t6.5 -12.5q1 -2 2 -3.5t2 -2.5q1 -2 2 -3.5t2 -3.5q3 -5 14 -8t24 -4q11 -2 21 -2.5t15 -0.5v1z" />
    <glyph glyph-name="endash" unicode="&#x2d8;" horiz-adv-x="315" 
d="M26 741q0 -1 13 -9t33 -18q11 -5 23.5 -10.5t25.5 -8.5q10 -3 19.5 -5t18.5 -2t19.5 1.5t20.5 4.5q12 4 24 8.5t23 9.5q20 8 33 15.5l13 7.5l-10 -21.5t-28 -47.5q-18 -27 -42.5 -48.5t-52.5 -21.5q-29 0 -53.5 22.5t-41.5 49.5q-18 27 -28 49.5l-10 22.5v1z" />
    <glyph glyph-name="sfthyphen" unicode="&#x2d9;" horiz-adv-x="206" 
d="M127 740l45 -147l-144 46l99 101v0z" />
    <glyph glyph-name="filledbox" unicode="&#x2da;" horiz-adv-x="245" 
d="M125 756q0 -1 0.5 -1h0.5h0.5h0.5q35 0 61 -23.5t26 -60.5v0v0v-1v0q-1 -37 -26.5 -63t-62.5 -26q-34 0 -59.5 24.5t-27.5 58.5q-1 37 24.5 64t62.5 27v1zM182 669q0 -1 0 -0.5v0.5v0.5v0.5q0 23 -17.5 38.5t-39.5 15.5q-23 0 -40 -17t-17 -41v0v0v-1v0q1 -22 18 -38
t39 -16q23 0 40 17t17 40v1z" />
    <glyph glyph-name="glyph223" unicode="&#x2db;" horiz-adv-x="254" 
d="M124 -4l25 1l-11.5 -19.5t-24.5 -44.5q-2 -5 -4.5 -10t-5.5 -10q-10 -21 -18 -40.5t-8 -31.5v-2v-2q0 -28 20.5 -50t48.5 -22q11 0 22 3t20 10l14 11l15 -20l-16 -11q-11 -8 -25.5 -11t-31.5 -3q-43 0 -72 29t-29 76q0 12 6.5 28.5t16.5 33.5q4 7 8.5 14.5t8.5 14.5
q16 23 28.5 39.5l12.5 16.5v0z" />
    <glyph glyph-name="onehalf" unicode="&#x2dc;" horiz-adv-x="315" 
d="M159 645l-133 -52l133 145l133 -140l-133 47v0z" />
    <glyph glyph-name="Gamma" unicode="&#x393;" 
 />
    <glyph glyph-name="Theta" unicode="&#x398;" 
 />
    <glyph glyph-name="exclamdown" unicode="&#x3a3;" 
 />
    <glyph glyph-name="Phi" unicode="&#x3a6;" 
 />
    <glyph glyph-name="Atilde" unicode="&#x3a9;" 
 />
    <glyph glyph-name="alpha" unicode="&#x3b1;" 
 />
    <glyph glyph-name="delta" unicode="&#x3b4;" 
 />
    <glyph glyph-name="epsilon" unicode="&#x3b5;" 
 />
    <glyph glyph-name="guillemotleft" unicode="&#x3c0;" 
 />
    <glyph glyph-name="sigma" unicode="&#x3c3;" 
 />
    <glyph glyph-name="tau" unicode="&#x3c4;" 
 />
    <glyph glyph-name="phi" unicode="&#x3c6;" 
 />
    <glyph glyph-name="glyph259" unicode="&#x2013;" horiz-adv-x="438" 
d="M140 349h168q1 -1 2 -1h2h11t12 1q9 1 16.5 4t12.5 9q1 2 2.5 4.5t2.5 4.5q1 1 1.5 2t1.5 2q3 6 6.5 13.5t8.5 17.5l15 30v-230l-8 17l-5 10t-6 13q-1 2 -2 3.5t-2 3.5q-3 6 -5.5 11.5t-5.5 9.5q-6 9 -19.5 10.5t-29.5 1.5h-1h-2h-4.5h-5.5l-181 1q-1 -1 -2.5 -1h-3.5
q-4 0 -10.5 -0.5t-13.5 -1.5q-7 -2 -13 -4.5t-11 -7.5q-3 -4 -7.5 -10.5t-8.5 -13.5q0 -1 -1 -2.5t-2 -3.5l-8 -14t-7 -12l-10 -16v236l16 -29q5 -11 8.5 -18.5t6.5 -13.5q1 -1 1.5 -2t1.5 -2q1 -2 2.5 -4.5t2.5 -4.5q3 -5 14 -7.5t24 -4.5q11 -1 21 -1.5t15 -0.5v1z" />
    <glyph glyph-name="periodcentered" unicode="&#x2014;" horiz-adv-x="812" 
d="M140 349h540q1 -1 2 -1h3h10t12 1q8 1 16 4t13 9q1 2 2.5 4.5t2.5 4.5q1 1 1.5 2t1.5 2q3 6 6.5 13.5t8.5 17.5l16 30v-230l-8 17q-3 4 -6 10t-6 13q0 1 -0.5 1.5t-0.5 1.5q-4 7 -7.5 13.5t-6.5 11.5q-5 8 -16 10t-24 2h-10.5h-10.5l-554 1q-1 -1 -2.5 -1h-3.5
q-4 0 -10.5 -0.5t-13.5 -1.5q-7 -2 -13 -4.5t-11 -7.5q-3 -4 -7.5 -10.5t-8.5 -13.5q0 -1 -1 -2.5t-2 -3.5l-8 -14t-7 -12l-10 -16v236l16 -29q5 -11 8.5 -18.5t6.5 -13.5q1 -1 1.5 -2t1.5 -2q1 -2 2.5 -4.5t2.5 -4.5q3 -5 14 -7.5t24 -4.5q11 -1 21 -1.5t15 -0.5v1z" />
    <glyph glyph-name="underscoredbl" unicode="&#x2017;" 
 />
    <glyph glyph-name="Acircumflex" unicode="&#x2018;" horiz-adv-x="323" 
d="M34 536l256 258l-136 -335l-120 77v0z" />
    <glyph glyph-name="Ecircumflex" unicode="&#x2019;" horiz-adv-x="326" 
d="M294 683l-256 -258l136 336l120 -78v0z" />
    <glyph glyph-name="Ugrave" unicode="&#x201a;" 
 />
    <glyph glyph-name="quotedblbase" unicode="&#x201c;" horiz-adv-x="495" 
d="M34 536l256 258l-136 -335l-120 77v0zM209 537l256 258l-135 -336l-121 78v0z" />
    <glyph glyph-name="perthousand" unicode="&#x201d;" horiz-adv-x="502" 
d="M471 682l-255 -258l136 336l119 -78v0zM289 683l-256 -258l136 336l120 -78v0z" />
    <glyph glyph-name="dotlessi" unicode="&#x201e;" horiz-adv-x="502" 
d="M471 92l-255 -258l136 335l119 -77v0zM289 92l-256 -257l136 335l120 -78v0z" />
    <glyph glyph-name="dagger" unicode="&#x2020;" horiz-adv-x="512" 
d="M295 2q-4 -1 -13 -1h-18h-4h-4h-4.5h-4.5h-18h-12l-9 1l1 12q0 4 1.5 35.5t2.5 73.5q1 9 1 18t1 17q0 20 1 39.5t1 36.5v47.5v41.5v15v15v29.5v33.5v12h-7q-2 -1 -19.5 -1.5t-37.5 -1.5q-8 0 -15 -0.5t-13 -0.5q-7 0 -14.5 -0.5t-15.5 -1.5q-5 0 -11 -0.5t-11 -0.5
q-15 -2 -26 -3t-13 -1l-5 1v4v0.5v0.5q0 2 0.5 3.5t0.5 4.5q0 4 0.5 10t0.5 17v2v2v1v2v2v2q0 4 -0.5 8t-0.5 7q0 4 -0.5 7.5t-0.5 5.5v4h5q3 -1 10.5 -2t18.5 -2q11 -2 24.5 -3t29.5 -1h2h2h1h2h13h14h37h21l6 1v14q0 4 -0.5 23t-1.5 40q0 7 -0.5 14t-0.5 13q0 9 -0.5 19
t-1.5 20q-1 8 -1.5 16.5t-0.5 15.5q-2 22 -3.5 38t-1.5 21l-1 12l7 -1q6 -2 17 -2h24h4h4h6.5h6.5h18.5t12.5 1l6 2v-11q0 -5 -1.5 -22.5t-3.5 -39.5q-1 -7 -1.5 -14.5t-1.5 -14.5q0 -10 -1 -20.5t-1 -19.5q0 -6 -0.5 -13t-0.5 -14q-1 -21 -1.5 -40t-0.5 -24v-13h7
q4 -1 21.5 -1h38.5h12.5h12.5h2h2h2h2q15 0 29 1t24 3q11 1 18 2t10 1l6 1v-3q0 -3 -0.5 -7.5t-0.5 -9.5q-1 -3 -1 -6.5t-1 -7.5v-4.5v-4.5q0 -11 0.5 -17t1.5 -10q0 -3 0.5 -4.5t0.5 -3.5v-0.5v-1.5v-3h-6q-2 -1 -13 0t-26 3q-5 0 -11 0.5t-11 0.5q-8 1 -15.5 1.5
t-14.5 0.5q-6 0 -13 0.5t-15 0.5q-20 1 -37.5 1.5t-19.5 0.5l-6 1v-11v-34.5v-29.5v-15v-15v-41.5v-47.5q0 -17 0.5 -36.5t1.5 -39.5q0 -16 0.5 -31.5t1.5 -30.5q1 -33 2.5 -56t1.5 -27v-11h-7v0z" />
    <glyph glyph-name="Uacute" unicode="&#x2021;" horiz-adv-x="512" 
d="M217 235v7v-2v-0.5v-0.5l-7 1q-2 -1 -19.5 -1.5t-37.5 -1.5q-8 0 -15 -0.5t-13 -0.5q-7 0 -14.5 -0.5t-15.5 -1.5q-5 0 -11 -0.5t-11 -0.5q-15 -2 -26 -3t-13 -1l-5 1v3v0.5v1.5q0 2 0.5 3.5t0.5 4.5q0 4 0.5 10t0.5 17v2v2v1v2q0 5 -0.5 9.5t-0.5 9.5q0 4 -0.5 7t-0.5 5
v5h5q3 -1 10.5 -2t18.5 -2q11 -2 24.5 -3t29.5 -1h2h2h1h2h13h14h37h21l6 1v14q0 2 0.5 10t0.5 20t0.5 28.5t0.5 37.5v12h-7q-2 -1 -19.5 -1.5t-37.5 -1.5q-8 0 -15 -0.5t-13 -0.5q-7 0 -14.5 -0.5t-15.5 -1.5q-5 0 -11 -0.5t-11 -0.5q-15 -2 -26 -3t-13 -1l-5 1v4v0.5v0.5
q0 2 0.5 3.5t0.5 4.5q0 4 0.5 10t0.5 17v2v2v1v2v2v2q0 4 -0.5 8t-0.5 7q0 4 -0.5 7.5t-0.5 5.5v4h5q3 -1 10.5 -2t18.5 -2q11 -2 24.5 -3t29.5 -1h2h2h1h2h13h14h37h21l6 1v14q0 4 -0.5 23t-1.5 40q0 7 -0.5 14t-0.5 13q0 9 -0.5 19t-1.5 20q-1 8 -1.5 16.5t-0.5 15.5
q-2 22 -3.5 38t-1.5 21l-1 12l7 -1q6 -2 17 -2h24h4h4h6.5h6.5h18.5t12.5 1l6 2v-11q0 -5 -1.5 -22.5t-3.5 -39.5q-1 -7 -1.5 -14.5t-1.5 -14.5q0 -10 -1 -20.5t-1 -19.5q0 -6 -0.5 -13t-0.5 -14q-1 -21 -1.5 -40t-0.5 -24v-13h7q4 -1 21.5 -1h38.5h12.5h12.5h2h2h2h2
q15 0 29 1t24 3q11 1 18 2t10 1l6 1v-3q0 -3 -0.5 -7.5t-0.5 -9.5q-1 -3 -1 -6.5t-1 -7.5v-4.5v-4.5q0 -11 0.5 -17t1.5 -10q0 -3 0.5 -4.5t0.5 -3.5v-0.5v-1.5v-3h-6q-2 -1 -13 0t-26 3q-5 0 -11 0.5t-11 0.5q-8 1 -15.5 1.5t-14.5 0.5q-6 0 -13 0.5t-15 0.5
q-20 1 -37.5 1.5t-19.5 0.5l-6 1v-11v-39.5t1 -28.5v-19.5v-10.5v-13h7q4 -1 21.5 -1h38.5h12.5h12.5h2h2h2h2q15 0 29 1t24 3q11 1 18 2t10 1l6 1v-4q0 -3 -0.5 -7t-0.5 -9q-1 -4 -1.5 -7.5t-0.5 -6.5v-5v-4q0 -11 0.5 -17t1.5 -10q0 -3 0.5 -4.5t0.5 -3.5v-1.5v-1.5v-2h-6
q-2 -1 -13.5 0t-27.5 3q-5 0 -10 0.5t-10 0.5q-9 1 -17.5 1.5t-16.5 0.5q-5 0 -11 0.5t-12 0.5q-21 1 -38.5 1.5t-19.5 0.5l-6 1q0 -1 0 -0.5v0.5v1v-7q0 -17 0.5 -36.5t1.5 -39.5q0 -16 0.5 -31.5t1.5 -30.5q1 -33 2.5 -56t1.5 -27v-11h-7q-4 -1 -13 -1h-18h-4h-4h-4.5
h-4.5h-18h-12l-9 1l1 12q0 4 1.5 35.5t2.5 73.5q1 9 1 18t1 17q0 20 1 39.5t1 36.5v1z" />
    <glyph glyph-name="glyph262" unicode="&#x2022;" horiz-adv-x="364" 
d="M249 513l3 -171l80 -147l-146 87l-156 3l135 93l84 135v0z" />
    <glyph glyph-name="fraction" unicode="&#x2026;" horiz-adv-x="604" 
d="M136 101l50 -163l-159 51l109 112v0zM331 101l50 -163l-159 51l109 112v0zM523 101l49 -163l-159 51l110 112v0z" />
    <glyph glyph-name="circumflex" unicode="&#x2030;" horiz-adv-x="1251" 
d="M631 422q1 -1 2 -1h2h1h2q80 0 131.5 -60t52.5 -149q2 -82 -50 -147.5t-138 -65.5h-1.5h-0.5h-1.5h-1.5q-77 2 -125 63t-49 144t49.5 147.5t126.5 67.5v1zM622 362q-55 -5 -88.5 -46t-33.5 -101v-0.5v-1.5v-1.5v-0.5v-6.5t1 -6.5q5 -52 42 -95t92 -43q60 -1 102.5 42
t41.5 105q-1 61 -43.5 108t-101.5 47h-2.5h-3.5q-1 -1 -2.5 -1h-3.5v1zM1034 422q1 -1 2 -1h2h1h2q79 0 131 -60t53 -149q1 -82 -51 -147.5t-137 -65.5h-1.5h-0.5h-1.5h-1.5q-78 2 -126 63t-49 144q0 83 50.5 147.5t126.5 67.5v1zM1025 362q-55 -5 -89 -46t-34 -101v-0.5
v-1.5v-1.5v-0.5q0 -3 0.5 -6.5t0.5 -6.5q6 -52 43 -95t91 -43q61 -1 103 42t41 105q-1 61 -43 108t-101 47h-2.5h-3.5q-1 -1 -2.5 -1h-3.5v1zM588 735l-291 -735h-37l292 735h36v0zM205 738q2 -1 3.5 -1h2.5q80 0 131.5 -64t52.5 -145q1 -82 -50 -149t-137 -67h-0.5h-1.5
h-1.5h-0.5q-77 3 -125.5 66t-50.5 144q-1 83 50 147.5t127 67.5v1zM196 679q-57 -6 -90 -49.5t-33 -105.5v-6.5t1 -6.5q5 -51 42.5 -93.5t91.5 -42.5q61 -1 101 42.5t39 105.5q-1 61 -42 108.5t-100 46.5h-5.5h-4.5v1z" />
    <glyph glyph-name="Igrave" unicode="&#x2039;" horiz-adv-x="282" 
d="M255 81l-229 170v113l226 176v-118l-160 -113l163 -117v-111v0z" />
    <glyph glyph-name="Oacute" unicode="&#x203a;" horiz-adv-x="282" 
d="M27 536l229 -170v-113l-226 -175v117l160 113l-163 117v111v0z" />
    <glyph glyph-name="exclamdbl" unicode="&#x203c;" 
 />
    <glyph glyph-name="uni207F" unicode="&#x207f;" 
 />
    <glyph glyph-name="franc" unicode="&#x20a3;" 
 />
    <glyph glyph-name="peseta" unicode="&#x20a7;" 
 />
    <glyph glyph-name="trademark" unicode="&#x2122;" horiz-adv-x="847" 
d="M563 373l-141 301v-251q0 -7 1 -11.5t5 -9.5q3 -3 6.5 -4.5t6.5 -2.5q3 0 6 -0.5t5 -0.5h3h2h12v-15h-8q-2 -1 -8 -0.5t-14 1.5q-5 0 -11 0.5t-12 0.5h-5.5h-5.5h-2h-2h-2h-2h-3h-3q-5 0 -9.5 -0.5t-8.5 -0.5q-5 -1 -10 -1.5t-9 -0.5l-8 1v16l14 1q3 -1 6 -1t7 1t7 2t6 4
q5 5 6.5 9.5t1.5 10.5v271q0 6 -1 10t-2 7l-2 2t-2 3q-2 3 -7 4t-11 2t-11 1h-7l-5 1v16h8q2 -1 6 -1.5t9 -0.5q2 -1 4.5 -1t5.5 -1h5h5h7.5h7.5q4 1 8 1t7 1q7 0 12.5 0.5t7.5 0.5l6 1l135 -287l54 110l21.5 43l16.5 33q0 1 0.5 2t1.5 2q5 11 10.5 23t12.5 27q2 4 3.5 7.5
t2.5 6.5q1 2 1.5 3.5t1.5 3.5q1 4 2.5 8t2.5 8l4 10h7q2 -1 7 -1.5t11 -0.5q3 -1 7 -1t8 -1h5.5h5.5h5.5h5.5q4 1 7.5 1t6.5 1q6 0 10.5 0.5t6.5 0.5l5 1v-16h-7q-2 -1 -7 -1t-11 -1l-10 -2t-7 -4q-1 -2 -2 -3l-2 -2q-1 -3 -2 -7t-1 -11v-269q0 -7 1.5 -11.5t5.5 -9.5
q3 -3 6.5 -4.5t7.5 -2.5q2 0 4.5 -0.5t5.5 -0.5h2.5h2.5h12v-15h-8q-3 -1 -9.5 -0.5t-15.5 1.5h-10.5t-11.5 1h-8.5h-8.5h-7.5h-7.5q-6 -1 -12 -1h-11q-9 -1 -16 -1.5t-10 -0.5l-10 1v16l15 1q3 -1 6 -1t7 1t7 2t6 4q5 5 6.5 9.5t1.5 10.5v253l-142 -302h-10v0zM238 395
l12 -1v-15h-8q-3 -1 -9.5 -0.5t-15.5 1.5h-10.5t-11.5 1h-8.5h-8.5h-7.5h-7.5q-6 -1 -12 -1h-11q-9 -1 -16 -1.5t-10 -0.5l-10 1v16l15 1q3 -1 6 -1t7 1t7 2t6 4q5 5 6.5 9.5t1.5 10.5v291l-81 -3q-1 -1 -2.5 -1t-3.5 -1q-1 0 -2 -0.5t-2 -1.5q0 -1 -1 -2t-1 -2q-2 -2 -3 -5
t-1 -6l-6 -36h-16l-3 85l9 -1q2 -1 13 -1.5t28 -0.5q12 0 24.5 -0.5t25.5 -0.5h14h13h10.5h10.5q11 0 22.5 0.5t23.5 0.5q33 0 61 0.5t31 0.5l9 2l-3 -85h-15l-4 33q0 1 -0.5 2.5t-0.5 2.5q-1 3 -2 6.5t-3 5.5q-2 3 -5.5 4t-8.5 1l-81 3v-290q0 -7 1 -11.5t5 -9.5
q3 -3 6.5 -4.5t8.5 -2.5q2 0 4 -0.5t5 -0.5h2.5h2.5v1z" />
    <glyph glyph-name="arrowleft" unicode="&#x2190;" 
 />
    <glyph glyph-name="arrowup" unicode="&#x2191;" 
 />
    <glyph glyph-name="glyph257" unicode="&#x2192;" horiz-adv-x="651" 
d="M0 299h447v88l167 -118l-167 -118v87h-447v61v0z" />
    <glyph glyph-name="arrowdown" unicode="&#x2193;" 
 />
    <glyph glyph-name="arrowboth" unicode="&#x2194;" 
 />
    <glyph glyph-name="arrowupdn" unicode="&#x2195;" 
 />
    <glyph glyph-name="arrowupdnbse" unicode="&#x21a8;" 
 />
    <glyph glyph-name="questiondown" unicode="&#x2202;" 
 />
    <glyph glyph-name="quoteright" unicode="&#x2206;" 
 />
    <glyph glyph-name="florin" unicode="&#x220f;" 
 />
    <glyph glyph-name="minus" unicode="&#x2212;" 
 />
    <glyph glyph-name="Icircumflex" unicode="&#x2215;" horiz-adv-x="450" 
d="M420 751l-340 -761h-63l339 761h64v0z" />
    <glyph glyph-name="Ucircumflex" unicode="&#x2219;" horiz-adv-x="213" 
d="M136 451l49 -163l-159 50l110 113v0z" />
    <glyph glyph-name="quotedblleft" unicode="&#x221a;" 
 />
    <glyph glyph-name="yen" unicode="&#x221e;" 
 />
    <glyph glyph-name="orthogonal" unicode="&#x221f;" 
 />
    <glyph glyph-name="intersection" unicode="&#x2229;" 
 />
    <glyph glyph-name="guillemotright" unicode="&#x222b;" 
 />
    <glyph glyph-name="quoteleft" unicode="&#x2248;" 
 />
    <glyph glyph-name="AE" unicode="&#x2260;" 
 />
    <glyph glyph-name="equivalence" unicode="&#x2261;" 
 />
    <glyph glyph-name="ordfeminine" unicode="&#x2264;" 
 />
    <glyph glyph-name="ordmasculine" unicode="&#x2265;" 
 />
    <glyph glyph-name="glyph258" unicode="&#x2302;" horiz-adv-x="679" 
d="M33 347v-314h574v314h34v-347h-641v347h33v0z" />
    <glyph glyph-name="revlogicalnot" unicode="&#x2310;" 
 />
    <glyph glyph-name="integraltp" unicode="&#x2320;" 
 />
    <glyph glyph-name="integralbt" unicode="&#x2321;" 
 />
    <glyph glyph-name="SF100000" unicode="&#x2500;" 
 />
    <glyph glyph-name="SF110000" unicode="&#x2502;" 
 />
    <glyph glyph-name="SF010000" unicode="&#x250c;" 
 />
    <glyph glyph-name="SF030000" unicode="&#x2510;" 
 />
    <glyph glyph-name="SF020000" unicode="&#x2514;" 
 />
    <glyph glyph-name="SF040000" unicode="&#x2518;" 
 />
    <glyph glyph-name="SF080000" unicode="&#x251c;" 
 />
    <glyph glyph-name="SF090000" unicode="&#x2524;" 
 />
    <glyph glyph-name="SF060000" unicode="&#x252c;" 
 />
    <glyph glyph-name="SF070000" unicode="&#x2534;" 
 />
    <glyph glyph-name="SF050000" unicode="&#x253c;" 
 />
    <glyph glyph-name="SF430000" unicode="&#x2550;" 
 />
    <glyph glyph-name="SF240000" unicode="&#x2551;" 
 />
    <glyph glyph-name="SF510000" unicode="&#x2552;" 
 />
    <glyph glyph-name="SF520000" unicode="&#x2553;" 
 />
    <glyph glyph-name="SF390000" unicode="&#x2554;" 
 />
    <glyph glyph-name="SF220000" unicode="&#x2555;" 
 />
    <glyph glyph-name="SF210000" unicode="&#x2556;" 
 />
    <glyph glyph-name="SF250000" unicode="&#x2557;" 
 />
    <glyph glyph-name="SF500000" unicode="&#x2558;" 
 />
    <glyph glyph-name="SF490000" unicode="&#x2559;" 
 />
    <glyph glyph-name="SF380000" unicode="&#x255a;" 
 />
    <glyph glyph-name="SF280000" unicode="&#x255b;" 
 />
    <glyph glyph-name="SF270000" unicode="&#x255c;" 
 />
    <glyph glyph-name="SF260000" unicode="&#x255d;" 
 />
    <glyph glyph-name="SF360000" unicode="&#x255e;" 
 />
    <glyph glyph-name="SF370000" unicode="&#x255f;" 
 />
    <glyph glyph-name="SF420000" unicode="&#x2560;" 
 />
    <glyph glyph-name="SF190000" unicode="&#x2561;" 
 />
    <glyph glyph-name="SF200000" unicode="&#x2562;" 
 />
    <glyph glyph-name="SF230000" unicode="&#x2563;" 
 />
    <glyph glyph-name="SF470000" unicode="&#x2564;" 
 />
    <glyph glyph-name="SF480000" unicode="&#x2565;" 
 />
    <glyph glyph-name="SF410000" unicode="&#x2566;" 
 />
    <glyph glyph-name="SF450000" unicode="&#x2567;" 
 />
    <glyph glyph-name="SF460000" unicode="&#x2568;" 
 />
    <glyph glyph-name="SF400000" unicode="&#x2569;" 
 />
    <glyph glyph-name="SF540000" unicode="&#x256a;" 
 />
    <glyph glyph-name="SF530000" unicode="&#x256b;" 
 />
    <glyph glyph-name="SF440000" unicode="&#x256c;" 
 />
    <glyph glyph-name="upblock" unicode="&#x2580;" 
 />
    <glyph glyph-name="dnblock" unicode="&#x2584;" 
 />
    <glyph glyph-name="block" unicode="&#x2588;" 
 />
    <glyph glyph-name="lfblock" unicode="&#x258c;" 
 />
    <glyph glyph-name="rtblock" unicode="&#x2590;" 
 />
    <glyph glyph-name="ltshade" unicode="&#x2591;" 
 />
    <glyph glyph-name="shade" unicode="&#x2592;" 
 />
    <glyph glyph-name="dkshade" unicode="&#x2593;" 
 />
    <glyph glyph-name="glyph261" unicode="&#x25a0;" horiz-adv-x="679" 
d="M0 641h641v-641h-641v641v0zM33 33h574v574h-574v-574v0z" />
    <glyph glyph-name="filledrect" unicode="&#x25ac;" 
 />
    <glyph glyph-name="triagup" unicode="&#x25b2;" 
 />
    <glyph glyph-name="triagrt" unicode="&#x25ba;" 
 />
    <glyph glyph-name="triagdn" unicode="&#x25bc;" 
 />
    <glyph glyph-name="triaglf" unicode="&#x25c4;" 
 />
    <glyph glyph-name="Edieresis" unicode="&#x25ca;" 
 />
    <glyph glyph-name="circle" unicode="&#x25cb;" 
 />
    <glyph glyph-name="invbullet" unicode="&#x25d8;" 
 />
    <glyph glyph-name="invcircle" unicode="&#x25d9;" 
 />
    <glyph glyph-name="smileface" unicode="&#x263a;" 
 />
    <glyph glyph-name="invsmileface" unicode="&#x263b;" 
 />
    <glyph glyph-name="sun" unicode="&#x263c;" 
 />
    <glyph glyph-name="female" unicode="&#x2640;" 
 />
    <glyph glyph-name="male" unicode="&#x2642;" 
 />
    <glyph glyph-name="spade" unicode="&#x2660;" 
 />
    <glyph glyph-name="club" unicode="&#x2663;" 
 />
    <glyph glyph-name="heart" unicode="&#x2665;" 
 />
    <glyph glyph-name="diamond" unicode="&#x2666;" 
 />
    <glyph glyph-name="musicalnote" unicode="&#x266a;" 
 />
    <glyph glyph-name="musicalnotedbl" unicode="&#x266b;" 
 />
    <glyph glyph-name="Scaron" unicode="&#xf000;" 
 />
    <glyph glyph-name="Ocircumflex" unicode="&#xf001;" horiz-adv-x="914" 
d="M26 740h481v-164l-14 40q-2 4 -3.5 9t-3.5 9q-5 14 -10.5 24.5t-17.5 18.5q-10 6 -21 8.5t-23 3.5q-4 1 -8.5 1h-9.5l-103 1q-2 -1 -4 -1h-5q-12 0 -23.5 -1t-17.5 -7q-4 -4 -5.5 -9.5t-1.5 -10.5v-4.5t1 -5.5v-2v-2v-3.5v-3.5v-239h133q6 -1 12 -1h11q12 0 23 1.5
t20 8.5q2 2 4 3.5t3 3.5q3 3 5.5 6t4.5 8q0 1 0.5 2t1.5 2l21 44v-235l-9 23q-2 3 -3.5 7.5t-2.5 9.5q0 1 -0.5 2.5t-0.5 2.5q-6 16 -12 30.5t-18 20.5q-6 3 -11 5t-11 3q-6 2 -13 2h-15h-2.5h-2.5l-138 1v-255q0 -17 1.5 -29.5t11.5 -24.5q6 -8 21.5 -13.5t32.5 -9.5
q3 -1 5.5 -2t5.5 -1q8 -2 15 -4.5t13 -4.5l22 -8h-339l23 7q8 1 18.5 4t21.5 6q10 4 20 7.5t18 7.5q5 2 9 5t6 5q3 5 5.5 9.5t3.5 9.5t1.5 10t0.5 9v5.5v4.5q-1 3 -1 5.5v4.5v542v9.5v9.5q0 10 -1.5 18.5t-8.5 16.5q-2 2 -6 5t-9 5q-8 4 -18 7.5t-20 7.5q-11 3 -21.5 6
t-18.5 5l-23 8v0zM749 642v-545q0 -17 1.5 -29.5t11.5 -24.5q6 -8 21.5 -13.5t32.5 -9.5q3 -1 5.5 -2t5.5 -1q8 -2 15 -4.5t13 -4.5l21 -8h-338l23 7q8 1 18.5 4t21.5 6q10 4 20 7.5t18 7.5q5 2 9 5t6 5q3 5 5.5 9.5t3.5 9.5t1.5 10t0.5 9v5.5v4.5q-1 3 -1 5.5v4.5v539v3.5
t1 5.5v5v6q0 4 -0.5 7.5t-1.5 7.5q-1 6 -3 11.5t-6 10.5q-2 2 -6 5t-9 5q-8 4 -18 7.5t-20 7.5q-11 3 -21.5 6t-18.5 5l-23 8h338l-21 -9q-6 -4 -14 -6t-17 -4q-2 -1 -4 -1.5t-4 -1.5q-17 -4 -32.5 -9.5t-21.5 -12.5q-1 -2 -2.5 -3.5t-2.5 -3.5q-6 -11 -7 -22.5t-1 -25.5v1z
" />
    <glyph glyph-name="Ograve" unicode="&#xf002;" horiz-adv-x="1080" 
d="M26 740h481v-164l-14 40q-2 4 -3.5 9t-3.5 9q-5 14 -10.5 24.5t-17.5 18.5q-10 6 -21 8.5t-23 3.5q-4 1 -8.5 1h-9.5l-103 1q-2 -1 -4 -1h-5q-12 0 -23.5 -1t-17.5 -7q-4 -4 -5.5 -9.5t-1.5 -10.5v-4.5t1 -5.5v-2v-2v-3.5v-3.5v-239h133q6 -1 12 -1h11q12 0 23 1.5
t20 8.5q2 2 4 3.5t3 3.5q3 3 5.5 6t4.5 8q0 1 0.5 2t1.5 2l21 44v-235l-9 23q-2 3 -3.5 7.5t-2.5 9.5q0 1 -0.5 2.5t-0.5 2.5q-6 16 -12 30.5t-18 20.5q-6 3 -11 5t-11 3q-6 2 -13 2h-15h-2.5h-2.5l-138 1v-255q0 -17 1.5 -29.5t11.5 -24.5q6 -8 21.5 -13.5t32.5 -9.5
q3 -1 5.5 -2t5.5 -1q8 -2 15 -4.5t13 -4.5l22 -8h-339l23 7q8 1 18.5 4t21.5 6q10 4 20 7.5t18 7.5q5 2 9 5t6 5q3 5 5.5 9.5t3.5 9.5t1.5 10t0.5 9v5.5v4.5q-1 3 -1 5.5v4.5v542v9.5v9.5q0 10 -1.5 18.5t-8.5 16.5q-2 2 -6 5t-9 5q-8 4 -18 7.5t-20 7.5q-11 3 -21.5 6
t-18.5 5l-23 8v0zM749 642v-545q0 -11 2 -21t9 -17t19.5 -9t25.5 -2l122 1q6 -1 13.5 -0.5t15.5 1.5q11 2 21 5t18 8q15 10 22.5 26.5t13.5 35.5q1 2 1.5 3.5t0.5 2.5l13 37l1 -168h-509l23 7q8 1 18.5 4t21.5 6q10 4 20 7.5t18 7.5q5 2 9 5t6 5q2 3 3.5 6t3.5 6q2 6 2.5 12
t0.5 12v8.5v9.5v543v3.5t1 5.5v5v6q0 4 -0.5 7.5t-1.5 7.5q-1 6 -3 11.5t-6 10.5q-2 2 -6 5t-9 5q-8 4 -18 7.5t-20 7.5q-11 3 -21.5 6t-18.5 5l-23 8h338l-21 -9q-6 -4 -14 -6t-17 -4q-2 -1 -4 -1.5t-4 -1.5q-17 -4 -32.5 -9.5t-21.5 -12.5q-1 -2 -2.5 -3.5t-2.5 -3.5
q-6 -11 -7 -22.5t-1 -25.5v1z" />
    <glyph glyph-name="degree" horiz-adv-x="247" 
d="M119 723q0 -1 0.5 -1h0.5h0.5h0.5q35 0 61 -23.5t26 -60.5v0v0v-1v0q0 -37 -26 -63t-62 -26q-35 0 -60.5 24.5t-26.5 59.5v0.5v1.5v1.5v0.5q0 35 25.5 60.5t60.5 25.5v1zM177 636q0 24 -17.5 39.5t-40.5 15.5t-39.5 -17t-16.5 -41v0v0v-1v0q1 -22 17.5 -37.5t38.5 -15.5
q23 0 40.5 16.5t17.5 39.5v1z" />
    <glyph glyph-name="bullet" horiz-adv-x="364" 
d="M249 513l3 -171l80 -147l-146 87l-156 3l135 93l84 135v0z" />
    <glyph glyph-name="daggerdbl" horiz-adv-x="438" 
d="M140 349h168q1 -1 2 -1h2h11t12 1q9 1 16.5 4t12.5 9q1 2 2.5 4.5t2.5 4.5q1 1 1.5 2t1.5 2q3 6 6.5 13.5t8.5 17.5l15 30v-230l-8 17l-5 10t-6 13q-1 2 -2 3.5t-2 3.5q-3 6 -5.5 11.5t-5.5 9.5q-6 9 -19.5 10.5t-29.5 1.5h-1h-2h-4.5h-5.5l-181 1q-1 -1 -2.5 -1h-3.5
q-4 0 -10.5 -0.5t-13.5 -1.5q-7 -2 -13 -4.5t-11 -7.5q-3 -4 -7.5 -10.5t-8.5 -13.5q0 -1 -1 -2.5t-2 -3.5l-8 -14t-7 -12l-10 -16v236l16 -29q5 -11 8.5 -18.5t6.5 -13.5q1 -1 1.5 -2t1.5 -2q1 -2 2.5 -4.5t2.5 -4.5q3 -5 14 -7.5t24 -4.5q11 -1 21 -1.5t15 -0.5v1z" />
    </font>
</defs>
</svg>
